<svg width="20" height="20" viewBox="0 0 20 20" fill="none" xmlns="http://www.w3.org/2000/svg">
<path fill-rule="evenodd" clip-rule="evenodd" d="M11.289 2.93726C12.0591 2.19344 13.0906 1.78187 14.1612 1.79117C15.2318 1.80047 16.256 2.22991 17.0131 2.987C17.7701 3.74408 18.1996 4.76823 18.2089 5.83887C18.2182 6.90951 17.8066 7.94096 17.0628 8.71109L17.0537 8.72039L13.7203 12.0537L13.7203 12.0538C12.9545 12.8193 11.9161 13.2493 10.8333 13.2493C9.75059 13.2493 8.71216 12.8193 7.94642 12.0538C7.65349 11.7609 7.65341 11.2861 7.94626 10.9931C8.23911 10.7002 8.71399 10.7001 9.00692 10.993C9.49137 11.4773 10.1483 11.7493 10.8333 11.7493C11.5183 11.7493 12.1752 11.4773 12.6597 10.9931C12.6597 10.993 12.6597 10.993 12.6598 10.993L15.9881 7.66464C16.456 7.17789 16.7148 6.52721 16.7089 5.8519C16.7031 5.17456 16.4314 4.52663 15.9524 4.04766C15.4734 3.56869 14.8255 3.297 14.1482 3.29111C13.4729 3.28525 12.8222 3.54405 12.3354 4.01194L11.4237 4.92372C11.1308 5.21661 10.6559 5.21661 10.363 4.92372C10.0701 4.63083 10.0701 4.15595 10.363 3.86306L11.2797 2.94639L11.289 2.93726ZM6.27976 7.94631C7.04549 7.18081 8.08392 6.75077 9.16667 6.75077C10.2494 6.75077 11.2879 7.18081 12.0536 7.94631C12.3465 8.23916 12.3466 8.71403 12.0537 9.00697C11.7609 9.29991 11.286 9.29998 10.9931 9.00713C10.5086 8.52283 9.85168 8.25077 9.16667 8.25077C8.48166 8.25077 7.8247 8.52283 7.34026 9.00713L4.007 12.3404L3.99771 12.3495C3.75097 12.5878 3.55417 12.8729 3.41878 13.1881C3.28339 13.5032 3.21212 13.8422 3.20914 14.1852C3.20616 14.5282 3.27153 14.8684 3.40142 15.1859C3.53131 15.5034 3.72313 15.7918 3.96569 16.0344C4.20824 16.2769 4.49668 16.4688 4.81416 16.5986C5.13164 16.7285 5.47181 16.7939 5.81483 16.7909C6.15784 16.7879 6.49682 16.7167 6.812 16.5813C7.12718 16.4459 7.41224 16.2491 7.65054 16.0024L7.65992 15.9928L8.57825 15.0753C8.87128 14.7826 9.34615 14.7828 9.63891 15.0758C9.93167 15.3688 9.93145 15.8437 9.63843 16.1365L8.7246 17.0495C8.34891 17.4371 7.90008 17.7464 7.40404 17.9595C6.90586 18.1735 6.37004 18.2862 5.82786 18.2909C5.28568 18.2956 4.74799 18.1923 4.24616 17.9869C3.74433 17.7816 3.28842 17.4784 2.90503 17.095C2.52163 16.7116 2.21843 16.2557 2.01312 15.7539C1.8078 15.2521 1.70449 14.7144 1.7092 14.1722C1.71391 13.63 1.82655 13.0942 2.04056 12.596C2.25366 12.0999 2.56301 11.6511 2.9507 11.2754L6.27968 7.94639L6.27976 7.94631Z" fill="white"/>
</svg>
