<svg width="28" height="28" viewBox="0 0 28 28" fill="none" xmlns="http://www.w3.org/2000/svg">
<path d="M8.79246 7.30754C8.38241 6.89749 7.71759 6.89749 7.30754 7.30754C6.89749 7.71759 6.89749 8.38241 7.30754 8.79246L12.5151 14L7.30754 19.2075C6.89749 19.6176 6.89749 20.2824 7.30754 20.6925C7.71759 21.1025 8.38241 21.1025 8.79246 20.6925L14 15.4849L19.2075 20.6925C19.6176 21.1025 20.2824 21.1025 20.6925 20.6925C21.1025 20.2824 21.1025 19.6176 20.6925 19.2075L15.4849 14L20.6925 8.79246C21.1025 8.38241 21.1025 7.71759 20.6925 7.30754C20.2824 6.89749 19.6176 6.89749 19.2075 7.30754L14 12.5151L8.79246 7.30754Z" fill="#818C99"/>
</svg>
