<svg id="vector" xmlns="http://www.w3.org/2000/svg" width="118" height="118" viewBox="0 0 118 118"><path fill="#00000000" d="M0.25,0.25h117.5v117.5h-117.5z" stroke-opacity="0.1" stroke-width="0.5" stroke="#000000" id="path_0"/><path fill="#818C99" d="M72.33,55.89C71.9,55.96 71.45,56 71,56C66.58,56 63,52.42 63,48C63,47.19 63.12,46.41 63.35,45.67C63.21,45.67 63.06,45.67 62.91,45.67H55.08C52.08,45.67 50.76,45.93 49.43,46.65C48.23,47.29 47.29,48.23 46.65,49.43C45.93,50.76 45.67,52.08 45.67,55.08V62.92C45.67,65.92 45.93,67.24 46.65,68.57C47.29,69.77 48.23,70.71 49.43,71.35C50.76,72.07 52.08,72.33 55.08,72.33H62.91C65.92,72.33 67.24,72.07 68.57,71.35C69.77,70.71 70.71,69.77 71.35,68.57C72.07,67.24 72.33,65.92 72.33,62.92V55.89ZM62.91,59.12C62.67,58.93 62.34,58.97 62.15,59.22L58.05,64.71L55.33,61.41C55.31,61.37 55.28,61.35 55.25,61.32C55.01,61.13 54.67,61.18 54.49,61.42L50.54,66.67C50.47,66.77 50.43,66.89 50.43,67.01C50.43,67.32 50.67,67.57 50.97,67.57H67.98C68.1,67.57 68.21,67.53 68.31,67.46C68.55,67.27 68.59,66.92 68.42,66.68L63.01,59.22C62.98,59.18 62.95,59.15 62.91,59.12ZM55.19,53.29C55.19,54.34 54.34,55.19 53.29,55.19C52.23,55.19 51.38,54.34 51.38,53.29C51.38,52.23 52.23,51.38 53.29,51.38C54.34,51.38 55.19,52.23 55.19,53.29Z" fill-rule="evenodd" id="path_1"/><path fill="#818C99" d="M71,54C74.31,54 77,51.31 77,48C77,44.69 74.31,42 71,42C67.69,42 65,44.69 65,48C65,51.31 67.69,54 71,54ZM71.6,45.6V48C71.6,48.33 71.33,48.6 71,48.6C70.67,48.6 70.4,48.33 70.4,48V45.6C70.4,45.27 70.67,45 71,45C71.33,45 71.6,45.27 71.6,45.6ZM71.75,50.25V50.55C71.75,50.88 71.48,51.15 71.15,51.15H70.85C70.52,51.15 70.25,50.88 70.25,50.55V50.25C70.25,49.92 70.52,49.65 70.85,49.65H71.15C71.48,49.65 71.75,49.92 71.75,50.25Z" id="path_2"/></svg>