<svg width="20" height="20" viewBox="0 0 20 20" fill="none" xmlns="http://www.w3.org/2000/svg">
<path d="M7.46806 3.75C7.91382 3.75 8.07546 3.79641 8.23842 3.88357C8.40139 3.97072 8.52928 4.09861 8.61643 4.26158C8.70359 4.42454 8.75 4.58618 8.75 5.03194V14.9681C8.75 15.4138 8.70359 15.5755 8.61643 15.7384C8.52928 15.9014 8.40139 16.0293 8.23842 16.1164C8.07546 16.2036 7.91382 16.25 7.46806 16.25H6.28194C5.83618 16.25 5.67454 16.2036 5.51158 16.1164C5.34861 16.0293 5.22072 15.9014 5.13357 15.7384C5.04641 15.5755 5 15.4138 5 14.9681V5.03194C5 4.58618 5.04641 4.42454 5.13357 4.26158C5.22072 4.09861 5.34861 3.97072 5.51158 3.88357C5.67454 3.79641 5.83618 3.75 6.28194 3.75H7.46806ZM13.7181 3.75C14.1638 3.75 14.3255 3.79641 14.4884 3.88357C14.6514 3.97072 14.7793 4.09861 14.8664 4.26158C14.9536 4.42454 15 4.58618 15 5.03194V14.9681C15 15.4138 14.9536 15.5755 14.8664 15.7384C14.7793 15.9014 14.6514 16.0293 14.4884 16.1164C14.3255 16.2036 14.1638 16.25 13.7181 16.25H12.5319C12.0862 16.25 11.9245 16.2036 11.7616 16.1164C11.5986 16.0293 11.4707 15.9014 11.3836 15.7384C11.2964 15.5755 11.25 15.4138 11.25 14.9681V5.03194C11.25 4.58618 11.2964 4.42454 11.3836 4.26158C11.4707 4.09861 11.5986 3.97072 11.7616 3.88357C11.9245 3.79641 12.0862 3.75 12.5319 3.75H13.7181Z" fill="#818C99"/>
</svg>
