<svg width="70" height="70" viewBox="0 0 70 70" fill="none" xmlns="http://www.w3.org/2000/svg">
<circle cx="35" cy="35" r="35" fill="#F23F51"/>
<path d="M27.9999 43.1667C27.9999 44.45 29.0499 45.5 30.3333 45.5H39.6666C40.9499 45.5 41.9999 44.45 41.9999 43.1667V31.5C41.9999 30.2167 40.9499 29.1667 39.6666 29.1667H30.3333C29.0499 29.1667 27.9999 30.2167 27.9999 31.5V43.1667ZM41.9999 25.6667H39.0833L38.2549 24.8383C38.0449 24.6283 37.7416 24.5 37.4383 24.5H32.5616C32.2583 24.5 31.9549 24.6283 31.7449 24.8383L30.9166 25.6667H27.9999C27.3583 25.6667 26.8333 26.1917 26.8333 26.8333C26.8333 27.475 27.3583 28 27.9999 28H41.9999C42.6416 28 43.1666 27.475 43.1666 26.8333C43.1666 26.1917 42.6416 25.6667 41.9999 25.6667Z" fill="white"/>
</svg>
