<svg width="16" height="16" viewBox="0 0 16 16" fill="none" xmlns="http://www.w3.org/2000/svg">
<path d="M12 2C13.1046 2 14 2.89543 14 4V12C14 13.1046 13.1046 14 12 14H4C2.89543 14 2 13.1046 2 12V4C2 2.89543 2.89543 2 4 2H12ZM9.81655 8.21464C9.70747 8.12999 9.55042 8.14979 9.46577 8.25887L7.33333 11.0067L5.86538 9.23925C5.85383 9.22535 5.84081 9.21274 5.82655 9.20164C5.71756 9.11688 5.56049 9.13651 5.47572 9.2455L3.64716 11.5965C3.61302 11.6404 3.59449 11.6944 3.59449 11.75C3.59449 11.8881 3.70642 12 3.84449 12H12.1667C12.2208 12 12.2734 11.9825 12.3167 11.95C12.4271 11.8672 12.4495 11.7105 12.3667 11.6L9.86327 8.26214C9.84989 8.24429 9.83417 8.22832 9.81655 8.21464Z" fill="#A0A1B0"/>
</svg>
