<svg width="49" height="48" viewBox="0 0 49 48" fill="none" xmlns="http://www.w3.org/2000/svg">
<path fill-rule="evenodd" clip-rule="evenodd" d="M24.8963 37.4271L16.2555 44.3868L16.2533 44.3886C14.5969 45.7586 12.0923 44.5787 12.0923 42.4279V37.2572H7.78254C4.48517 37.2572 1.81433 34.5825 1.81433 31.2857V15.8572C1.81433 12.9671 3.86501 10.5589 6.59045 10.0052C7.50281 9.81988 8.39267 10.4092 8.57801 11.3216C8.76335 12.234 8.17398 13.1238 7.26162 13.3092C6.07809 13.5496 5.18576 14.6 5.18576 15.8572V31.2857C5.18576 32.7228 6.34954 33.8857 7.78254 33.8857H12.9215C14.3268 33.8857 15.4637 35.0255 15.4637 36.4286V40.6956L22.7573 34.821L22.9868 34.6281C23.6994 34.029 24.7628 34.1211 25.3618 34.8338C25.9609 35.5464 25.8688 36.6098 25.1562 37.2088L24.8963 37.4271ZM24.6224 31.8758L24.6112 31.8664C24.1428 31.4729 23.5506 31.2572 22.9389 31.2572H16.3572C13.0593 31.2572 10.3858 28.5837 10.3858 25.2857V9.85717C10.3858 6.55924 13.0593 3.88574 16.3572 3.88574H40.3572C43.6551 3.88574 46.3286 6.55924 46.3286 9.85717V25.2857C46.3286 28.5837 43.6551 31.2572 40.3572 31.2572H36.9V36.4232C36.9 38.5759 34.3946 39.7512 32.7398 38.3854L32.7374 38.3834L24.6224 31.8758ZM16.3572 7.25717C14.9212 7.25717 13.7572 8.42123 13.7572 9.85717V25.2857C13.7572 26.7217 14.9212 27.8857 16.3572 27.8857H22.9389C24.337 27.8857 25.6905 28.3763 26.7638 29.2715L33.5286 34.6963V30.4286C33.5286 29.0242 34.6671 27.8857 36.0715 27.8857H40.3572C41.7931 27.8857 42.9572 26.7217 42.9572 25.2857V9.85717C42.9572 8.42123 41.7931 7.25717 40.3572 7.25717H16.3572Z" fill="#5159F6"/>
</svg>
