<svg width="17" height="18" viewBox="0 0 17 18" fill="none" xmlns="http://www.w3.org/2000/svg">
<path fill-rule="evenodd" clip-rule="evenodd" d="M8.58333 2.19231C4.77752 2.19231 1.69231 5.27752 1.69231 9.08333C1.69231 12.8891 4.77752 15.9744 8.58333 15.9744C12.3891 15.9744 15.4744 12.8891 15.4744 9.08333C15.4744 5.27752 12.3891 2.19231 8.58333 2.19231ZM0.25 9.08333C0.25 4.48096 3.98096 0.75 8.58333 0.75C13.1857 0.75 16.9167 4.48096 16.9167 9.08333C16.9167 13.6857 13.1857 17.4167 8.58333 17.4167C3.98096 17.4167 0.25 13.6857 0.25 9.08333Z" fill="#5159F6"/>
<path fill-rule="evenodd" clip-rule="evenodd" d="M8.58333 4.55609C8.98162 4.55609 9.30449 4.87896 9.30449 5.27724V9.71768C9.30449 10.116 8.98162 10.4388 8.58333 10.4388C8.18505 10.4388 7.86218 10.116 7.86218 9.71768V5.27724C7.86218 4.87896 8.18505 4.55609 8.58333 4.55609Z" fill="#5159F6"/>
<path d="M8.58333 13.5238C9.10884 13.5238 9.53486 13.0977 9.53486 12.5722C9.53486 12.0467 9.10884 11.6207 8.58333 11.6207C8.05782 11.6207 7.63181 12.0467 7.63181 12.5722C7.63181 13.0977 8.05782 13.5238 8.58333 13.5238Z" fill="#5159F6"/>
</svg>
