<svg width="32" height="32" viewBox="0 0 32 32" fill="none" xmlns="http://www.w3.org/2000/svg">
<rect width="32" height="32" rx="16" fill="#67D292"/>
<path fill-rule="evenodd" clip-rule="evenodd" d="M19.5852 24.75C22.2116 24.75 24.3406 22.6209 24.3406 19.9946C24.3406 17.3682 22.2116 15.2391 19.5852 15.2391C16.9588 15.2391 14.8298 17.3682 14.8298 19.9946C14.8298 22.6209 16.9588 24.75 19.5852 24.75ZM21.9124 18.814L20.5865 18.6839L20.0028 17.3063C19.8201 16.875 19.3517 16.8748 19.1688 17.3062L18.5848 18.6839L17.2592 18.814C16.7959 18.8595 16.655 19.3191 17.0127 19.6233L18.0507 20.5059L17.6653 21.9438C17.5388 22.416 17.933 22.7007 18.3246 22.4177L19.5858 21.5062L20.847 22.4177C21.2402 22.7018 21.6328 22.416 21.5063 21.9438L21.121 20.5059L22.1589 19.6233C22.5152 19.3204 22.3737 18.8593 21.9124 18.814Z" fill="white"/>
<path fill-rule="evenodd" clip-rule="evenodd" d="M19.6184 10.7652C19.6184 12.7066 18.0446 14.2804 16.1032 14.2804C14.1618 14.2804 12.5879 12.7066 12.5879 10.7652C12.5879 8.82382 14.1618 7.25 16.1032 7.25C18.0446 7.25 19.6184 8.82382 19.6184 10.7652Z" fill="white"/>
<path d="M13.2782 18.1136C13.2782 17.2121 12.5187 16.4664 11.6638 16.7527C9.3452 17.5291 7.66675 19.8001 7.66675 22.4806C7.66675 23.1449 8.18209 23.6834 8.81781 23.6834H12.4765C12.9193 23.6834 13.2782 23.3245 13.2782 22.8818V18.1136Z" fill="white"/>
</svg>
