<svg width="32" height="32" viewBox="0 0 32 32" fill="none" xmlns="http://www.w3.org/2000/svg">
<rect width="32" height="32" rx="16" fill="#B463E7"/>
<path fill-rule="evenodd" clip-rule="evenodd" d="M17.289 8.93726C18.0591 8.19344 19.0906 7.78187 20.1612 7.79117C21.2318 7.80047 22.256 8.22991 23.0131 8.987C23.7701 9.74408 24.1996 10.7682 24.2089 11.8389C24.2182 12.9095 23.8066 13.941 23.0628 14.7111L23.0537 14.7204L19.7203 18.0537L19.7203 18.0538C18.9545 18.8193 17.9161 19.2493 16.8333 19.2493C15.7506 19.2493 14.7122 18.8193 13.9464 18.0538C13.6535 17.761 13.6534 17.2861 13.9463 16.9931C14.2391 16.7002 14.714 16.7001 15.0069 16.993C15.4914 17.4773 16.1483 17.7493 16.8333 17.7493C17.5183 17.7493 18.1752 17.4773 18.6597 16.9931C18.6597 16.993 18.6597 16.993 18.6598 16.993L21.9881 13.6646C22.456 13.1779 22.7148 12.5272 22.7089 11.8519C22.7031 11.1746 22.4314 10.5266 21.9524 10.0477C21.4734 9.56869 20.8255 9.297 20.1482 9.29111C19.4729 9.28525 18.8222 9.54405 18.3354 10.0119L17.4237 10.9237C17.1308 11.2166 16.6559 11.2166 16.363 10.9237C16.0701 10.6308 16.0701 10.156 16.363 9.86306L17.2797 8.94639L17.289 8.93726ZM12.2798 13.9463C13.0455 13.1808 14.0839 12.7508 15.1667 12.7508C16.2494 12.7508 17.2879 13.1808 18.0536 13.9463C18.3465 14.2392 18.3466 14.714 18.0537 15.007C17.7609 15.2999 17.286 15.3 16.9931 15.0071C16.5086 14.5228 15.8517 14.2508 15.1667 14.2508C14.4817 14.2508 13.8247 14.5228 13.3403 15.0071L10.007 18.3404L9.99771 18.3495C9.75097 18.5878 9.55417 18.8729 9.41878 19.1881C9.28339 19.5032 9.21212 19.8422 9.20914 20.1852C9.20616 20.5282 9.27153 20.8684 9.40142 21.1859C9.53131 21.5034 9.72313 21.7918 9.96569 22.0344C10.2082 22.2769 10.4967 22.4688 10.8142 22.5986C11.1316 22.7285 11.4718 22.7939 11.8148 22.7909C12.1578 22.7879 12.4968 22.7167 12.812 22.5813C13.1272 22.4459 13.4122 22.2491 13.6505 22.0024L13.6599 21.9928L14.5783 21.0753C14.8713 20.7826 15.3462 20.7828 15.6389 21.0758C15.9317 21.3688 15.9315 21.8437 15.6384 22.1365L14.7246 23.0495C14.3489 23.4371 13.9001 23.7464 13.404 23.9595C12.9059 24.1735 12.37 24.2861 11.8279 24.2909C11.2857 24.2956 10.748 24.1923 10.2462 23.9869C9.74433 23.7816 9.28842 23.4784 8.90503 23.095C8.52163 22.7116 8.21843 22.2557 8.01312 21.7539C7.8078 21.2521 7.70449 20.7144 7.7092 20.1722C7.71391 19.63 7.82655 19.0942 8.04056 18.596C8.25366 18.0999 8.56301 17.6511 8.9507 17.2754L12.2797 13.9464L12.2798 13.9463Z" fill="white"/>
</svg>
