<svg width="24" height="24" viewBox="0 0 24 24" fill="none" xmlns="http://www.w3.org/2000/svg">
<path fill-rule="evenodd" clip-rule="evenodd" d="M8.53518 3.53479C9.45411 2.61586 10.7004 2.09961 12 2.09961C13.2996 2.09961 14.5459 2.61586 15.4648 3.53479C16.3838 4.45371 16.9 5.70005 16.9 6.99961V10.0996H18C18.7691 10.0996 19.5068 10.4051 20.0506 10.949C20.5945 11.4929 20.9 12.2305 20.9 12.9996V18.9996C20.9 19.7687 20.5945 20.5064 20.0506 21.0502C19.5068 21.5941 18.7691 21.8996 18 21.8996H6.00001C5.23088 21.8996 4.49325 21.5941 3.9494 21.0502C3.40554 20.5064 3.10001 19.7687 3.10001 18.9996V12.9996C3.10001 12.2305 3.40554 11.4929 3.9494 10.949C4.49325 10.4051 5.23088 10.0996 6.00001 10.0996H7.10001V6.99961C7.10001 5.70005 7.61625 4.45371 8.53518 3.53479ZM8.90001 10.0996H15.1V6.99961C15.1 6.17744 14.7734 5.38894 14.192 4.80758C13.6107 4.22622 12.8222 3.89961 12 3.89961C11.1778 3.89961 10.3893 4.22622 9.80797 4.80758C9.22661 5.38894 8.90001 6.17744 8.90001 6.99961V10.0996ZM6.00001 11.8996C5.70827 11.8996 5.42848 12.0155 5.22219 12.2218C5.0159 12.4281 4.90001 12.7079 4.90001 12.9996V18.9996C4.90001 19.2913 5.0159 19.5711 5.22219 19.7774C5.42848 19.9837 5.70827 20.0996 6.00001 20.0996H18C18.2917 20.0996 18.5715 19.9837 18.7778 19.7774C18.9841 19.5711 19.1 19.2913 19.1 18.9996V12.9996C19.1 12.7079 18.9841 12.4281 18.7778 12.2218C18.5715 12.0155 18.2917 11.8996 18 11.8996H6.00001ZM12 14.0996C12.4971 14.0996 12.9 14.5026 12.9 14.9996V16.9996C12.9 17.4967 12.4971 17.8996 12 17.8996C11.5029 17.8996 11.1 17.4967 11.1 16.9996V14.9996C11.1 14.5026 11.5029 14.0996 12 14.0996Z" fill="#5159F6"/>
</svg>
