<svg width="10" height="10" viewBox="0 0 10 10" fill="none" xmlns="http://www.w3.org/2000/svg">
<path d="M8.94717 1.05268C9.24006 1.34557 9.24006 1.82044 8.94717 2.11334L6.061 4.99967L8.94717 7.88602C9.21565 8.15451 9.23803 8.57591 9.01429 8.86988L8.94717 8.94668C8.65428 9.23957 8.1794 9.23957 7.88651 8.94668L5.00016 6.06051L2.11383 8.94668C1.82093 9.23957 1.34606 9.23957 1.05317 8.94668C0.760273 8.65379 0.760273 8.17891 1.05317 7.88602L3.93933 4.99967L1.05317 2.11334C0.784681 1.84485 0.762307 1.42345 0.986045 1.12948L1.05317 1.05268C1.34606 0.759785 1.82093 0.759785 2.11383 1.05268L5.00016 3.93884L7.88651 1.05268C8.1794 0.759785 8.65428 0.759785 8.94717 1.05268Z" fill="white"/>
</svg>
