<svg width="24" height="24" viewBox="0 0 24 24" fill="none" xmlns="http://www.w3.org/2000/svg">
<path fill-rule="evenodd" clip-rule="evenodd" d="M12 1.1001C12.497 1.1001 12.9 1.50304 12.9 2.0001V3.0001C12.9 3.49715 12.497 3.9001 12 3.9001C11.5029 3.9001 11.1 3.49715 11.1 3.0001V2.0001C11.1 1.50304 11.5029 1.1001 12 1.1001ZM4.26348 4.2636C4.61495 3.91213 5.1848 3.91213 5.53627 4.2636L6.13637 4.8637C6.48784 5.21517 6.48784 5.78502 6.13637 6.13649C5.7849 6.48797 5.21505 6.48797 4.86358 6.13649L4.26348 5.5364C3.91201 5.18492 3.91201 4.61508 4.26348 4.2636ZM19.7367 4.26368C20.0881 4.6152 20.0881 5.18505 19.7365 5.53648L19.1363 6.13657C18.7848 6.488 18.2149 6.48793 17.8635 6.13641C17.5121 5.7849 17.5121 5.21505 17.8637 4.86362L18.4639 4.26352C18.8154 3.9121 19.3853 3.91217 19.7367 4.26368ZM12 6.9001C9.18332 6.9001 6.89998 9.18344 6.89998 12.0001C6.89998 14.8168 9.18332 17.1001 12 17.1001C14.8166 17.1001 17.1 14.8168 17.1 12.0001C17.1 9.18344 14.8166 6.9001 12 6.9001ZM5.09998 12.0001C5.09998 8.18933 8.18921 5.1001 12 5.1001C15.8107 5.1001 18.9 8.18933 18.9 12.0001C18.9 14.775 17.2619 17.1674 14.9 18.2629V20.0001C14.9 21.6017 13.6016 22.9001 12 22.9001C10.3983 22.9001 9.09998 21.6017 9.09998 20.0001V18.2629C6.73805 17.1674 5.09998 14.775 5.09998 12.0001ZM10.9 18.8129V20.0001C10.9 20.6076 11.3925 21.1001 12 21.1001C12.6075 21.1001 13.1 20.6076 13.1 20.0001V18.8129C12.7418 18.8703 12.3744 18.9001 12 18.9001C11.6256 18.9001 11.2582 18.8703 10.9 18.8129ZM1.09998 12.0001C1.09998 11.503 1.50292 11.1001 1.99998 11.1001H2.99998C3.49703 11.1001 3.89998 11.503 3.89998 12.0001C3.89998 12.4972 3.49703 12.9001 2.99998 12.9001H1.99998C1.50292 12.9001 1.09998 12.4972 1.09998 12.0001ZM20.1 12.0001C20.1 11.503 20.5029 11.1001 21 11.1001H22C22.497 11.1001 22.9 11.503 22.9 12.0001C22.9 12.4972 22.497 12.9001 22 12.9001H21C20.5029 12.9001 20.1 12.4972 20.1 12.0001Z" fill="#76787A"/>
</svg>
