<svg width="24" height="24" viewBox="0 0 24 24" fill="none" xmlns="http://www.w3.org/2000/svg">
<path fill-rule="evenodd" clip-rule="evenodd" d="M8.62501 4.6501C8.08653 4.6501 7.65001 5.08662 7.65001 5.6251C7.65001 6.16358 8.08653 6.6001 8.62501 6.6001C9.16348 6.6001 9.60001 6.16358 9.60001 5.6251C9.60001 5.08662 9.16348 4.6501 8.62501 4.6501ZM5.85001 5.6251C5.85001 4.09251 7.09242 2.8501 8.62501 2.8501C10.1576 2.8501 11.4 4.09251 11.4 5.6251C11.4 7.15769 10.1576 8.4001 8.62501 8.4001C7.09242 8.4001 5.85001 7.15769 5.85001 5.6251ZM15.375 4.6501C14.8365 4.6501 14.4 5.08662 14.4 5.6251C14.4 6.16358 14.8365 6.6001 15.375 6.6001C15.9135 6.6001 16.35 6.16358 16.35 5.6251C16.35 5.08662 15.9135 4.6501 15.375 4.6501ZM12.6 5.6251C12.6 4.09251 13.8424 2.8501 15.375 2.8501C16.9076 2.8501 18.15 4.09251 18.15 5.6251C18.15 7.15769 16.9076 8.4001 15.375 8.4001C13.8424 8.4001 12.6 7.15769 12.6 5.6251ZM4.12501 9.1501C3.58653 9.1501 3.15001 9.58662 3.15001 10.1251C3.15001 10.6636 3.58653 11.1001 4.12501 11.1001C4.66348 11.1001 5.10001 10.6636 5.10001 10.1251C5.10001 9.58662 4.66348 9.1501 4.12501 9.1501ZM1.35001 10.1251C1.35001 8.59251 2.59242 7.3501 4.12501 7.3501C5.6576 7.3501 6.90001 8.59251 6.90001 10.1251C6.90001 11.6577 5.6576 12.9001 4.12501 12.9001C2.59242 12.9001 1.35001 11.6577 1.35001 10.1251ZM19.875 9.1501C19.3365 9.1501 18.9 9.58662 18.9 10.1251C18.9 10.6636 19.3365 11.1001 19.875 11.1001C20.4135 11.1001 20.85 10.6636 20.85 10.1251C20.85 9.58662 20.4135 9.1501 19.875 9.1501ZM17.1 10.1251C17.1 8.59251 18.3424 7.3501 19.875 7.3501C21.4076 7.3501 22.65 8.59251 22.65 10.1251C22.65 11.6577 21.4076 12.9001 19.875 12.9001C18.3424 12.9001 17.1 11.6577 17.1 10.1251ZM9.42818 9.6954C10.1694 9.13718 11.0721 8.83527 12 8.83527C12.9279 8.83527 13.8306 9.13718 14.5718 9.6954C15.313 10.2536 15.8525 11.0379 16.1088 11.9297C16.3403 12.7355 16.88 13.4176 17.6108 13.8282C18.3685 14.2425 18.9673 14.8966 19.3132 15.688C19.66 16.4812 19.7329 17.3671 19.5207 18.2064C19.3084 19.0456 18.823 19.7903 18.1409 20.3233C17.4588 20.8563 16.6187 21.1471 15.7531 21.1501L15.7506 21.1501C15.2297 21.1504 14.7139 21.0474 14.2331 20.847C13.5252 20.5535 12.7664 20.4024 12 20.4024C11.2335 20.4024 10.4746 20.5535 9.76659 20.8471L9.76855 20.8463C9.2873 21.0471 8.77094 21.1504 8.24945 21.1501L8.24693 21.1501C7.38129 21.1471 6.54124 20.8563 5.85911 20.3233C5.17699 19.7903 4.69157 19.0456 4.47932 18.2064C4.26707 17.3671 4.34006 16.4812 4.68679 15.688C5.03273 14.8966 5.63153 14.2425 6.38922 13.8282C7.12004 13.4176 7.65972 12.7355 7.89126 11.9297C8.14751 11.0379 8.68697 10.2536 9.42818 9.6954ZM12 10.6353C11.4628 10.6353 10.9402 10.8101 10.5111 11.1332C10.0819 11.4564 9.76961 11.9105 9.62126 12.4268C9.25831 13.6899 8.41146 14.7588 7.26478 15.401L7.25561 15.4061C6.8463 15.6291 6.52279 15.9819 6.33609 16.409C6.14939 16.8361 6.11008 17.3131 6.22437 17.765C6.33866 18.2169 6.60004 18.6179 6.96734 18.9049C7.33433 19.1916 7.78621 19.3482 8.25191 19.3501C8.53454 19.3501 8.81438 19.294 9.07521 19.1852L9.07717 19.1844C10.0037 18.8002 10.997 18.6024 12 18.6024C13.0031 18.6024 13.9963 18.8002 14.9228 19.1844L14.9248 19.1852C15.1856 19.294 15.4655 19.3501 15.7481 19.3501C16.2138 19.3482 16.6657 19.1916 17.0327 18.9049C17.4 18.6179 17.6614 18.2169 17.7756 17.765C17.8899 17.3131 17.8506 16.8361 17.6639 16.409C17.4772 15.9819 17.1537 15.629 16.7444 15.406L16.7352 15.401C15.5885 14.7588 14.7417 13.6899 14.3788 12.4268C14.2304 11.9105 13.9181 11.4564 13.489 11.1332C13.0598 10.8101 12.5372 10.6353 12 10.6353Z" fill="#76787A"/>
</svg>
