<svg width="24" height="24" viewBox="0 0 24 24" fill="none" xmlns="http://www.w3.org/2000/svg">
<path d="M4.69267 12.0173C5.15541 11.9174 5.61146 12.2116 5.7113 12.6744C6.32343 15.5116 8.84483 17.571 11.7858 17.571H12.2144C15.155 17.571 17.6762 15.5121 18.2887 12.6752C18.3886 12.2125 18.8447 11.9184 19.3074 12.0183C19.7701 12.1182 20.0643 12.5743 19.9644 13.037C19.2274 16.4503 16.329 18.9793 12.8573 19.2594L12.8572 21.8567C12.8572 22.3301 12.4735 22.7139 12.0001 22.7139C11.5267 22.7139 11.1429 22.3301 11.1429 21.8567L11.1428 19.2594C7.67071 18.9793 4.7721 16.4497 4.03557 13.0359C3.93573 12.5732 4.22993 12.1171 4.69267 12.0173ZM12.0001 1.71387C14.367 1.71387 16.2858 3.63265 16.2858 5.99958V11.1424C16.2858 13.5094 14.367 15.4282 12.0001 15.4282C9.63315 15.4282 7.71437 13.5094 7.71437 11.1424V5.99958C7.71437 3.63265 9.63315 1.71387 12.0001 1.71387Z" fill="white"/>
</svg>
