<svg width="24" height="24" viewBox="0 0 24 24" fill="none" xmlns="http://www.w3.org/2000/svg">
<path fill-rule="evenodd" clip-rule="evenodd" d="M6.59992 6.59999C7.28938 6.59999 7.8108 6.35515 8.20758 5.97424C8.49974 5.69377 8.72101 5.33161 8.87254 5.08359L8.87264 5.08343C8.89614 5.04496 8.91797 5.00924 8.93812 4.97699C9.1184 4.68855 9.24832 4.51855 9.4074 4.40286C9.54273 4.30444 9.7635 4.19999 10.1999 4.19999H13.7999C14.2363 4.19999 14.4571 4.30444 14.5924 4.40286C14.7515 4.51855 14.8814 4.68855 15.0617 4.97699C15.0819 5.00928 15.1038 5.04505 15.1273 5.08358C15.2788 5.3316 15.5001 5.69376 15.7923 5.97424C16.189 6.35515 16.7105 6.59999 17.3999 6.59999C18.2794 6.59999 18.5878 6.60435 18.8267 6.65187C19.8977 6.86492 20.735 7.70219 20.948 8.77325C20.9956 9.01215 20.9999 9.32048 20.9999 10.2V14.34C20.9999 15.3629 20.9992 16.076 20.9539 16.6312C20.9094 17.1758 20.8264 17.4887 20.7056 17.7258C20.4468 18.2338 20.0337 18.6469 19.5257 18.9057C19.2887 19.0265 18.9758 19.1094 18.4311 19.1539C17.876 19.1993 17.1629 19.2 16.1399 19.2H7.85828C6.83533 19.2 6.12225 19.1993 5.56709 19.1539C5.02244 19.1094 4.70952 19.0265 4.4725 18.9057C3.96446 18.6469 3.55142 18.2338 3.29256 17.7258C3.17179 17.4887 3.08883 17.1758 3.04433 16.6312C2.99898 16.076 2.99828 15.3629 2.99828 14.34V10.2016C2.99828 9.32051 3.00265 9.01162 3.05035 8.7723C3.26364 7.702 4.10029 6.86536 5.17058 6.65206C5.4099 6.60437 5.71879 6.59999 6.59992 6.59999ZM10.1999 2.39999C9.43635 2.39999 8.83212 2.59555 8.34869 2.94713C7.88903 3.28143 7.60645 3.71144 7.41173 4.02299C7.37899 4.07537 7.34902 4.12366 7.32129 4.16833C7.1585 4.43059 7.07313 4.56812 6.96102 4.67575C6.88905 4.74484 6.81047 4.79999 6.59992 4.79999L6.49555 4.79998C5.75836 4.79979 5.25588 4.79967 4.81878 4.88678C3.03496 5.24227 1.64055 6.63668 1.28506 8.4205C1.19795 8.8576 1.19808 9.36008 1.19826 10.0973L1.19828 10.2016V14.34L1.19828 14.3785C1.19827 15.3539 1.19826 16.1407 1.25031 16.7778C1.30391 17.4337 1.41714 18.0099 1.68875 18.543C2.12018 19.3897 2.80859 20.0781 3.65532 20.5095C4.18838 20.7811 4.76455 20.8944 5.42051 20.948C6.0576 21 6.84433 21 7.81973 21H7.85828H16.1399H16.1785C17.1539 21 17.9406 21 18.5777 20.948C19.2337 20.8944 19.8098 20.7811 20.3429 20.5095C21.1896 20.0781 21.878 19.3897 22.3095 18.543C22.5811 18.0099 22.6943 17.4337 22.7479 16.7778C22.7999 16.1407 22.7999 15.3539 22.7999 14.3785V14.34V10.2L22.7999 10.0958C22.8001 9.35996 22.8003 8.85841 22.7135 8.42209C22.3584 6.63698 20.9629 5.24154 19.1778 4.88646C18.7415 4.79967 18.2399 4.79979 17.5041 4.79998L17.3999 4.79999C17.1894 4.79999 17.1108 4.74484 17.0388 4.67575C16.9267 4.56813 16.8414 4.4306 16.6786 4.16834C16.6508 4.12367 16.6209 4.07538 16.5881 4.02299C16.3934 3.71144 16.1108 3.28143 15.6512 2.94713C15.1677 2.59555 14.5635 2.39999 13.7999 2.39999H10.1999ZM14.6999 12.3C14.6999 13.7912 13.4911 15 11.9999 15C10.5088 15 9.29993 13.7912 9.29993 12.3C9.29993 10.8088 10.5088 9.59999 11.9999 9.59999C13.4911 9.59999 14.6999 10.8088 14.6999 12.3ZM16.4999 12.3C16.4999 14.7853 14.4852 16.8 11.9999 16.8C9.51464 16.8 7.49993 14.7853 7.49993 12.3C7.49993 9.81471 9.51464 7.79999 11.9999 7.79999C14.4852 7.79999 16.4999 9.81471 16.4999 12.3Z" fill="#5159F6"/>
</svg>
