<svg width="32" height="32" viewBox="0 0 32 32" fill="none" xmlns="http://www.w3.org/2000/svg">
<rect width="32" height="32" rx="16" fill="#B463E7"/>
<path fill-rule="evenodd" clip-rule="evenodd" d="M16 7C11.03 7 7 11.03 7 16C7 20.97 11.03 25 16 25C16.83 25 17.5 24.33 17.5 23.5C17.5 23.11 17.35 22.76 17.11 22.49C16.88 22.23 16.73 21.88 16.73 21.5C16.73 20.67 17.4 20 18.23 20H20C22.76 20 25 17.76 25 15C25 10.58 20.97 7 16 7ZM11.4985 16.0029C11.4985 16.8316 10.8267 17.5034 9.99805 17.5034C9.16935 17.5034 8.49756 16.8316 8.49756 16.0029C8.49756 15.1742 9.16935 14.5024 9.99805 14.5024C10.8267 14.5024 11.4985 15.1742 11.4985 16.0029ZM21.6268 17.5034C22.4555 17.5034 23.1273 16.8316 23.1273 16.0029C23.1273 15.1742 22.4555 14.5024 21.6268 14.5024C20.7981 14.5024 20.1263 15.1742 20.1263 16.0029C20.1263 16.8316 20.7981 17.5034 21.6268 17.5034ZM20.5015 11.1263C20.5015 11.955 19.8297 12.6268 19.001 12.6268C18.1723 12.6268 17.5005 11.955 17.5005 11.1263C17.5005 10.2976 18.1723 9.62585 19.001 9.62585C19.8297 9.62585 20.5015 10.2976 20.5015 11.1263ZM12.999 12.6268C13.8277 12.6268 14.4995 11.955 14.4995 11.1263C14.4995 10.2976 13.8277 9.62585 12.999 9.62585C12.1703 9.62585 11.4985 10.2976 11.4985 11.1263C11.4985 11.955 12.1703 12.6268 12.999 12.6268Z" fill="white"/>
</svg>
