<svg width="24" height="24" viewBox="0 0 24 24" fill="none" xmlns="http://www.w3.org/2000/svg">
<path d="M18.8572 8.57129V17.5713C18.8572 19.7015 17.1303 21.4284 15 21.4284H9.00002C6.86978 21.4284 5.14287 19.7015 5.14287 17.5713V8.57129H4.53447C3.92371 8.57129 3.42859 8.07617 3.42859 7.46541V6.21415C3.42859 4.91233 4.48392 3.857 5.78573 3.857H7.20101C7.6499 3.07993 8.48838 2.57129 9.42859 2.57129H14.5714C15.5117 2.57129 16.3501 3.07993 16.799 3.857H18.2143C19.5161 3.857 20.5714 4.91233 20.5714 6.21415V7.46541C20.5714 8.07617 20.0763 8.57129 19.4656 8.57129H18.8572ZM18 6.857H18.8572V6.21415C18.8572 5.85911 18.5693 5.57129 18.2143 5.57129H16.2317C15.8406 5.57129 15.4991 5.30655 15.4016 4.9278C15.3052 4.55309 14.9648 4.28557 14.5714 4.28557H9.42859C9.03528 4.28557 8.69484 4.55309 8.5984 4.9278C8.50091 5.30655 8.15941 5.57129 7.76831 5.57129H5.78573C5.43069 5.57129 5.14287 5.85911 5.14287 6.21415V6.857H6.00002H18ZM6.85716 8.57129V17.5713C6.85716 18.7548 7.81655 19.7141 9.00002 19.7141H15C16.1835 19.7141 17.1429 18.7548 17.1429 17.5713V8.57129H6.85716Z" fill="white"/>
</svg>
