<svg width="70" height="70" viewBox="0 0 70 70" fill="none" xmlns="http://www.w3.org/2000/svg">
<circle cx="35" cy="35" r="35" fill="#4F6AFF"/>
<path d="M27.9344 39.1227C27.1711 41.1667 26.6915 42.6025 26.4957 43.4302C25.8809 46.0286 25.4338 46.6139 27.7253 45.379C30.0168 44.1441 41.1104 38.0271 43.5855 36.6676C46.8118 34.8955 46.8549 35.034 43.4124 33.1524C40.7904 31.7194 29.8269 25.7618 27.7253 24.5921C25.6238 23.4223 25.8809 23.9425 26.4957 26.5408C26.6941 27.3793 27.1806 28.828 27.9553 30.8869C28.4947 32.3203 29.7407 33.3701 31.2448 33.6586L37.6775 34.8921C37.7376 34.9041 37.7767 34.962 37.7646 35.0216C37.7558 35.0651 37.7214 35.0992 37.6775 35.1079L31.2303 36.3402C29.7212 36.6287 28.4719 37.6834 27.9344 39.1227Z" fill="white"/>
</svg>
