<svg width="181" height="120" viewBox="0 0 181 120" fill="none" xmlns="http://www.w3.org/2000/svg">
<path d="M108.506 27C108.506 32.1364 107.017 36.9271 104.44 40.9648C103.983 41.6792 103.492 42.3702 102.973 43.0395C101.367 45.0806 99.4652 46.8764 97.3293 48.3599C97.095 48.5217 96.8546 48.6834 96.6154 48.8395C95.3048 49.6873 93.9106 50.4234 92.4494 51.0313C92.064 51.1875 91.6797 51.338 91.2893 51.4775C88.5455 52.4646 85.5896 53 82.5056 53C82.3042 53 82.0979 53 81.8915 52.9944C79.3155 52.9331 76.8282 52.4981 74.4858 51.7396C71.2897 50.7078 68.3673 49.0688 65.8521 46.9657C65.7405 46.8764 65.6234 46.7761 65.5124 46.6813C64.7423 46.0176 64.0172 45.3093 63.3318 44.5625C63.2426 44.4677 63.1584 44.3724 63.0753 44.272C58.9818 39.6827 56.5 33.6311 56.5 27C56.5 12.6392 68.1448 1 82.5056 1C96.8608 1 108.506 12.6392 108.506 27Z" fill="#E3E7FF"/>
<path d="M74.4859 51.7393C71.2897 50.7075 68.3673 49.0684 65.8521 46.9653C65.7406 46.8761 65.6235 46.7757 65.5125 46.6809C64.7423 46.0173 64.0173 45.309 63.3319 44.5622C63.2426 44.4674 63.1584 44.372 63.0753 44.2717C65.696 36.6367 70.0522 30.5522 75.0715 30.5689C81.3339 30.6197 78.0719 42.3866 74.4859 51.7393Z" fill="#FBB019"/>
<path d="M85.781 15.128C85.781 15.128 93.2235 13.1253 98.7587 19.9053C104.295 26.6847 100.855 35.0307 92.0847 34.7908C83.3143 34.551 81.2753 25.5882 81.2753 25.5882L85.781 15.128Z" fill="#111539"/>
<path d="M96.6154 48.8395C95.3048 49.6873 93.9106 50.4234 92.4494 51.0313C92.064 51.1875 91.6798 51.338 91.2894 51.4775C88.5455 52.4646 85.5897 53 82.5056 53C82.3043 53 82.0979 53 81.8916 52.9944C75.7959 52.855 70.2139 50.613 65.8521 46.9657C66.3769 41.1098 67.0846 36.4028 68.0277 35.0476C70.0075 32.1983 72.3332 31.1493 75.0715 30.5693C76.5326 30.2681 78.0769 30.1069 79.75 29.8666C82.2044 29.5264 85.1603 29.5989 87.8038 29.9H87.8366C90.4249 30.2018 92.7165 30.731 93.9329 31.3278C94.9423 31.8185 95.9127 39.6598 96.6154 48.8395Z" fill="#FBB019"/>
<path d="M76.2047 25.1185C75.8935 26.5407 75.0397 27.5618 74.2974 27.399C73.5556 27.2367 73.2059 25.9523 73.5177 24.5301C73.8283 23.108 74.6822 22.0869 75.4245 22.2491C76.1674 22.412 76.5159 23.6958 76.2047 25.1185Z" fill="#92B4EA"/>
<path d="M102.973 43.0395C101.367 45.0807 99.4653 46.8765 97.3293 48.36C95.8118 49.414 94.1777 50.3119 92.4494 51.0314C92.0641 51.1875 91.6798 51.3381 91.2894 51.4775L86.5043 29.9001C86.5043 29.9001 86.9778 29.8611 87.8038 29.9001H87.8367C90.4528 30.0451 97.7978 29.9447 102.973 43.0395Z" fill="#FBB019"/>
<path d="M74.608 20.708C74.608 20.708 72.4921 18.4582 73.0202 14.8984C73.3788 12.4853 74.434 11.6861 74.434 11.6861C74.434 11.6861 72.7403 8.43414 77.5978 8.53954C82.4554 8.64551 86.4352 8.23059 88.5996 12.4089C89.8751 14.8706 89.367 20.2172 89.367 20.2172L74.608 20.708Z" fill="#111539"/>
<path d="M85.3398 24.5017L85.3053 30.43C85.3053 30.43 84.2266 32.1277 80.7572 32.3887C78.1722 32.5839 77.3625 31.2521 77.3625 31.2521L78.0183 26.0688L84.288 24.7281L85.3398 24.5017Z" fill="#F3B9A7"/>
<path d="M85.3332 24.1409C85.317 24.3026 85.254 24.4934 85.1575 24.712C83.8134 27.6656 79.1388 28.8702 77.6464 28.9951L78.0183 26.0694L85.3332 24.1409Z" fill="#111539"/>
<path d="M76.7752 12.5496C76.7752 12.5496 73.6209 19.9636 74.8233 24.1001C76.0257 28.2365 79.798 27.5472 82.0511 26.7235C84.3047 25.8998 85.3409 24.5033 85.3409 24.5033C85.3409 24.5033 87.4602 25.1988 88.8539 23.2211C90.247 21.2435 89.3558 18.9966 88.1445 18.4913C86.9337 17.986 85.5083 18.8711 85.5083 18.8711L86.6114 16.7145C86.6114 16.7145 81.7767 5.85603 76.7752 12.5496Z" fill="#F3B9A7"/>
<path d="M85.5083 18.8711C85.5083 18.8711 82.3461 19.5721 80.0724 16.0826C77.7998 12.5925 77.9743 11.138 77.9743 11.138L75.8472 14.8272C75.8472 14.8272 75.308 12.3081 76.2878 10.6763C77.2683 9.045 78.3246 9.35897 78.3246 9.35897L85.3572 10.973L87.308 16.5477L85.5083 18.8711Z" fill="#111539"/>
<path d="M77.5058 30.1205L74.55 30.6369C74.55 30.6369 74.6119 34.5977 80.1721 35.0979C85.733 35.5982 89.4668 30.0574 89.4668 30.0574L83.6271 29.3497L77.5058 30.1205Z" fill="#F3B9A7"/>
<path d="M88.2326 25.4505C88.323 26.9033 87.7814 28.1197 87.023 28.1665C86.265 28.2139 85.5774 27.0746 85.4865 25.6212C85.3967 24.1684 85.9382 22.952 86.6962 22.9052C87.4546 22.8584 88.1423 23.9977 88.2326 25.4505Z" fill="#92B4EA"/>
<path d="M71.9835 50.1514C71.9093 50.1514 71.8352 50.1218 71.7805 50.0638C66.6541 44.6285 70.9624 39.1083 71.0064 39.0537C71.1023 38.9343 71.2786 38.9154 71.3979 39.0096C71.5184 39.1061 71.5379 39.2818 71.442 39.4022C71.2747 39.6119 67.397 44.6034 72.1859 49.6812C72.2914 49.7928 72.2869 49.9696 72.1742 50.075C72.1207 50.1263 72.0521 50.1514 71.9835 50.1514Z" fill="white"/>
<path d="M64.5 87.0007C64.5 93.1097 62.784 98.8198 59.8187 103.68C59.304 104.524 58.748 105.334 58.1638 106.124C57.7314 106.7 57.2859 107.256 56.8123 107.798C55.5837 109.24 54.2246 110.565 52.7626 111.773C52.2821 112.163 51.7879 112.548 51.2799 112.912C51.0054 113.118 50.7239 113.317 50.4357 113.509C49.9414 113.838 49.4397 114.161 48.9249 114.463C48.8295 114.532 48.7258 114.587 48.6236 114.648C48.5206 114.71 48.4101 114.772 48.301 114.834C47.2851 115.418 46.2212 115.939 45.1366 116.406C42.8509 117.394 40.4211 118.115 37.8951 118.54C37.6137 118.595 37.3391 118.637 37.057 118.678C36.3439 118.78 35.6231 118.856 34.8955 118.911C34.82 118.918 34.7445 118.925 34.669 118.925C34.1673 118.96 33.6525 118.98 33.1384 118.986C32.9256 119 32.7128 119 32.5 119C29.9191 119 27.4001 118.692 24.9977 118.115C23.0414 117.648 21.1607 116.996 19.3623 116.173C17.9346 115.541 16.5618 114.792 15.2508 113.956C14.7634 113.646 14.2829 113.317 13.8093 112.974C13.2533 112.575 12.7111 112.157 12.1825 111.711C10.8029 110.585 9.51931 109.335 8.34556 107.983C8.08473 107.682 7.83076 107.38 7.58365 107.07C7.31596 106.741 7.05513 106.405 6.80116 106.062C6.69134 105.918 6.58837 105.781 6.48541 105.636C5.64114 104.463 4.87925 103.227 4.19971 101.936C3.92515 101.429 3.67117 100.906 3.43093 100.386C1.54333 96.3083 0.5 91.7705 0.5 87.0007C0.5 69.3259 14.8252 55 32.5 55C50.1748 55 64.5 69.3259 64.5 87.0007Z" fill="#F1F2F6"/>
<path d="M51.28 112.912C51.0054 113.118 50.724 113.317 50.4357 113.509C49.8454 113.907 49.2407 114.291 48.6236 114.648C45.1367 116.688 41.2304 118.08 37.0571 118.678C36.8587 118.706 36.6596 118.733 36.453 118.753C35.3898 118.891 34.3053 118.966 33.2002 118.986H33.1384C32.9256 119 32.7128 119 32.5 119C29.9192 119 27.4001 118.692 24.9977 118.115C21.4902 117.27 18.2023 115.849 15.2508 113.956C14.18 113.275 13.1573 112.528 12.1826 111.711C10.8029 110.585 9.51935 109.335 8.3456 107.983C8.08477 107.682 7.83079 107.38 7.58369 107.07C7.17871 101.587 12.3405 96.3014 13.2602 95.2238C16.2186 91.7224 24.5378 89.7731 32.706 90.0064C32.706 90.0064 43.8318 89.9659 48.465 94.9142C50.5043 97.0901 51.1832 104.847 51.28 112.912Z" fill="#63AFFF"/>
<path d="M14.228 94.2812L13.8093 112.975C13.2533 112.576 12.7111 112.158 12.1825 111.712C10.8029 110.586 9.51931 109.337 8.34556 107.984C8.08473 107.682 7.83075 107.38 7.58365 107.072C7.31595 106.742 7.05513 106.406 6.80116 106.063C6.69133 105.918 6.58837 105.781 6.48541 105.637C5.64114 104.463 4.87924 103.228 4.19971 101.937C8.28654 98.0186 14.228 94.2812 14.228 94.2812Z" fill="#63AFFF"/>
<path d="M56.8122 107.798C55.5836 109.24 54.2245 110.565 52.7625 111.773C52.282 112.164 51.7878 112.548 51.2798 112.912C51.0053 113.118 50.7238 113.317 50.4356 113.509C50.3051 113.599 50.1679 113.688 50.0374 113.77C49.8727 113.88 49.708 113.989 49.5432 114.086C49.2405 114.285 48.9323 114.471 48.6235 114.648C47.5046 115.307 46.3377 115.891 45.1365 116.406L41.1623 113.131L48.7401 95.2239L56.8122 107.798Z" fill="#63AFFF"/>
<path d="M26.6066 84.217L26.0849 90.6376C26.0849 90.6376 26.5221 92.5849 30.7229 93.2713C33.8522 93.7834 35.5607 91.8951 35.5607 91.8951L35.5078 90.5086L35.3644 86.9036L27.8641 84.6041L26.6066 84.217Z" fill="#F3B9A7"/>
<path d="M27.864 84.6044C27.8667 84.8027 27.923 85.0423 28.0177 85.3189C29.3425 89.0612 33.7011 90.1985 35.5077 90.5088L35.3643 86.9038L27.864 84.6044Z" fill="#111539"/>
<path d="M38.3124 70.5578C38.3124 70.5578 41.371 79.9285 39.4669 84.8432C37.5628 89.7571 33.0374 88.5168 30.3783 87.2737C27.7198 86.0306 26.6051 84.2185 26.6051 84.2185C26.6051 84.2185 23.9488 84.8418 22.46 82.2836C20.9711 79.7254 22.2959 77.0807 23.8252 76.594C25.3552 76.1067 26.9991 77.336 26.9991 77.336L25.883 74.5911C25.883 74.5911 32.9269 61.87 38.3124 70.5578Z" fill="#F3B9A7"/>
<path d="M38.3116 70.5597L37.7337 69.7133C37.7337 69.7133 37.0219 70.2014 35.4383 70.535C33.0057 71.0628 30.1496 70.9139 30.1496 70.9139C30.1496 70.9139 30.6287 71.6105 30.5182 74.118C30.4084 76.6329 27.8001 78.0332 27.8001 78.0332C26.8824 77.3873 26.1088 77.0208 25.4588 76.8258C25.1773 76.7462 24.9282 76.6954 24.6948 76.6679C23.1902 76.5197 22.6294 77.4491 22.6294 77.4491C22.6294 77.4491 19.1665 71.929 23.1731 67.963C25.9825 65.1948 29.744 65.3719 31.7373 65.7295C32.4148 65.853 32.8843 65.9944 33.0565 66.048C33.1039 66.061 33.1272 66.0679 33.1272 66.0679C33.1272 66.0679 39.1257 64.6456 40.123 65.5345C41.1211 66.4159 39.0317 70.5967 38.3116 70.5597Z" fill="#111539"/>
<path d="M48.9248 114.463C48.8294 114.533 48.7258 114.588 48.6235 114.649C48.5205 114.71 48.41 114.773 48.3009 114.834L45.5621 102.006C45.5278 101.821 45.6445 101.642 45.8298 101.601C46.0152 101.56 46.1936 101.676 46.2341 101.862L48.9248 114.463Z" fill="#E6F4FF"/>
<path d="M116.5 70C116.5 76.109 118.216 81.8198 121.181 86.6795C122.547 88.9172 124.175 90.9627 126.035 92.7885C126.734 93.4818 127.469 94.1476 128.231 94.7722C129.446 95.7675 130.723 96.6667 132.074 97.4766C132.301 97.6139 132.534 97.7443 132.768 97.8816C134.827 99.0416 137.023 99.982 139.337 100.668C142.233 101.533 145.309 102 148.5 102C155.186 102 161.391 99.9477 166.526 96.4402C167.623 95.692 168.674 94.8752 169.662 93.9966C170.726 93.0631 171.728 92.0541 172.654 90.9833C172.882 90.7224 173.101 90.4616 173.32 90.1939C177.809 84.689 180.5 77.6534 180.5 70C180.5 52.3252 166.175 38 148.5 38C130.825 38 116.5 52.3252 116.5 70Z" fill="#F1F2F6"/>
<path d="M153.393 61.9414C153.393 61.9414 167.972 52.3297 162.914 46.8049C157.856 41.2794 151.502 55.0506 151.502 55.0506L153.393 61.9414Z" fill="#111539"/>
<path d="M126.035 92.7881C126.734 93.4814 127.469 94.1472 128.231 94.7718C131.464 97.4213 135.225 99.4462 139.337 100.668C139.803 87.2763 136.588 79.2749 136.588 79.2749C136.588 79.2749 128.231 84.6906 126.035 92.7881Z" fill="#B463E7"/>
<path d="M144.283 51.8562C144.283 51.8562 151.946 46.875 156.593 53.0842C161.104 59.1135 156.696 65.9521 156.696 65.9521L146.269 57.8238L144.283 51.8562Z" fill="#111539"/>
<path d="M128.231 94.7722C133.75 99.2887 140.805 102 148.5 102C156.613 102 164.026 98.9798 169.662 93.9966C169.881 90.6332 169.765 87.867 169.161 86.2746C166.388 78.9918 153.483 76.317 153.483 76.317C153.483 76.317 144.611 76.3169 141.037 77.3205C138.032 78.1641 132.611 80.8932 130.159 85.7529C128.903 88.2377 128.423 91.6628 128.231 94.7722Z" fill="#B463E7"/>
<path d="M153.702 69.7162L154.028 76.8808C154.028 76.8808 152.831 78.9991 148.655 79.531C145.544 79.9271 144.415 79.2716 144.415 79.2716L144.684 75.6227L144.953 72.0651L152.445 70.0553L153.702 69.7162Z" fill="#F3B9A7"/>
<path d="M152.445 70.0556C152.435 70.252 152.372 70.486 152.268 70.7558C150.828 74.4081 146.481 75.3794 144.684 75.623L144.953 72.0654L152.445 70.0556Z" fill="#111539"/>
<path d="M142.611 55.8082C142.611 55.8082 139.26 64.962 140.97 69.8849C142.68 74.8084 147.195 73.7404 149.866 72.6058C152.538 71.4705 153.703 69.7181 153.703 69.7181C153.703 69.7181 156.306 70.4271 157.867 67.9513C159.428 65.4748 158.212 62.8157 156.717 62.2803C155.222 61.7456 153.555 62.9028 153.555 62.9028L154.753 60.2286C154.753 60.2286 148.238 47.4094 142.611 55.8082Z" fill="#F3B9A7"/>
<path d="M153.555 62.9026C153.555 62.9026 149.777 63.9466 146.814 59.8715C143.851 55.7956 143.971 54.0275 143.971 54.0275L141.632 58.9956C141.632 58.9956 140.823 55.6069 141.905 53.5745C142.988 51.5427 144.283 51.8564 144.283 51.8564L152.881 53.3692L155.585 59.9834L153.555 62.9026Z" fill="#111539"/>
<path d="M166.526 96.4404C167.623 95.6923 168.674 94.8754 169.662 93.9968C170.726 93.0633 171.728 92.0543 172.654 90.9835C172.882 90.7227 173.101 90.4619 173.32 90.1942C167.942 81.8805 162.564 79.6923 162.564 79.6923C162.564 79.6923 167.898 89.9402 166.526 96.4404Z" fill="#B463E7"/>
<path d="M132.074 97.4768C132.301 97.6141 132.534 97.7446 132.768 97.8818C132.678 96.7081 132.7 95.3421 132.919 93.8115C133.845 87.5172 138.699 85.3481 138.746 85.3276C138.911 85.2589 138.993 85.0599 138.918 84.8951C138.843 84.7235 138.65 84.648 138.485 84.7167C138.266 84.8128 133.242 87.0573 132.267 93.7154C132.061 95.1088 132.02 96.3717 132.074 97.4768Z" fill="white"/>
<circle cx="172.5" cy="91" r="5" fill="#24C383" stroke="white" stroke-width="2"/>
</svg>
