<svg width="29" height="28" viewBox="0 0 29 28" fill="none" xmlns="http://www.w3.org/2000/svg">
<g id="user-circle">
<path id="Vector" fill-rule="evenodd" clip-rule="evenodd" d="M14.5 4.54995C11.9937 4.54995 9.59001 5.54557 7.81779 7.31779C6.04557 9.09001 5.04995 11.4937 5.04995 14C5.04995 15.2409 5.29438 16.4698 5.76929 17.6163C6.03449 18.2566 6.36867 18.8641 6.76489 19.4287C9.16437 18.2349 11.8124 17.6127 14.5007 17.6166C17.2773 17.6167 19.9044 18.2683 22.2351 19.4286C22.6313 18.864 22.9654 18.2565 23.2306 17.6163C23.7055 16.4698 23.95 15.2409 23.95 14C23.95 11.4937 22.9543 9.09001 21.1821 7.31779C19.4099 5.54557 17.0062 4.54995 14.5 4.54995ZM23.3516 21.4195C24.1059 20.5196 24.7199 19.5084 25.1708 18.4199C25.7512 17.0186 26.0499 15.5167 26.0499 14C26.0499 10.9367 24.8331 7.99891 22.667 5.83287C20.501 3.66682 17.5632 2.44995 14.5 2.44995C11.4367 2.44995 8.49891 3.66682 6.33287 5.83287C4.16682 7.99891 2.94995 10.9367 2.94995 14C2.94995 15.5167 3.2487 17.0186 3.82914 18.4199C4.28001 19.5084 4.89398 20.5197 5.64828 21.4196C5.66423 21.4399 5.68083 21.4596 5.69803 21.4785C5.89993 21.7161 6.11168 21.9458 6.33287 22.167C7.40538 23.2395 8.67865 24.0903 10.08 24.6708C11.4813 25.2512 12.9832 25.5499 14.5 25.5499C16.0167 25.5499 17.5186 25.2512 18.9199 24.6708C20.3213 24.0903 21.5945 23.2395 22.667 22.167C22.8882 21.9459 23.1 21.7161 23.3018 21.4785C23.3191 21.4596 23.3357 21.4399 23.3516 21.4195ZM20.7794 21.0619C18.8645 20.1975 16.7395 19.7166 14.5 19.7166H14.4984C12.3287 19.7133 10.1889 20.1742 8.22075 21.0621C9.00805 21.7621 9.90788 22.3265 10.8836 22.7306C12.0301 23.2055 13.259 23.45 14.5 23.45C15.7409 23.45 16.9698 23.2055 18.1163 22.7306C19.0921 22.3264 19.9921 21.762 20.7794 21.0619ZM14.5007 17.6166C14.501 17.6166 14.5013 17.6166 14.5015 17.6166L14.5 18.6666V17.6166C14.5002 17.6166 14.5005 17.6166 14.5007 17.6166ZM14.5 9.21662C13.8502 9.21662 13.227 9.47474 12.7675 9.93421C12.3081 10.3937 12.05 11.0168 12.05 11.6666C12.05 12.3164 12.3081 12.9396 12.7675 13.399C13.227 13.8585 13.8502 14.1166 14.5 14.1166C15.1497 14.1166 15.7729 13.8585 16.2324 13.399C16.6918 12.9396 16.95 12.3164 16.95 11.6666C16.95 11.0168 16.6918 10.3937 16.2324 9.93421C15.7729 9.47474 15.1497 9.21662 14.5 9.21662ZM11.2826 8.44928C12.1359 7.59599 13.2932 7.11662 14.5 7.11662C15.7067 7.11662 16.864 7.59599 17.7173 8.44928C18.5706 9.30257 19.0499 10.4599 19.0499 11.6666C19.0499 12.8734 18.5706 14.0307 17.7173 14.884C16.864 15.7372 15.7067 16.2166 14.5 16.2166C13.2932 16.2166 12.1359 15.7372 11.2826 14.884C10.4293 14.0307 9.94995 12.8734 9.94995 11.6666C9.94995 10.4599 10.4293 9.30257 11.2826 8.44928Z" fill="#A0A1B0"/>
</g>
</svg>
