<svg width="29" height="28" viewBox="0 0 29 28" fill="none" xmlns="http://www.w3.org/2000/svg">
<g id="message">
<path id="Icon" fill-rule="evenodd" clip-rule="evenodd" d="M9.55605 2.44995H19.444C20.3868 2.44994 21.1577 2.44993 21.7843 2.50112C22.4329 2.55411 23.0187 2.66714 23.5657 2.94587C24.4218 3.3821 25.1179 4.07816 25.5541 4.9343C25.8328 5.48133 25.9459 6.06709 25.9989 6.71566C26.0501 7.34224 26.0501 8.11324 26.05 9.05596V15.4439C26.0501 16.3867 26.0501 17.1577 25.9989 17.7842C25.9459 18.4328 25.8328 19.0186 25.5541 19.5656C25.1179 20.4217 24.4218 21.1178 23.5657 21.554C23.0187 21.8328 22.4329 21.9458 21.7843 21.9988C21.1577 22.05 20.3868 22.05 19.444 22.05H16.4644C15.6943 22.05 15.4548 22.0549 15.2352 22.1C15.019 22.1444 14.8097 22.2178 14.6131 22.3182C14.4135 22.4202 14.2234 22.5659 13.6221 23.047L10.8087 25.2977C10.5925 25.4707 10.378 25.6424 10.1905 25.7663C10.0105 25.8853 9.67885 26.0858 9.2518 26.0863C8.75438 26.0868 8.28383 25.8606 7.97352 25.4719C7.70711 25.1381 7.65646 24.7539 7.63694 24.539C7.61661 24.3152 7.61666 24.0404 7.6167 23.7636L7.61671 22.0436C7.11527 22.0313 6.69943 21.9959 6.32241 21.8949C4.75224 21.4742 3.5258 20.2477 3.10508 18.6776C2.94927 18.0961 2.94957 17.4222 2.94999 16.4844C2.95002 16.4348 2.95004 16.3844 2.95004 16.3333L2.95004 9.05597C2.95003 8.11324 2.95002 7.34225 3.00121 6.71566C3.0542 6.06709 3.16723 5.48133 3.44596 4.9343C3.88218 4.07816 4.57825 3.3821 5.43438 2.94587C5.98142 2.66714 6.56718 2.55411 7.21574 2.50112C7.84233 2.44993 8.61333 2.44994 9.55605 2.44995ZM7.38675 4.59415C6.86805 4.63653 6.58942 4.71424 6.38776 4.81699C5.92677 5.05188 5.55196 5.42668 5.31707 5.88768C5.21433 6.08933 5.13662 6.36796 5.09424 6.88666C5.05086 7.41762 5.05004 8.10253 5.05004 9.09995V16.3333C5.05004 17.4859 5.05906 17.8562 5.13352 18.1341C5.36007 18.9795 6.02046 19.6399 6.86593 19.8665C7.14383 19.9409 7.51414 19.95 8.66671 19.95C9.24661 19.95 9.71671 20.4201 9.71671 21V23.482L12.3102 21.4072C12.3351 21.3872 12.3597 21.3675 12.384 21.3481C12.8812 20.95 13.2445 20.6592 13.6577 20.4481C14.0228 20.2616 14.4114 20.1253 14.813 20.0429C15.2676 19.9496 15.7329 19.9497 16.3698 19.9499C16.401 19.9499 16.4325 19.95 16.4644 19.95H19.4C20.3975 19.95 21.0824 19.9491 21.6133 19.9058C22.132 19.8634 22.4107 19.7857 22.6123 19.6829C23.0733 19.448 23.4481 19.0732 23.683 18.6122C23.7858 18.4106 23.8635 18.1319 23.9058 17.6132C23.9492 17.0823 23.95 16.3974 23.95 15.4V9.09995C23.95 8.10253 23.9492 7.41762 23.9058 6.88666C23.8635 6.36796 23.7858 6.08933 23.683 5.88768C23.4481 5.42668 23.0733 5.05188 22.6123 4.81699C22.4107 4.71424 22.132 4.63653 21.6133 4.59415C21.0824 4.55077 20.3975 4.54995 19.4 4.54995H9.60004C8.60262 4.54995 7.91771 4.55077 7.38675 4.59415ZM7.61671 9.91662C7.61671 9.33672 8.08681 8.86662 8.66671 8.86662H14.5C15.0799 8.86662 15.55 9.33672 15.55 9.91662C15.55 10.4965 15.0799 10.9666 14.5 10.9666H8.66671C8.08681 10.9666 7.61671 10.4965 7.61671 9.91662ZM7.61671 14C7.61671 13.4201 8.08681 12.95 8.66671 12.95H18C18.5799 12.95 19.05 13.4201 19.05 14C19.05 14.5799 18.5799 15.05 18 15.05H8.66671C8.08681 15.05 7.61671 14.5799 7.61671 14Z" fill="#A0A1B0"/>
</g>
</svg>
