<svg width="16" height="16" viewBox="0 0 16 16" fill="none" xmlns="http://www.w3.org/2000/svg">
<path fill-rule="evenodd" clip-rule="evenodd" d="M10.9091 2.90913C11.1434 2.67482 11.5233 2.67482 11.7576 2.90913L14.4243 5.5758C14.6586 5.81012 14.6586 6.19001 14.4243 6.42433L11.7576 9.091C11.5233 9.32531 11.1434 9.32531 10.9091 9.091C10.6747 8.85668 10.6747 8.47678 10.9091 8.24247L12.5515 6.60006H4.99999C3.67451 6.60006 2.59999 7.67458 2.59999 9.00006C2.59999 10.3255 3.67451 11.4001 4.99999 11.4001H7.99999C8.33136 11.4001 8.59999 11.6687 8.59999 12.0001C8.59999 12.3314 8.33136 12.6001 7.99999 12.6001H4.99999C3.01177 12.6001 1.39999 10.9883 1.39999 9.00006C1.39999 7.01184 3.01177 5.40006 4.99999 5.40006H12.5515L10.9091 3.75766C10.6747 3.52335 10.6747 3.14345 10.9091 2.90913Z" fill="#5159F6"/>
</svg>
