<svg width="24" height="24" viewBox="0 0 24 24" fill="none" xmlns="http://www.w3.org/2000/svg">
<path fill-rule="evenodd" clip-rule="evenodd" d="M7.6364 4.3637C7.98787 4.71517 7.98787 5.28502 7.6364 5.63649L5.1728 8.1001H16.5C19.4823 8.1001 21.9 10.5178 21.9 13.5001C21.9 16.4824 19.4823 18.9001 16.5 18.9001H12C11.5029 18.9001 11.1 18.4972 11.1 18.0001C11.1 17.503 11.5029 17.1001 12 17.1001H16.5C18.4882 17.1001 20.1 15.4883 20.1 13.5001C20.1 11.5119 18.4882 9.9001 16.5 9.9001H5.1728L7.6364 12.3637C7.98787 12.7152 7.98787 13.285 7.6364 13.6365C7.28493 13.988 6.71508 13.988 6.36361 13.6365L2.36361 9.63649C2.01214 9.28502 2.01214 8.71517 2.36361 8.3637L6.36361 4.3637C6.71508 4.01223 7.28493 4.01223 7.6364 4.3637Z" fill="#111539"/>
</svg>
