<svg width="24" height="24" viewBox="0 0 24 24" fill="none" xmlns="http://www.w3.org/2000/svg">
<path fill-rule="evenodd" clip-rule="evenodd" d="M17.6587 19.0795H21.2548C20.9305 17.0239 19.1509 15.4519 17.0042 15.4519C16.945 15.4519 16.8861 15.4531 16.8276 15.4554C16.8387 15.5577 16.8651 15.6657 16.9058 15.7661C17.325 16.8014 17.5856 17.9165 17.6587 19.0795ZM7.22384 9.5481C8.22557 9.5481 9.03765 8.73603 9.03765 7.7343C9.03765 6.73257 8.22557 5.9205 7.22384 5.9205C6.22211 5.9205 5.41004 6.73257 5.41004 7.7343C5.41004 8.73603 6.22211 9.5481 7.22384 9.5481ZM17.0041 9.5481C18.0059 9.5481 18.8179 8.73605 18.8179 7.7343C18.8179 6.73255 18.0059 5.9205 17.0041 5.9205C16.0024 5.9205 15.1903 6.73255 15.1903 7.7343C15.1903 8.73605 16.0024 9.5481 17.0041 9.5481ZM11.4744 19.0795C11.1502 17.0238 9.37059 15.4519 7.22383 15.4519C5.07708 15.4519 3.29745 17.0238 2.97325 19.0795H11.4744ZM7.22384 11.4686C9.28623 11.4686 10.9581 9.79669 10.9581 7.7343C10.9581 5.67191 9.28623 4 7.22384 4C5.16145 4 3.48954 5.67191 3.48954 7.7343C3.48954 9.79669 5.16145 11.4686 7.22384 11.4686ZM15.7594 19.7552C15.7594 20.4144 16.2609 21 16.9201 21H21.9832C22.6707 21 23.228 20.4427 23.228 19.7552C23.228 16.3179 20.4415 13.5314 17.0042 13.5314C16.7353 13.5314 16.4704 13.5485 16.2104 13.5815C14.9213 13.7456 14.638 15.2823 15.1257 16.4869C15.5343 17.4961 15.7594 18.5994 15.7594 19.7552ZM20.7384 7.7343C20.7384 9.79669 19.0666 11.4686 17.0041 11.4686C14.9417 11.4686 13.2698 9.79669 13.2698 7.7343C13.2698 5.67191 14.9417 4 17.0041 4C19.0666 4 20.7384 5.67191 20.7384 7.7343ZM13.4477 19.7552C13.4477 16.3179 10.6612 13.5314 7.22383 13.5314C3.78651 13.5314 1 16.3179 1 19.7552C1 20.4427 1.5573 21 2.24477 21H12.2029C12.8904 21 13.4477 20.4427 13.4477 19.7552Z" fill="#5159F6"/>
</svg>
