<svg width="49" height="48" viewBox="0 0 49 48" fill="none" xmlns="http://www.w3.org/2000/svg">
<path fill-rule="evenodd" clip-rule="evenodd" d="M20.5 7.8002C17.2644 7.8002 14.1613 9.08555 11.8733 11.3735C9.58537 13.6614 8.30001 16.7646 8.30001 20.0002C8.30001 21.6023 8.61557 23.1888 9.22868 24.6689C9.84179 26.1491 10.7404 27.494 11.8733 28.6269C13.0062 29.7598 14.3511 30.6584 15.8313 31.2715C17.3114 31.8846 18.8979 32.2002 20.5 32.2002C22.1021 32.2002 23.6886 31.8846 25.1688 31.2715C26.6489 30.6584 27.9938 29.7598 29.1267 28.6269C30.2596 27.494 31.1582 26.1491 31.7713 24.6689C32.3845 23.1888 32.7 21.6023 32.7 20.0002C32.7 16.7646 31.4147 13.6614 29.1267 11.3735C26.8388 9.08555 23.7357 7.8002 20.5 7.8002ZM9.32772 8.82791C12.2908 5.86483 16.3096 4.2002 20.5 4.2002C24.6904 4.2002 28.7092 5.86483 31.6723 8.82791C34.6354 11.791 36.3 15.8098 36.3 20.0002C36.3 22.0751 35.8913 24.1296 35.0973 26.0466C34.5339 27.4067 33.7844 28.6787 32.8724 29.827L43.7728 40.7274C44.4757 41.4303 44.4757 42.57 43.7728 43.273C43.0699 43.9759 41.9302 43.9759 41.2272 43.273L30.3268 32.3725C29.1785 33.2845 27.9066 34.0341 26.5464 34.5975C24.6295 35.3915 22.5749 35.8002 20.5 35.8002C18.4251 35.8002 16.3706 35.3915 14.4536 34.5975C12.5367 33.8035 10.7949 32.6396 9.32772 31.1725C7.86056 29.7053 6.69674 27.9635 5.90272 26.0466C5.10869 24.1297 4.70001 22.0751 4.70001 20.0002C4.70001 15.8098 6.36465 11.791 9.32772 8.82791Z" fill="#6B72FF"/>
</svg>
