<svg width="24" height="24" viewBox="0 0 24 24" fill="none" xmlns="http://www.w3.org/2000/svg">
<path fill-rule="evenodd" clip-rule="evenodd" d="M3.94944 11.1001H7.30063C7.13462 9.60445 6.55439 8.18444 5.62637 7.00086C4.71933 8.15566 4.11935 9.56307 3.94944 11.1001ZM4.94082 5.05907C3.18387 6.84573 2.10001 9.29634 2.10001 12.0001C2.10001 14.7039 3.18387 17.1545 4.94081 18.9411C4.9562 18.9591 4.97241 18.9766 4.98944 18.9936C5.00526 19.0094 5.02152 19.0244 5.03818 19.0388C6.8266 20.8078 9.28574 21.9001 12 21.9001C14.7143 21.9001 17.1734 20.8078 18.9618 19.0388C18.9783 19.0246 18.9943 19.0097 19.01 18.9942C19.0272 18.977 19.0436 18.9593 19.0592 18.9411C20.8161 17.1544 21.9 14.7038 21.9 12.0001C21.9 9.29635 20.8161 6.84574 19.0592 5.05908C19.0436 5.0409 19.0272 5.0232 19.01 5.00602C18.9943 4.99047 18.9783 4.9756 18.9618 4.96143C17.1734 3.19241 14.7143 2.1001 12 2.1001C9.28574 2.1001 6.82659 3.19241 5.03817 4.96143C5.02151 4.97578 5.00526 4.99085 4.98944 5.00662C4.97241 5.02361 4.9562 5.04111 4.94082 5.05907ZM6.89736 5.70906C8.15906 7.24255 8.93042 9.1217 9.10966 11.1001H11.1V3.94953C9.51679 4.12455 8.0711 4.75586 6.89736 5.70906ZM12.9 3.94953V11.1001H14.8915C15.0718 9.1222 15.8428 7.24356 17.1032 5.70951C15.9294 4.75607 14.4835 4.12458 12.9 3.94953ZM18.3742 7.00157C17.4474 8.18553 16.8675 9.60501 16.7006 11.1001H20.0506C19.8807 9.56338 19.2809 8.15623 18.3742 7.00157ZM20.0506 12.9001H16.7006C16.8675 14.3952 17.4474 15.8147 18.3742 16.9986C19.2809 15.844 19.8807 14.4368 20.0506 12.9001ZM17.1032 18.2907C15.8428 16.7566 15.0718 14.878 14.8915 12.9001H12.9V20.0507C14.4835 19.8756 15.9294 19.2441 17.1032 18.2907ZM11.1 20.0507V12.9001H9.10966C8.93042 14.8785 8.15906 16.7576 6.89736 18.2911C8.0711 19.2443 9.51679 19.8756 11.1 20.0507ZM5.62637 16.9993C6.55439 15.8158 7.13462 14.3957 7.30063 12.9001H3.94944C4.11935 14.4371 4.71933 15.8445 5.62637 16.9993Z" fill="#76787A"/>
</svg>
