<svg width="24" height="24" viewBox="0 0 24 24" fill="none" xmlns="http://www.w3.org/2000/svg">
<path fill-rule="evenodd" clip-rule="evenodd" d="M2.30506 14.8003C2.31329 15.2673 2.34031 15.6324 2.42768 15.9584C2.7698 17.2353 3.76713 18.2326 5.04397 18.5747C5.34392 18.6551 5.68144 18.685 6.1065 18.6954C6.21502 18.6981 6.3016 18.7868 6.3016 18.8953L6.3016 20.3696C6.30156 20.6098 6.3017 20.8353 6.31812 21.0162C6.33412 21.1923 6.37382 21.4712 6.56375 21.7091C6.79174 21.9947 7.13745 22.1609 7.5029 22.1605C7.80734 22.1601 8.04992 22.0169 8.19742 21.9194C8.34892 21.8192 8.52513 21.6785 8.71265 21.5284L11.1241 19.5992C11.6326 19.1924 11.814 19.0515 12.0076 18.9526C12.1921 18.8583 12.3885 18.7894 12.5915 18.7477C12.8045 18.704 13.0342 18.7008 13.6854 18.7008H16.2393C17.0503 18.7008 17.7019 18.7006 18.229 18.6576C18.7725 18.6132 19.2453 18.5197 19.6814 18.2975C20.3776 17.9428 20.9436 17.3767 21.2983 16.6805C21.5205 16.2445 21.614 15.7717 21.6584 15.2282C21.7015 14.7011 21.7016 14.0495 21.7016 13.2385V7.76307C21.7016 6.95204 21.7015 6.3005 21.6584 5.77339C21.614 5.22988 21.5205 4.75704 21.2983 4.32102C20.9436 3.62482 20.3776 3.05879 19.6814 2.70406C19.2453 2.48189 18.7725 2.38839 18.229 2.34398C17.7019 2.30091 17.0503 2.30077 16.2393 2.30078H7.7639C6.95286 2.30077 6.30132 2.30091 5.7742 2.34398C5.2307 2.38839 4.75786 2.48189 4.32184 2.70406C3.62564 3.05879 3.05961 3.62482 2.70488 4.32102C2.48271 4.75704 2.3892 5.22988 2.3448 5.77339C2.30173 6.3005 2.30159 6.95204 2.3016 7.76308L2.30156 14.1304C2.30145 14.3762 2.30149 14.5978 2.30506 14.8003ZM11.3706 17.7059C11.6675 17.5542 11.9835 17.4433 12.3101 17.3763C12.6794 17.3005 13.0617 17.3006 13.6118 17.3008C13.636 17.3008 13.6605 17.3008 13.6854 17.3008H16.2393C17.0714 17.3008 17.6576 17.2996 18.115 17.2622C18.5717 17.2249 18.8399 17.155 19.0458 17.0501C19.4786 16.8296 19.8304 16.4777 20.0509 16.045C20.1558 15.8391 20.2257 15.5709 20.2631 15.1142C20.3004 14.6568 20.3016 14.0705 20.3016 13.2385V7.76305C20.3016 6.93102 20.3004 6.34478 20.2631 5.88739C20.2257 5.4307 20.1558 5.1625 20.0509 4.95661C19.8304 4.52383 19.4786 4.17198 19.0458 3.95147C18.8399 3.84656 18.5717 3.77664 18.115 3.73933C17.6576 3.70196 17.0714 3.70077 16.2393 3.70078H7.7639C6.93186 3.70077 6.3456 3.70196 5.88821 3.73933C5.43152 3.77664 5.16332 3.84656 4.95742 3.95147C4.52465 4.17198 4.1728 4.52383 3.95229 4.9566C3.84738 5.1625 3.77746 5.4307 3.74015 5.88739C3.70278 6.34478 3.70159 6.93102 3.7016 7.76306L3.70156 14.1304C3.70117 15.0083 3.71302 15.3462 3.77997 15.5961C3.99265 16.3898 4.61261 17.0097 5.40632 17.2224C5.54371 17.2592 5.74877 17.2862 6.14079 17.2958C7.00891 17.3171 7.7016 18.027 7.7016 18.8954L7.7016 20.3696C7.70159 20.4336 7.70166 20.4916 7.70192 20.5437C7.74278 20.5113 7.78787 20.4753 7.83789 20.4353L10.2495 18.506C10.2689 18.4905 10.2881 18.4752 10.307 18.46C10.7365 18.1163 11.0349 17.8774 11.3706 17.7059ZM6.3016 8.50078C6.3016 8.11418 6.615 7.80078 7.0016 7.80078H12.0016C12.3882 7.80078 12.7016 8.11418 12.7016 8.50078C12.7016 8.88738 12.3882 9.20078 12.0016 9.20078H7.0016C6.615 9.20078 6.3016 8.88738 6.3016 8.50078ZM6.3016 12.0008C6.3016 11.6142 6.615 11.3008 7.0016 11.3008H15.0016C15.3882 11.3008 15.7016 11.6142 15.7016 12.0008C15.7016 12.3874 15.3882 12.7008 15.0016 12.7008H7.0016C6.615 12.7008 6.3016 12.3874 6.3016 12.0008Z" fill="#111539"/>
</svg>
