<svg width="24" height="24" viewBox="0 0 24 24" fill="none" xmlns="http://www.w3.org/2000/svg">
<path d="M12.0006 1.71484C17.6812 1.71484 22.2863 6.31992 22.2863 12.0006C22.2863 17.6812 17.6812 22.2863 12.0006 22.2863C6.31992 22.2863 1.71484 17.6812 1.71484 12.0006C1.71484 6.31992 6.31992 1.71484 12.0006 1.71484ZM12.0006 3.42913C7.26669 3.42913 3.42913 7.26669 3.42913 12.0006C3.42913 16.7344 7.26669 20.572 12.0006 20.572C16.7344 20.572 20.572 16.7344 20.572 12.0006C20.572 7.26669 16.7344 3.42913 12.0006 3.42913ZM12.0006 6.8577C12.4739 6.8577 12.8577 7.24146 12.8577 7.71484V11.1434H16.2863C16.7597 11.1434 17.1434 11.5272 17.1434 12.0006C17.1434 12.4739 16.7597 12.8577 16.2863 12.8577H12.8577V16.2863C12.8577 16.7597 12.4739 17.1434 12.0006 17.1434C11.5272 17.1434 11.1434 16.7597 11.1434 16.2863V12.8577H7.71484C7.24146 12.8577 6.8577 12.4739 6.8577 12.0006C6.8577 11.5272 7.24146 11.1434 7.71484 11.1434H11.1434V7.71484C11.1434 7.24146 11.5272 6.8577 12.0006 6.8577Z" fill="#5159F6"/>
</svg>
