<svg width="24" height="24" viewBox="0 0 24 24" fill="none" xmlns="http://www.w3.org/2000/svg">
<path fill-rule="evenodd" clip-rule="evenodd" d="M18.699 1.56092C19.0715 1.70071 19.3181 2.0568 19.3181 2.45459V5.85314C21.1424 6.28406 22.5 7.92291 22.5 9.87881C22.5 11.8348 21.1424 13.4736 19.3181 13.9045V17.303C19.3181 17.7008 19.0715 18.0569 18.699 18.1967C18.3266 18.3365 17.9066 18.2307 17.6448 17.9311C16.9779 17.1679 15.8073 16.4458 14.217 15.9153C13.5069 15.6784 12.7271 15.4845 11.8939 15.343V19.679C11.8939 21.237 10.6309 22.5 9.0729 22.5C7.88074 22.5 6.81722 21.7506 6.41623 20.6278L6.41392 20.6214L4.26829 14.4743C2.62311 13.6031 1.5 11.873 1.5 9.87881C1.5 7.00861 3.82676 4.68185 6.69695 4.68185H8.64007C9.39114 4.68185 10.1208 4.64103 10.8208 4.56419C10.8292 4.56315 10.8376 4.56222 10.846 4.5614C12.0775 4.42454 13.2165 4.17611 14.217 3.84235C15.8073 3.31182 16.9779 2.58973 17.6448 1.82649C17.9066 1.52695 18.3266 1.42114 18.699 1.56092ZM9.98483 6.55054C9.5433 6.57725 9.09453 6.59094 8.64007 6.59094H6.69695C4.88112 6.59094 3.40909 8.06297 3.40909 9.87881C3.40909 11.2371 4.23293 12.4051 5.41199 12.9064M9.98483 6.55054V13.2071C9.5433 13.1804 9.09453 13.1667 8.64007 13.1667H6.69694C6.23925 13.1667 5.80554 13.0736 5.41199 12.9064M11.8939 13.4092V6.3484C12.9378 6.18859 13.9217 5.95336 14.8211 5.65332C15.7729 5.33581 16.6504 4.93875 17.4091 4.46766V15.29C16.6504 14.8189 15.7729 14.4218 14.8211 14.1043C13.9217 13.8043 12.9378 13.569 11.8939 13.4092ZM19.3181 7.86587V11.8918C20.0706 11.5343 20.5909 10.7673 20.5909 9.87881C20.5909 8.99031 20.0706 8.22333 19.3181 7.86587ZM9.98483 15.12C9.54574 15.0909 9.09685 15.0758 8.64007 15.0758H6.69694C6.63067 15.0758 6.56468 15.0745 6.49898 15.0721L8.2141 19.9857C8.21441 19.9866 8.21473 19.9875 8.21504 19.9884C8.34537 20.3498 8.68841 20.5909 9.0729 20.5909C9.57655 20.5909 9.98483 20.1826 9.98483 19.679V15.12Z" fill="#5159F6"/>
</svg>
