<svg width="32" height="32" viewBox="0 0 32 32" fill="none" xmlns="http://www.w3.org/2000/svg">
<path d="M11.9489 6C12.6621 6 12.9207 6.07426 13.1815 6.21371C13.4422 6.35315 13.6468 6.55778 13.7863 6.81852C13.9257 7.07926 14 7.33789 14 8.05111V23.9489C14 24.6621 13.9257 24.9207 13.7863 25.1815C13.6468 25.4422 13.4422 25.6468 13.1815 25.7863C12.9207 25.9257 12.6621 26 11.9489 26H10.0511C9.33789 26 9.07926 25.9257 8.81852 25.7863C8.55778 25.6468 8.35315 25.4422 8.21371 25.1815C8.07426 24.9207 8 24.6621 8 23.9489V8.05111C8 7.33789 8.07426 7.07926 8.21371 6.81852C8.35315 6.55778 8.55778 6.35315 8.81852 6.21371C9.07926 6.07426 9.33789 6 10.0511 6H11.9489ZM21.9489 6C22.6621 6 22.9207 6.07426 23.1815 6.21371C23.4422 6.35315 23.6468 6.55778 23.7863 6.81852C23.9257 7.07926 24 7.33789 24 8.05111V23.9489C24 24.6621 23.9257 24.9207 23.7863 25.1815C23.6468 25.4422 23.4422 25.6468 23.1815 25.7863C22.9207 25.9257 22.6621 26 21.9489 26H20.0511C19.3379 26 19.0793 25.9257 18.8185 25.7863C18.5578 25.6468 18.3532 25.4422 18.2137 25.1815C18.0743 24.9207 18 24.6621 18 23.9489V8.05111C18 7.33789 18.0743 7.07926 18.2137 6.81852C18.3532 6.55778 18.5578 6.35315 18.8185 6.21371C19.0793 6.07426 19.3379 6 20.0511 6H21.9489Z" fill="white"/>
</svg>
