<svg width="240" height="60" viewBox="0 0 240 60" fill="none" xmlns="http://www.w3.org/2000/svg">
<path fill-rule="evenodd" clip-rule="evenodd" d="M91.9265 31.1342L91.9246 31.1331C90.8426 30.5272 89.0325 30.0786 86.46 29.8077C82.043 29.3976 78.5949 28.3022 76.1424 26.4976L76.1401 26.4959L76.1379 26.4942C73.7201 24.6344 72.5028 22.2032 72.5028 19.2207C72.5028 17.1257 73.1328 15.2785 74.394 13.6904C75.6504 12.1082 77.3894 10.8834 79.5976 10.0093L79.5994 10.0086C81.8538 9.13442 84.4226 8.70035 87.3013 8.70035C92.3151 8.70035 96.6656 9.90792 100.341 12.3331C100.7 12.5699 100.796 13.0457 100.576 13.4053L97.7939 17.9469C97.5595 18.3296 97.0621 18.4393 96.6854 18.2136C93.8691 16.5264 90.8558 15.6843 87.6408 15.6843C85.2594 15.6843 83.4773 16.0225 82.2661 16.6713L82.2628 16.6731L82.2594 16.6748C81.6558 16.9766 81.2197 17.3401 80.9342 17.7581C80.6502 18.174 80.5053 18.6582 80.5053 19.2207C80.5053 20.1995 80.9641 20.9781 81.9335 21.5701C82.9732 22.1314 84.6937 22.5563 87.1264 22.8266C92.1217 23.3715 95.8004 24.4874 98.1211 26.2047C100.462 27.9368 101.624 30.4436 101.624 33.6849C101.624 35.8235 100.995 37.7146 99.7358 39.3476C98.5239 40.9322 96.7838 42.18 94.5322 43.099L94.5296 43.1001C92.3193 43.975 89.7723 44.409 86.8938 44.409C81.3508 44.409 76.3822 42.8379 71.9967 39.6951C71.6514 39.4477 71.5687 38.9755 71.7948 38.6233L74.7405 34.0349C74.9969 33.6355 75.5333 33.5528 75.9062 33.8229C77.2752 34.8148 78.8809 35.613 80.7264 36.215C82.7825 36.8405 84.9059 37.1534 87.0975 37.1534C89.2025 37.1534 90.8034 36.8392 91.9251 36.2364C93.0285 35.5986 93.554 34.7308 93.554 33.617C93.554 32.5531 93.0335 31.7303 91.9285 31.1353L91.9265 31.1342ZM107.448 35.9194L107.447 35.917C105.974 33.2016 105.242 30.0783 105.242 26.5547C105.242 23.0746 105.998 19.9951 107.517 17.324C109.036 14.6101 111.154 12.5145 113.869 11.0418C116.63 9.52361 119.798 8.76826 123.368 8.76826C128.151 8.76826 132.321 10.3941 135.864 13.6401C136.191 13.9394 136.2 14.4427 135.904 14.7608L132.02 18.9305C131.709 19.2642 131.196 19.2633 130.87 18.9724C129.984 18.1809 128.946 17.5539 127.754 17.0924L127.75 17.091L127.747 17.0896C126.375 16.5145 124.962 16.2275 123.504 16.2275C120.489 16.2275 118.048 17.2003 116.157 19.1353C114.311 21.0247 113.38 23.4894 113.38 26.5547C113.38 29.6658 114.311 32.1523 116.155 34.0409C118.046 35.9308 120.487 36.8818 123.504 36.8818C125.101 36.8818 126.606 36.5936 128.021 36.0186C129.248 35.5203 130.305 34.8237 131.195 33.9293C131.518 33.6052 132.061 33.5879 132.385 33.9403L136.32 38.2168C136.611 38.5338 136.602 39.0309 136.281 39.3299C134.511 40.9799 132.617 42.2153 130.598 43.0314C128.435 43.9059 126.046 44.3411 123.436 44.3411C119.823 44.3411 116.632 43.6091 113.871 42.1367C111.112 40.6648 108.969 38.5922 107.45 35.9218L107.448 35.9194ZM147.889 42.3401L147.887 42.3388C145.127 40.8211 142.986 38.7031 141.467 35.988C139.948 33.2715 139.192 30.1243 139.192 26.5547C139.192 23.0757 139.925 19.9971 141.398 17.3264C142.871 14.6573 144.944 12.5841 147.613 11.1112C150.284 9.59187 153.363 8.83616 156.843 8.83616C162.329 8.83616 166.659 10.4151 169.799 13.6012C172.939 16.7868 174.493 21.1844 174.493 26.7584C174.493 27.2713 174.46 27.9974 174.393 28.9334C174.364 29.3515 174.015 29.6732 173.598 29.6732H147.576C147.933 31.9083 148.992 33.6905 150.757 35.0349C152.602 36.4407 154.963 37.1534 157.861 37.1534C159.733 37.1534 161.536 36.8417 163.272 36.2184C164.796 35.6711 166.016 34.9743 166.941 34.1338C167.255 33.8482 167.754 33.8272 168.075 34.1392L171.934 37.885C172.244 38.1855 172.264 38.6865 171.952 39.0016C170.307 40.6638 168.267 41.9835 165.839 42.9635C163.27 44.0181 160.543 44.5448 157.658 44.5448C153.955 44.5448 150.697 43.8132 147.891 42.3413L147.889 42.3401ZM166.792 23.2325C166.804 23.3206 166.815 23.4094 166.825 23.4988H147.336C147.354 23.4093 147.372 23.3205 147.392 23.2325C147.913 20.8713 148.981 19.0361 150.595 17.7267C152.27 16.3686 154.421 15.6895 157.047 15.6895C159.808 15.6895 162.049 16.3912 163.769 17.7947C165.469 19.1457 166.477 20.9583 166.792 23.2325ZM193.894 33.954L197.504 24.9589L203.684 10.0091C203.807 9.7102 204.099 9.51523 204.422 9.51523H211.406C211.98 9.51523 212.367 10.1023 212.141 10.6297L191.547 58.5931C191.421 58.8866 191.132 59.0769 190.813 59.0769H183.69C183.115 59.0769 182.728 58.4879 182.957 57.9603L189.381 43.1196L176.47 10.6094C176.261 10.0847 176.648 9.51523 177.213 9.51523H184.21C184.541 9.51523 184.838 9.71962 184.956 10.0291L190.666 24.9681L193.894 33.954ZM228.627 44.0685C225.042 44.0685 222.247 43.0329 220.283 40.9281C218.319 38.8243 217.359 35.7607 217.359 31.7826V16.3019C217.352 16.2778 217.349 16.2524 217.349 16.2261L217.359 9.78068V1.49894C217.359 1.09082 217.667 0.748278 218.072 0.704413L224.545 0.00471953C225.017 -0.0463729 225.43 0.323888 225.43 0.799246V9.51429H234.273C234.715 9.51429 235.072 9.87209 235.072 10.3134V15.6991C235.072 16.1404 234.715 16.4982 234.273 16.4982H225.43V31.7826C225.43 33.4656 225.806 34.7063 226.518 35.5459C227.27 36.3792 228.366 36.8129 229.849 36.8129C230.997 36.8129 232.185 36.5619 233.415 36.0538C233.842 35.8774 234.348 36.0822 234.504 36.5345L236.257 41.6251C236.392 42.0148 236.208 42.449 235.821 42.6121C234.66 43.102 233.548 43.4504 232.486 43.6551C231.331 43.9316 230.044 44.0685 228.627 44.0685Z" fill="white"/>
<path d="M38.9278 17.5206H40.6985C49.5461 17.5206 56.625 25.3432 56.625 34.3306C56.625 43.3179 49.5461 51.1424 40.6966 51.1424H21.2307C19.2769 51.1424 17.6912 49.5567 17.6912 47.603V35.214H35.3884C36.3271 35.214 37.2274 34.8411 37.8912 34.1773C38.5549 33.5136 38.9278 32.6133 38.9278 31.6746V17.5168V17.5206Z" fill="#555DF6"/>
<path d="M38.9279 5.13318C38.9279 3.17753 37.3422 1.59375 35.3884 1.59375H15.9206C7.07296 1.59375 -0.00590515 9.41826 -0.00590515 18.4056C-0.00590515 27.3948 7.07296 35.2174 15.9225 35.2174H17.6913V21.0597C17.6913 19.1059 19.2769 17.5221 21.2307 17.5221H38.9279V5.13318Z" fill="white"/>
</svg>
