<svg width="24" height="24" viewBox="0 0 24 24" fill="none" xmlns="http://www.w3.org/2000/svg">
<path fill-rule="evenodd" clip-rule="evenodd" d="M12.1016 3.83038C7.53459 3.83038 3.83233 7.53264 3.83233 12.0996C3.83233 16.6666 7.53459 20.3688 12.1016 20.3688C16.6685 20.3688 20.3708 16.6666 20.3708 12.0996C20.3708 7.53264 16.6685 3.83038 12.1016 3.83038ZM2.10156 12.0996C2.10156 6.57676 6.57872 2.09961 12.1016 2.09961C17.6244 2.09961 22.1016 6.57676 22.1016 12.0996C22.1016 17.6225 17.6244 22.0996 12.1016 22.0996C6.57872 22.0996 2.10156 17.6225 2.10156 12.0996Z" fill="#5159F6"/>
<path fill-rule="evenodd" clip-rule="evenodd" d="M12.1016 6.66692C12.5795 6.66692 12.9669 7.05436 12.9669 7.5323V12.8608C12.9669 13.3388 12.5795 13.7262 12.1016 13.7262C11.6236 13.7262 11.2362 13.3388 11.2362 12.8608V7.5323C11.2362 7.05436 11.6236 6.66692 12.1016 6.66692Z" fill="#5159F6"/>
<path d="M12.1016 17.4281C12.7322 17.4281 13.2434 16.9169 13.2434 16.2863C13.2434 15.6557 12.7322 15.1445 12.1016 15.1445C11.4709 15.1445 10.9597 15.6557 10.9597 16.2863C10.9597 16.9169 11.4709 17.4281 12.1016 17.4281Z" fill="#5159F6"/>
</svg>
