<svg width="24" height="24" viewBox="0 0 24 24" fill="none" xmlns="http://www.w3.org/2000/svg">
<path fill-rule="evenodd" clip-rule="evenodd" d="M12.0001 3.89998C9.85184 3.89998 7.79158 4.75337 6.27253 6.27241C4.75349 7.79146 3.9001 9.85172 3.9001 12C3.9001 13.0637 4.10961 14.117 4.51667 15.0997C4.74399 15.6485 5.03042 16.1693 5.37005 16.6532C7.42675 15.6299 9.69647 15.0966 12.0008 15.1C14.3807 15.1001 16.6324 15.6586 18.6302 16.6531C18.9698 16.1692 19.2562 15.6485 19.4835 15.0997C19.8906 14.117 20.1001 13.0637 20.1001 12C20.1001 9.85172 19.2467 7.79146 17.7277 6.27241C16.2086 4.75337 14.1484 3.89998 12.0001 3.89998ZM19.5873 18.3596C20.2338 17.5883 20.7601 16.7215 21.1465 15.7885C21.644 14.5874 21.9001 13.3001 21.9001 12C21.9001 9.37433 20.8571 6.85623 19.0005 4.99962C17.1438 3.14301 14.6257 2.09998 12.0001 2.09998C9.37445 2.09998 6.85635 3.14301 4.99974 4.99962C3.14313 6.85623 2.1001 9.37433 2.1001 12C2.1001 13.3001 2.35617 14.5874 2.85369 15.7885C3.24015 16.7215 3.76641 17.5883 4.41296 18.3596C4.42662 18.3771 4.44085 18.3939 4.4556 18.4102C4.62865 18.6138 4.81015 18.8107 4.99974 19.0003C5.91904 19.9196 7.01041 20.6489 8.21153 21.1464C9.41266 21.6439 10.7 21.9 12.0001 21.9C13.3002 21.9 14.5875 21.6439 15.7887 21.1464C16.9898 20.6489 18.0812 19.9196 19.0005 19.0003C19.19 18.8108 19.3715 18.6139 19.5446 18.4102C19.5593 18.394 19.5736 18.3771 19.5873 18.3596ZM17.3825 18.0531C15.7412 17.3121 13.9197 16.9 12.0001 16.9L11.9987 16.9C10.139 16.8972 8.30491 17.2922 6.61792 18.0533C7.29275 18.6533 8.06404 19.137 8.90036 19.4834C9.8831 19.8905 10.9364 20.1 12.0001 20.1C13.0638 20.1 14.1171 19.8905 15.0998 19.4834C15.9362 19.1369 16.7076 18.6532 17.3825 18.0531ZM12.0008 15.1C12.001 15.1 12.0012 15.1 12.0015 15.1L12.0001 16V15.1C12.0003 15.1 12.0006 15.1 12.0008 15.1ZM12.0001 7.89998C11.4431 7.89998 10.909 8.12122 10.5152 8.51505C10.1213 8.90888 9.9001 9.44302 9.9001 9.99998C9.9001 10.5569 10.1213 11.0911 10.5152 11.4849C10.909 11.8787 11.4431 12.1 12.0001 12.1C12.5571 12.1 13.0912 11.8787 13.485 11.4849C13.8788 11.0911 14.1001 10.5569 14.1001 9.99998C14.1001 9.44302 13.8788 8.90888 13.485 8.51505C13.0912 8.12122 12.5571 7.89998 12.0001 7.89998ZM9.24238 7.24226C9.97377 6.51087 10.9658 6.09998 12.0001 6.09998C13.0344 6.09998 14.0264 6.51087 14.7578 7.24226C15.4892 7.97365 15.9001 8.96563 15.9001 9.99998C15.9001 11.0343 15.4892 12.0263 14.7578 12.7577C14.0264 13.4891 13.0344 13.9 12.0001 13.9C10.9658 13.9 9.97377 13.4891 9.24238 12.7577C8.51099 12.0263 8.1001 11.0343 8.1001 9.99998C8.1001 8.96563 8.51099 7.97365 9.24238 7.24226Z" fill="#5159F6"/>
</svg>
