<svg width="24" height="24" viewBox="0 0 24 24" fill="none" xmlns="http://www.w3.org/2000/svg">
<path fill-rule="evenodd" clip-rule="evenodd" d="M7.09999 6.9C7.09999 4.1938 9.2938 2 12 2C14.7062 2 16.9 4.19381 16.9 6.9V11.1C16.9 13.8062 14.7062 16 12 16C9.29379 16 7.09999 13.8062 7.09999 11.1V6.9ZM12 3.8C10.2879 3.8 8.89999 5.18791 8.89999 6.9V11.1C8.89999 12.8121 10.2879 14.2 12 14.2C13.7121 14.2 15.1 12.8121 15.1 11.1V6.9C15.1 5.18792 13.7121 3.8 12 3.8Z" fill="white"/>
<path d="M19.6795 15.3498C19.9279 14.9193 19.7803 14.3689 19.3498 14.1205C18.9193 13.872 18.3689 14.0197 18.1204 14.4502C16.8935 16.5764 14.6101 18 12 18C9.38984 18 7.10646 16.5764 5.87949 14.4502C5.63105 14.0197 5.08066 13.872 4.65014 14.1205C4.21962 14.3689 4.07201 14.9193 4.32044 15.3498C5.71188 17.7611 8.19837 19.4607 11.1 19.7547V22.1C11.1 22.5971 11.5029 23 12 23C12.497 23 12.9 22.5971 12.9 22.1V19.7547C15.8016 19.4607 18.2881 17.7611 19.6795 15.3498Z" fill="white"/>
</svg>
