<svg width="40" height="40" viewBox="0 0 40 40" fill="none" xmlns="http://www.w3.org/2000/svg">
<circle cx="20" cy="20" r="20" fill="#4F6AFF"/>
<path d="M16.9617 12.5C17.4966 12.5 17.6906 12.5557 17.8861 12.6603C18.0817 12.7649 18.2351 12.9183 18.3397 13.1139C18.4443 13.3094 18.5 13.5034 18.5 14.0383V25.9617C18.5 26.4966 18.4443 26.6906 18.3397 26.8861C18.2351 27.0817 18.0817 27.2351 17.8861 27.3397C17.6906 27.4443 17.4966 27.5 16.9617 27.5H15.5383C15.0034 27.5 14.8094 27.4443 14.6139 27.3397C14.4183 27.2351 14.2649 27.0817 14.1603 26.8861C14.0557 26.6906 14 26.4966 14 25.9617V14.0383C14 13.5034 14.0557 13.3094 14.1603 13.1139C14.2649 12.9183 14.4183 12.7649 14.6139 12.6603C14.8094 12.5557 15.0034 12.5 15.5383 12.5H16.9617ZM24.4617 12.5C24.9966 12.5 25.1906 12.5557 25.3861 12.6603C25.5817 12.7649 25.7351 12.9183 25.8397 13.1139C25.9443 13.3094 26 13.5034 26 14.0383V25.9617C26 26.4966 25.9443 26.6906 25.8397 26.8861C25.7351 27.0817 25.5817 27.2351 25.3861 27.3397C25.1906 27.4443 24.9966 27.5 24.4617 27.5H23.0383C22.5034 27.5 22.3094 27.4443 22.1139 27.3397C21.9183 27.2351 21.7649 27.0817 21.6603 26.8861C21.5557 26.6906 21.5 26.4966 21.5 25.9617V14.0383C21.5 13.5034 21.5557 13.3094 21.6603 13.1139C21.7649 12.9183 21.9183 12.7649 22.1139 12.6603C22.3094 12.5557 22.5034 12.5 23.0383 12.5H24.4617Z" fill="white"/>
</svg>
