<svg width="40" height="40" viewBox="0 0 40 40" fill="none" xmlns="http://www.w3.org/2000/svg">
<rect width="40" height="40" rx="8" fill="white"/>
<path fill-rule="evenodd" clip-rule="evenodd" d="M21.5467 11.5247C22.4708 10.6321 23.7086 10.1382 24.9934 10.1494C26.2781 10.1605 27.5071 10.6758 28.4156 11.5843C29.3241 12.4928 29.8394 13.7218 29.8506 15.0066C29.8618 16.2914 29.3679 17.5291 28.4753 18.4533L28.4643 18.4644L24.4643 22.4644L24.4642 22.4645C23.5453 23.3831 22.2992 23.8992 20.9999 23.8992C19.7006 23.8992 18.4545 23.3831 17.5356 22.4645C17.1841 22.1131 17.184 21.5432 17.5354 21.1917C17.8869 20.8402 18.4567 20.8401 18.8082 21.1915C19.3896 21.7727 20.1779 22.0992 20.9999 22.0992C21.8219 22.0992 22.6102 21.7727 23.1915 21.1916C23.1916 21.1916 23.1916 21.1916 23.1916 21.1915L27.1856 17.1975C27.7471 16.6134 28.0577 15.8326 28.0507 15.0222C28.0436 14.2094 27.7176 13.4319 27.1428 12.8571C26.568 12.2824 25.7905 11.9564 24.9777 11.9493C24.1674 11.9422 23.3866 12.2528 22.8025 12.8143L21.7083 13.9084C21.3569 14.2599 20.787 14.2599 20.4355 13.9084C20.0841 13.5569 20.0841 12.9871 20.4355 12.6356L21.5355 11.5356L21.5467 11.5247ZM15.5356 17.5355C16.4545 16.6169 17.7006 16.1009 18.9999 16.1009C20.2992 16.1009 21.5453 16.6169 22.4642 17.5355C22.8158 17.8869 22.8158 18.4568 22.4644 18.8083C22.113 19.1598 21.5432 19.1599 21.1916 18.8085C20.6103 18.2274 19.8219 17.9009 18.9999 17.9009C18.1779 17.9009 17.3896 18.2274 16.8082 18.8085L12.8083 22.8084L12.7972 22.8194C12.5011 23.1053 12.2649 23.4474 12.1025 23.8256C11.94 24.2038 11.8545 24.6106 11.8509 25.0222C11.8473 25.4338 11.9258 25.8421 12.0816 26.223C12.2375 26.604 12.4677 26.9501 12.7587 27.2412C13.0498 27.5323 13.3959 27.7625 13.7769 27.9183C14.1579 28.0742 14.5661 28.1526 14.9777 28.1491C15.3893 28.1455 15.7961 28.06 16.1743 27.8975C16.5525 27.735 16.8946 27.4989 17.1806 27.2028L17.1918 27.1913L18.2938 26.0903C18.6455 25.739 19.2153 25.7393 19.5666 26.0909C19.9179 26.4425 19.9177 27.0124 19.566 27.3637L18.4694 28.4593C18.0186 28.9245 17.48 29.2957 16.8848 29.5514C16.287 29.8082 15.644 29.9433 14.9934 29.949C14.3427 29.9546 13.6975 29.8307 13.0953 29.5843C12.4931 29.3379 11.946 28.9741 11.486 28.514C11.0259 28.0539 10.662 27.5068 10.4157 26.9046C10.1693 26.3024 10.0453 25.6572 10.051 25.0066C10.0566 24.356 10.1918 23.713 10.4486 23.1152C10.7043 22.5199 11.0755 21.9812 11.5408 21.5304L15.5355 17.5356L15.5356 17.5355Z" fill="#5159F6"/>
</svg>
