<svg width="40" height="40" viewBox="0 0 40 40" fill="none" xmlns="http://www.w3.org/2000/svg">
<rect width="40" height="40" rx="8" fill="#303032"/>
<path fill-rule="evenodd" clip-rule="evenodd" d="M21.5467 11.5244C22.4708 10.6318 23.7086 10.1379 24.9934 10.1491C26.2781 10.1603 27.5071 10.6756 28.4156 11.5841C29.3241 12.4926 29.8394 13.7216 29.8506 15.0063C29.8618 16.2911 29.3679 17.5289 28.4753 18.453L28.4643 18.4642L24.4643 22.4642L24.4642 22.4643C23.5453 23.3829 22.2992 23.8989 20.9999 23.8989C19.7006 23.8989 18.4545 23.3829 17.5356 22.4643C17.1841 22.1128 17.184 21.543 17.5354 21.1915C17.8869 20.8399 18.4567 20.8399 18.8082 21.1913C19.3896 21.7724 20.1779 22.0989 20.9999 22.0989C21.8219 22.0989 22.6102 21.7725 23.1915 21.1914C23.1916 21.1913 23.1916 21.1913 23.1916 21.1913L27.1856 17.1973C27.7471 16.6132 28.0577 15.8324 28.0507 15.022C28.0436 14.2092 27.7176 13.4317 27.1428 12.8569C26.568 12.2821 25.7905 11.9561 24.9777 11.949C24.1674 11.942 23.3866 12.2526 22.8025 12.814L21.7083 13.9082C21.3569 14.2596 20.787 14.2596 20.4355 13.9082C20.0841 13.5567 20.0841 12.9868 20.4355 12.6354L21.5355 11.5354L21.5467 11.5244ZM15.5356 17.5353C16.4545 16.6167 17.7006 16.1006 18.9999 16.1006C20.2992 16.1006 21.5453 16.6167 22.4642 17.5353C22.8158 17.8867 22.8158 18.4565 22.4644 18.8081C22.113 19.1596 21.5432 19.1597 21.1916 18.8083C20.6103 18.2271 19.8219 17.9006 18.9999 17.9006C18.1779 17.9006 17.3896 18.2271 16.8082 18.8083L12.8083 22.8082L12.7972 22.8191C12.5011 23.1051 12.2649 23.4472 12.1025 23.8254C11.94 24.2036 11.8545 24.6104 11.8509 25.022C11.8473 25.4336 11.9258 25.8418 12.0816 26.2228C12.2375 26.6038 12.4677 26.9499 12.7587 27.241C13.0498 27.532 13.3959 27.7622 13.7769 27.9181C14.1579 28.0739 14.5661 28.1524 14.9777 28.1488C15.3893 28.1452 15.7961 28.0597 16.1743 27.8972C16.5525 27.7348 16.8946 27.4986 17.1806 27.2025L17.1918 27.1911L18.2938 26.0901C18.6455 25.7388 19.2153 25.739 19.5666 26.0907C19.9179 26.4423 19.9177 27.0121 19.566 27.3635L18.4694 28.4591C18.0186 28.9242 17.48 29.2954 16.8848 29.5511C16.287 29.8079 15.644 29.9431 14.9934 29.9487C14.3427 29.9544 13.6975 29.8304 13.0953 29.584C12.4931 29.3377 11.946 28.9738 11.486 28.5138C11.0259 28.0537 10.662 27.5066 10.4157 26.9044C10.1693 26.3022 10.0453 25.657 10.051 25.0063C10.0566 24.3557 10.1918 23.7128 10.4486 23.1149C10.7043 22.5196 11.0755 21.981 11.5408 21.5302L15.5355 17.5354L15.5356 17.5353Z" fill="#6B72FF"/>
</svg>
