<svg width="40" height="40" viewBox="0 0 40 40" fill="none" xmlns="http://www.w3.org/2000/svg">
<rect width="40" height="40" rx="8" fill="#232324"/>
<path fill-rule="evenodd" clip-rule="evenodd" d="M21.5468 11.5247C22.471 10.6321 23.7087 10.1382 24.9935 10.1494C26.2782 10.1605 27.5072 10.6758 28.4157 11.5843C29.3242 12.4928 29.8396 13.7218 29.8507 15.0066C29.8619 16.2914 29.368 17.5291 28.4754 18.4533L28.4645 18.4644L24.4645 22.4644L24.4644 22.4645C23.5455 23.3831 22.2994 23.8992 21.0001 23.8992C19.7008 23.8992 18.4546 23.3831 17.5358 22.4645C17.1842 22.1131 17.1841 21.5432 17.5356 21.1917C17.887 20.8402 18.4568 20.8401 18.8084 21.1915C19.3897 21.7727 20.178 22.0992 21.0001 22.0992C21.822 22.0992 22.6103 21.7727 23.1917 21.1916C23.1917 21.1916 23.1917 21.1916 23.1918 21.1915L27.1858 17.1975C27.7473 16.6134 28.0578 15.8326 28.0508 15.0222C28.0437 14.2094 27.7177 13.4319 27.1429 12.8571C26.5682 12.2824 25.7907 11.9564 24.9778 11.9493C24.1675 11.9422 23.3867 12.2528 22.8026 12.8143L21.7085 13.9084C21.357 14.2599 20.7871 14.2599 20.4357 13.9084C20.0842 13.5569 20.0842 12.9871 20.4357 12.6356L21.5357 11.5356L21.5468 11.5247ZM15.5358 17.5355C16.4546 16.6169 17.7008 16.1009 19.0001 16.1009C20.2994 16.1009 21.5455 16.6169 22.4644 17.5355C22.8159 17.8869 22.816 18.4568 22.4645 18.8083C22.1131 19.1598 21.5433 19.1599 21.1918 18.8085C20.6104 18.2274 19.8221 17.9009 19.0001 17.9009C18.178 17.9009 17.3897 18.2274 16.8084 18.8085L12.8085 22.8084L12.7973 22.8194C12.5012 23.1053 12.2651 23.4474 12.1026 23.8256C11.9401 24.2038 11.8546 24.6106 11.851 25.0222C11.8474 25.4338 11.9259 25.8421 12.0817 26.223C12.2376 26.604 12.4678 26.9501 12.7589 27.2412C13.0499 27.5323 13.3961 27.7625 13.777 27.9183C14.158 28.0742 14.5662 28.1526 14.9778 28.1491C15.3895 28.1455 15.7962 28.06 16.1745 27.8975C16.5527 27.735 16.8947 27.4989 17.1807 27.2028L17.1919 27.1913L18.2939 26.0903C18.6456 25.739 19.2154 25.7393 19.5667 26.0909C19.9181 26.4425 19.9178 27.0124 19.5662 27.3637L18.4696 28.4593C18.0187 28.9245 17.4801 29.2957 16.8849 29.5514C16.2871 29.8082 15.6441 29.9433 14.9935 29.949C14.3429 29.9546 13.6976 29.8307 13.0954 29.5843C12.4932 29.3379 11.9462 28.9741 11.4861 28.514C11.026 28.0539 10.6622 27.5068 10.4158 26.9046C10.1694 26.3024 10.0454 25.6572 10.0511 25.0066C10.0567 24.356 10.1919 23.713 10.4487 23.1152C10.7044 22.5199 11.0757 21.9812 11.5409 21.5304L15.5357 17.5356L15.5358 17.5355Z" fill="#6B72FF"/>
</svg>
