<svg width="24" height="24" viewBox="0 0 24 24" fill="none" xmlns="http://www.w3.org/2000/svg">
<path fill-rule="evenodd" clip-rule="evenodd" d="M12.0001 3.89998C7.52659 3.89998 3.9001 7.52647 3.9001 12C3.9001 16.4735 7.52659 20.1 12.0001 20.1C16.4736 20.1 20.1001 16.4735 20.1001 12C20.1001 7.52647 16.4736 3.89998 12.0001 3.89998ZM2.1001 12C2.1001 6.53236 6.53248 2.09998 12.0001 2.09998C17.4677 2.09998 21.9001 6.53236 21.9001 12C21.9001 17.4676 17.4677 21.9 12.0001 21.9C6.53248 21.9 2.1001 17.4676 2.1001 12Z" fill="#5159F6"/>
<path fill-rule="evenodd" clip-rule="evenodd" d="M7.00009 12C7.00009 11.5029 7.40304 11.1 7.90009 11.1H16.1001C16.5971 11.1 17.0001 11.5029 17.0001 12C17.0001 12.497 16.5971 12.9 16.1001 12.9H7.90009C7.40304 12.9 7.00009 12.497 7.00009 12Z" fill="#5159F6"/>
</svg>
