<svg width="24" height="24" viewBox="0 0 24 24" fill="none" xmlns="http://www.w3.org/2000/svg">
<path fill-rule="evenodd" clip-rule="evenodd" d="M2.62493 2.62493C3.02506 2.22479 3.56776 2 4.13363 2H6.37956C6.94544 2 7.48813 2.22479 7.88827 2.62493C8.2884 3.02506 8.5132 3.56776 8.5132 4.13363V6.37956C8.5132 6.94544 8.2884 7.48814 7.88827 7.88827C7.48813 8.2884 6.94544 8.5132 6.37956 8.5132H4.13363C3.56776 8.5132 3.02506 8.2884 2.62493 7.88827C2.22479 7.48814 2 6.94544 2 6.37956V4.13363C2 3.56776 2.22479 3.02506 2.62493 2.62493ZM4.13363 4.02134C4.10385 4.02134 4.07529 4.03317 4.05423 4.05423C4.03317 4.07529 4.02134 4.10385 4.02134 4.13363V6.37956C4.02134 6.40934 4.03317 6.43791 4.05423 6.45897C4.07529 6.48003 4.10385 6.49186 4.13363 6.49186H6.37956C6.40934 6.49186 6.43791 6.48003 6.45897 6.45897C6.48003 6.43791 6.49186 6.40934 6.49186 6.37956V4.13363C6.49186 4.10385 6.48003 4.07529 6.45897 4.05423C6.43791 4.03317 6.40934 4.02134 6.37956 4.02134H4.13363ZM11.9944 2C12.5526 2 13.0051 2.45249 13.0051 3.01067V4.13363C13.0051 4.69181 12.5526 5.1443 11.9944 5.1443C11.4362 5.1443 10.9837 4.69181 10.9837 4.13363V3.01067C10.9837 2.45249 11.4362 2 11.9944 2ZM16.1005 2.62493C16.5006 2.22479 17.0433 2 17.6092 2H19.8551C20.421 2 20.9637 2.22479 21.3638 2.62493C21.764 3.02506 21.9888 3.56776 21.9888 4.13363V6.37956C21.9888 6.94544 21.764 7.48813 21.3638 7.88827C20.9637 8.2884 20.421 8.5132 19.8551 8.5132H17.6092C17.0433 8.5132 16.5006 8.2884 16.1005 7.88827C15.7004 7.48813 15.4756 6.94544 15.4756 6.37956V4.13363C15.4756 3.56776 15.7004 3.02506 16.1005 2.62493ZM17.6092 4.02134C17.5794 4.02134 17.5509 4.03317 17.5298 4.05423C17.5087 4.07529 17.4969 4.10385 17.4969 4.13363V6.37956C17.4969 6.40935 17.5087 6.43791 17.5298 6.45897C17.5509 6.48003 17.5794 6.49186 17.6092 6.49186H19.8551C19.8849 6.49186 19.9135 6.48003 19.9345 6.45897C19.9556 6.43791 19.9674 6.40935 19.9674 6.37956V4.13363C19.9674 4.10385 19.9556 4.07529 19.9345 4.05423C19.9135 4.03317 19.8849 4.02134 19.8551 4.02134H17.6092ZM11.9944 7.61482C12.5526 7.61482 13.0051 8.06732 13.0051 8.62549V10.9837H16.4975C17.0556 10.9837 17.5081 11.4362 17.5081 11.9944C17.5081 12.5526 17.0556 13.0051 16.4975 13.0051H11.9944C11.4362 13.0051 10.9837 12.5526 10.9837 11.9944V8.62549C10.9837 8.06732 11.4362 7.61482 11.9944 7.61482ZM2 11.9944C2 11.4362 2.45249 10.9837 3.01067 10.9837H7.50253C8.0607 10.9837 8.5132 11.4362 8.5132 11.9944C8.5132 12.5526 8.0607 13.0051 7.50253 13.0051H3.01067C2.45249 13.0051 2 12.5526 2 11.9944ZM19.9674 11.9944C19.9674 11.4362 20.4199 10.9837 20.9781 10.9837H20.9893C21.5475 10.9837 22 11.4362 22 11.9944C22 12.5526 21.5475 13.0051 20.9893 13.0051H20.9781C20.4199 13.0051 19.9674 12.5526 19.9674 11.9944ZM2.62493 16.1005C3.02506 15.7004 3.56776 15.4756 4.13363 15.4756H6.37956C6.94544 15.4756 7.48813 15.7004 7.88827 16.1005C8.2884 16.5006 8.5132 17.0433 8.5132 17.6092V19.8551C8.5132 20.421 8.2884 20.9637 7.88827 21.3638C7.48813 21.764 6.94544 21.9888 6.37956 21.9888H4.13363C3.56776 21.9888 3.02506 21.764 2.62493 21.3638C2.22479 20.9637 2 20.421 2 19.8551V17.6092C2 17.0433 2.22479 16.5006 2.62493 16.1005ZM4.13363 17.4969C4.10385 17.4969 4.07529 17.5087 4.05423 17.5298C4.03317 17.5509 4.02134 17.5794 4.02134 17.6092V19.8551C4.02134 19.8849 4.03317 19.9135 4.05423 19.9345C4.07529 19.9556 4.10385 19.9674 4.13363 19.9674H6.37956C6.40935 19.9674 6.43791 19.9556 6.45897 19.9345C6.48003 19.9135 6.49186 19.8849 6.49186 19.8551V17.6092C6.49186 17.5794 6.48003 17.5509 6.45897 17.5298C6.43791 17.5087 6.40935 17.4969 6.37956 17.4969H4.13363ZM10.9837 16.4862C10.9837 15.9281 11.4362 15.4756 11.9944 15.4756H14.2403C14.7985 15.4756 15.251 15.9281 15.251 16.4862C15.251 17.0444 14.7985 17.4969 14.2403 17.4969H13.0051V20.9781C13.0051 21.5363 12.5526 21.9888 11.9944 21.9888C11.4362 21.9888 10.9837 21.5363 10.9837 20.9781V16.4862ZM17.7215 16.4862C17.7215 15.9281 18.174 15.4756 18.7322 15.4756H20.9781C21.5363 15.4756 21.9888 15.9281 21.9888 16.4862C21.9888 17.0444 21.5363 17.4969 20.9781 17.4969H18.7322C18.174 17.4969 17.7215 17.0444 17.7215 16.4862ZM15.4756 20.9781C15.4756 20.4199 15.9281 19.9674 16.4862 19.9674H20.9781C21.5363 19.9674 21.9888 20.4199 21.9888 20.9781C21.9888 21.5363 21.5363 21.9888 20.9781 21.9888H16.4862C15.9281 21.9888 15.4756 21.5363 15.4756 20.9781Z" fill="#5159F6"/>
</svg>
