<svg width="32" height="32" viewBox="0 0 32 32" fill="none" xmlns="http://www.w3.org/2000/svg">
<rect width="32" height="32" rx="16" fill="#5159F6"/>
<path d="M11.1284 16.0115C11.4369 15.945 11.7409 16.1411 11.8075 16.4496C12.2156 18.3411 13.8965 19.714 15.8572 19.714H16.1429C18.1033 19.714 19.7841 18.3414 20.1924 16.4501C20.259 16.1417 20.5631 15.9456 20.8716 16.0122C21.18 16.0788 21.3761 16.3828 21.3095 16.6913C20.8182 18.9669 18.886 20.6529 16.5715 20.8396L16.5714 22.5711C16.5714 22.8867 16.3156 23.1426 16 23.1426C15.6844 23.1426 15.4286 22.8867 15.4286 22.5711L15.4285 20.8396C13.1138 20.6528 11.1814 18.9665 10.6903 16.6906C10.6238 16.3821 10.8199 16.0781 11.1284 16.0115ZM16 9.14258C17.578 9.14258 18.8572 10.4218 18.8572 11.9997V15.4283C18.8572 17.0062 17.578 18.2854 16 18.2854C14.4221 18.2854 13.1429 17.0062 13.1429 15.4283V11.9997C13.1429 10.4218 14.4221 9.14258 16 9.14258Z" fill="white"/>
</svg>
