<?xml version="1.0" encoding="UTF-8"?>
<svg width="70px" height="70px" viewBox="0 0 70 70" version="1.1" xmlns="http://www.w3.org/2000/svg" xmlns:xlink="http://www.w3.org/1999/xlink">
    <title>mic-1</title>
    <g id="Page-1" stroke="none" stroke-width="1" fill="none" fill-rule="evenodd">
        <g id="mic-1">
            <circle id="Oval" fill="#6B72FF" fill-rule="nonzero" cx="35" cy="35" r="35"></circle>
            <path d="M30.1,29.9 C30.1,27.1938 32.2938,25 35,25 C37.7062,25 39.9,27.1938 39.9,29.9 L39.9,34.1 C39.9,36.8062 37.7062,39 35,39 C32.2938,39 30.1,36.8062 30.1,34.1 L30.1,29.9 Z M35,26.8 C33.2879,26.8 31.9,28.1879 31.9,29.9 L31.9,34.1 C31.9,35.8121 33.2879,37.2 35,37.2 C36.7121,37.2 38.1,35.8121 38.1,34.1 L38.1,29.9 C38.1,28.1879 36.7121,26.8 35,26.8 Z" id="Shape" fill="#FFFFFF"></path>
            <path d="M42.6795,38.3498 C42.9279,37.9193 42.7803,37.3689 42.3498,37.1205 C41.9193,36.872 41.3689,37.0197 41.1204,37.4502 C39.8935,39.5764 37.6101,41 35,41 C32.3898,41 30.1065,39.5764 28.8795,37.4502 C28.6311,37.0197 28.0807,36.872 27.6501,37.1205 C27.2196,37.3689 27.072,37.9193 27.3204,38.3498 C28.7119,40.7611 31.1984,42.4607 34.1,42.7547 L34.1,45.1 C34.1,45.597 34.5029,46 35,46 C35.497,46 35.9,45.597 35.9,45.1 L35.9,42.7547 C38.8016,42.4607 41.2881,40.7611 42.6795,38.3498 Z" id="Path" fill="#FFFFFF" fill-rule="nonzero"></path>
        </g>
    </g>
</svg>