<svg width="24" height="24" viewBox="0 0 24 24" fill="none" xmlns="http://www.w3.org/2000/svg">
<path fill-rule="evenodd" clip-rule="evenodd" d="M13.5468 3.52466C14.471 2.63208 15.7087 2.13819 16.9935 2.14936C18.2782 2.16052 19.5072 2.67585 20.4157 3.58435C21.3242 4.49285 21.8396 5.72183 21.8507 7.00659C21.8619 8.29136 21.368 9.52911 20.4754 10.4533L20.4645 10.4644L16.4645 14.4644L16.4644 14.4645C15.5455 15.3831 14.2994 15.8992 13.0001 15.8992C11.7008 15.8992 10.4546 15.3831 9.53576 14.4645C9.18423 14.1131 9.18415 13.5432 9.53556 13.1917C9.88698 12.8402 10.4568 12.8401 10.8084 13.1915C11.3897 13.7727 12.178 14.0992 13.0001 14.0992C13.822 14.0992 14.6103 13.7727 15.1917 13.1916C15.1917 13.1916 15.1917 13.1916 15.1918 13.1915L19.1858 9.19752C19.7473 8.61342 20.0578 7.83261 20.0508 7.02223C20.0437 6.20942 19.7177 5.4319 19.1429 4.85714C18.5682 4.28237 17.7907 3.95635 16.9778 3.94929C16.1675 3.94225 15.3867 4.25281 14.8026 4.81428L13.7085 5.90841C13.357 6.25989 12.7871 6.25988 12.4357 5.90841C12.0842 5.55694 12.0842 4.98709 12.4357 4.63562L13.5357 3.53562L13.5468 3.52466ZM7.53576 9.53553C8.45464 8.61692 9.70075 8.10087 11.0001 8.10087C12.2994 8.10087 13.5455 8.61692 14.4644 9.53553C14.8159 9.88694 14.816 10.4568 14.4645 10.8083C14.1131 11.1598 13.5433 11.1599 13.1918 10.8085C12.6104 10.2274 11.8221 9.90087 11.0001 9.90087C10.178 9.90087 9.38969 10.2274 8.80836 10.8085L4.80845 14.8084L4.7973 14.8194C4.50121 15.1053 4.26505 15.4474 4.10258 15.8256C3.94011 16.2038 3.8546 16.6106 3.85102 17.0222C3.84744 17.4338 3.92588 17.8421 4.08175 18.223C4.23762 18.604 4.4678 18.9501 4.75887 19.2412C5.04994 19.5323 5.39606 19.7625 5.77704 19.9183C6.15802 20.0742 6.56622 20.1526 6.97784 20.1491C7.38946 20.1455 7.79624 20.06 8.17445 19.8975C8.55266 19.735 8.89473 19.4989 9.1807 19.2028L9.19195 19.1913L10.2939 18.0903C10.6456 17.739 11.2154 17.7393 11.5667 18.0909C11.9181 18.4425 11.9178 19.0124 11.5662 19.3637L10.4696 20.4593C10.0187 20.9245 9.48014 21.2957 8.8849 21.5514C8.28708 21.8082 7.6441 21.9433 6.99348 21.949C6.34286 21.9546 5.69763 21.8307 5.09544 21.5843C4.49325 21.3379 3.94615 20.9741 3.48608 20.514C3.02601 20.0539 2.66217 19.5068 2.41579 18.9046C2.16941 18.3024 2.04543 17.6572 2.05109 17.0066C2.05674 16.356 2.19191 15.713 2.44872 15.1152C2.70444 14.5199 3.07566 13.9812 3.54089 13.5304L7.53566 9.53562L7.53576 9.53553Z" fill="#5159F6"/>
</svg>
