<svg width="24" height="24" viewBox="0 0 24 24" fill="none" xmlns="http://www.w3.org/2000/svg">
<path fill-rule="evenodd" clip-rule="evenodd" d="M12 23C18.0751 23 23 18.0751 23 12C23 5.92487 18.0751 1 12 1C5.92487 1 1 5.92487 1 12C1 18.0751 5.92487 23 12 23ZM17.7488 9.49877C18.1393 9.10825 18.1393 8.47508 17.7488 8.08456C17.3582 7.69404 16.7251 7.69404 16.3346 8.08456L10.1667 14.2525L7.66544 11.7512C7.27492 11.3607 6.64175 11.3607 6.25123 11.7512C5.8607 12.1418 5.8607 12.7749 6.25123 13.1654L9.45956 16.3738C9.6471 16.5613 9.90145 16.6667 10.1667 16.6667C10.4319 16.6667 10.6862 16.5613 10.8738 16.3738L17.7488 9.49877Z" fill="#5159F6"/>
</svg>
