<?xml version="1.0" encoding="UTF-8"?>
<svg width="42px" height="80px" viewBox="0 0 42 80" version="1.1" xmlns="http://www.w3.org/2000/svg" xmlns:xlink="http://www.w3.org/1999/xlink">
    <title>Lock 1</title>
    <g id="Page-1" stroke="none" stroke-width="1" fill="none" fill-rule="evenodd">
        <g id="Lock-1">
            <rect id="Rectangle" fill="#FFFFFF" fill-rule="nonzero" x="0" y="0" width="42" height="80" rx="21"></rect>
            <path d="M21,13.8996 C20.1778,13.8996 19.3893,14.2262 18.808,14.8076 C18.2266,15.3889 17.9,16.1774 17.9,16.9996 L17.9,20.0996 L27,20.0996 C27.7691,20.0996 28.5068,20.4051 29.0506,20.949 C29.5945,21.4929 29.9,22.2305 29.9,22.9996 L29.9,28.9996 C29.9,29.7687 29.5945,30.5064 29.0506,31.0502 C28.5068,31.5941 27.7691,31.8996 27,31.8996 L15,31.8996 C14.2309,31.8996 13.4933,31.5941 12.9494,31.0502 C12.4055,30.5064 12.1,29.7687 12.1,28.9996 L12.1,22.9996 C12.1,22.2305 12.4055,21.4929 12.9494,20.949 C13.4933,20.4051 14.2309,20.0996 15,20.0996 L16.1,20.0996 L16.1,16.9996 C16.1,15.7 16.6163,14.4537 17.5352,13.5348 C18.4541,12.6159 19.7004,12.0996 21,12.0996 C22.2996,12.0996 23.5459,12.6159 24.4648,13.5348 C25.3838,14.4537 25.9,15.7 25.9,16.9996 C25.9,17.4967 25.4971,17.8996 25,17.8996 C24.5029,17.8996 24.1,17.4967 24.1,16.9996 C24.1,16.1774 23.7734,15.3889 23.192,14.8076 C22.6107,14.2262 21.8222,13.8996 21,13.8996 Z M15,21.8996 C14.7083,21.8996 14.4285,22.0155 14.2222,22.2218 C14.0159,22.4281 13.9,22.7079 13.9,22.9996 L13.9,28.9996 C13.9,29.2913 14.0159,29.5711 14.2222,29.7774 C14.4285,29.9837 14.7083,30.0996 15,30.0996 L27,30.0996 C27.2917,30.0996 27.5715,29.9837 27.7778,29.7774 C27.9841,29.5711 28.1,29.2913 28.1,28.9996 L28.1,22.9996 C28.1,22.7079 27.9841,22.4281 27.7778,22.2218 C27.5715,22.0155 27.2917,21.8996 27,21.8996 L15,21.8996 Z M21,24.0996 C21.4971,24.0996 21.9,24.5026 21.9,24.9996 L21.9,26.9996 C21.9,27.4967 21.4971,27.8996 21,27.8996 C20.5029,27.8996 20.1,27.4967 20.1,26.9996 L20.1,24.9996 C20.1,24.5026 20.5029,24.0996 21,24.0996 Z" id="Shape" fill="#A0A1B0"></path>
            <polyline id="Path" stroke="#5159F6" stroke-width="1.4" opacity="0.8" stroke-linecap="round" stroke-linejoin="round" points="16.4167 58.0833 21 53.5 25.5833 58.0833"></polyline>
            <polyline id="Path" stroke="#5159F6" stroke-width="1.4" opacity="0.4" stroke-linecap="round" stroke-linejoin="round" points="16.4167 64.5003 21 59.917 25.5833 64.5003"></polyline>
        </g>
    </g>
</svg>