<?xml version="1.0" encoding="UTF-8"?>
<svg width="32px" height="32px" viewBox="0 0 32 32" version="1.1" xmlns="http://www.w3.org/2000/svg" xmlns:xlink="http://www.w3.org/1999/xlink">
    <title>Group</title>
    <g id="Page-1" stroke="none" stroke-width="1" fill="none" fill-rule="evenodd">
        <g id="Shared-Media" transform="translate(-333.000000, -12.000000)" fill="#5159F6">
            <g id="Group" transform="translate(333.000000, 12.000000)">
                <path d="M11.11,11.1101 C11.435,10.7853 11.961,10.7853 12.286,11.1101 L16.088,14.9115 L19.889,11.1101 C20.214,10.7853 20.74,10.7853 21.065,11.1101 C21.39,11.4349 21.39,11.9615 21.065,12.2863 L17.264,16.0876 L21.065,19.889 C21.39,20.2138 21.39,20.7404 21.065,21.0652 C20.74,21.39 20.214,21.39 19.889,21.0652 L16.088,17.2638 L12.286,21.0652 C11.961,21.39 11.435,21.39 11.11,21.0652 C10.785,20.7404 10.785,20.2138 11.11,19.889 L14.911,16.0876 L11.11,12.2863 C10.785,11.9615 10.785,11.4349 11.11,11.1101 Z" id="Shape"></path>
            </g>
        </g>
    </g>
</svg>