<svg width="20" height="20" viewBox="0 0 20 20" fill="none" xmlns="http://www.w3.org/2000/svg">
<path fill-rule="evenodd" clip-rule="evenodd" d="M8.33333 3.25C6.98515 3.25 5.69218 3.78556 4.73887 4.73887C3.78556 5.69218 3.25 6.98515 3.25 8.33333C3.25 9.00089 3.38148 9.6619 3.63695 10.2786C3.89241 10.8954 4.26684 11.4558 4.73887 11.9278C5.21091 12.3998 5.77129 12.7743 6.38803 13.0297C7.00476 13.2852 7.66578 13.4167 8.33333 13.4167C9.00089 13.4167 9.6619 13.2852 10.2786 13.0297C10.8954 12.7743 11.4558 12.3998 11.9278 11.9278C12.3998 11.4558 12.7743 10.8954 13.0297 10.2786C13.2852 9.6619 13.4167 9.00089 13.4167 8.33333C13.4167 6.98515 12.8811 5.69218 11.9278 4.73887C10.9745 3.78556 9.68152 3.25 8.33333 3.25ZM3.67821 3.67821C4.91283 2.4436 6.58733 1.75 8.33333 1.75C10.0793 1.75 11.7538 2.4436 12.9885 3.67821C14.2231 4.91283 14.9167 6.58732 14.9167 8.33333C14.9167 9.19787 14.7464 10.0539 14.4155 10.8527C14.1808 11.4194 13.8685 11.9494 13.4885 12.4278L18.0303 16.9697C18.3232 17.2626 18.3232 17.7374 18.0303 18.0303C17.7374 18.3232 17.2626 18.3232 16.9697 18.0303L12.4278 13.4885C11.9494 13.8685 11.4194 14.1808 10.8527 14.4155C10.0539 14.7464 9.19787 14.9167 8.33333 14.9167C7.4688 14.9167 6.61273 14.7464 5.814 14.4155C5.01527 14.0847 4.28953 13.5998 3.67821 12.9885C3.06689 12.3771 2.58197 11.6514 2.25113 10.8527C1.92028 10.0539 1.75 9.19787 1.75 8.33333C1.75 6.58733 2.4436 4.91283 3.67821 3.67821Z" fill="white"/>
</svg>
