<svg width="20" height="20" viewBox="0 0 20 20" fill="none" xmlns="http://www.w3.org/2000/svg">
<path fill-rule="evenodd" clip-rule="evenodd" d="M10 3.52002C10.3977 3.52002 10.72 3.84237 10.72 4.24002V9.28002L15.76 9.28002C16.1576 9.28002 16.48 9.60238 16.48 10C16.48 10.3977 16.1576 10.72 15.76 10.72L10.72 10.72V15.76C10.72 16.1577 10.3977 16.48 10 16.48C9.60237 16.48 9.28001 16.1577 9.28001 15.76V10.72H4.23999C3.84234 10.72 3.51999 10.3977 3.51999 10C3.51999 9.60237 3.84234 9.28001 4.23999 9.28001H9.28001V4.24002C9.28001 3.84237 9.60237 3.52002 10 3.52002Z" fill="#5159F6"/>
</svg>
