<svg width="20" height="20" viewBox="0 0 20 20" fill="none" xmlns="http://www.w3.org/2000/svg">
<path d="M8.98154 5.55556C8.98154 7.2431 7.61351 8.61113 5.92598 8.61113C4.23844 8.61113 2.87041 7.2431 2.87041 5.55556C2.87041 3.86803 4.23844 2.5 5.92598 2.5C7.61351 2.5 8.98154 3.86803 8.98154 5.55556Z" fill="white"/>
<path d="M17.1297 5.55556C17.1297 7.2431 15.7617 8.61113 14.0741 8.61113C12.3866 8.61113 11.0186 7.2431 11.0186 5.55556C11.0186 3.86803 12.3866 2.5 14.0741 2.5C15.7617 2.5 17.1297 3.86803 17.1297 5.55556Z" fill="white"/>
<path d="M14.0053 16.7593C13.466 16.7593 13.0556 16.2801 13.0556 15.7408C13.0556 15.0244 12.9499 14.3327 12.7533 13.6804C12.3474 12.3333 12.6672 10.6482 14.0741 10.6482C16.8866 10.6482 19.1667 12.9282 19.1667 15.7408C19.1667 16.3033 18.7107 16.7593 18.1482 16.7593H14.0053Z" fill="white"/>
<path d="M5.92598 10.6482C8.73854 10.6482 11.0186 12.9282 11.0186 15.7408C11.0186 16.3033 10.5626 16.7593 10.0001 16.7593H1.85189C1.28938 16.7593 0.833374 16.3033 0.833374 15.7408C0.833374 12.9282 3.11341 10.6482 5.92598 10.6482Z" fill="white"/>
</svg>
