<svg width="40" height="41" viewBox="0 0 40 41" fill="none" xmlns="http://www.w3.org/2000/svg">
<rect y="0.5" width="40" height="40" rx="20" fill="#5159F6"/>
<path d="M16.9617 13C17.4966 13 17.6906 13.0557 17.8861 13.1603C18.0817 13.2649 18.2351 13.4183 18.3397 13.6139C18.4443 13.8094 18.5 14.0034 18.5 14.5383V26.4617C18.5 26.9966 18.4443 27.1906 18.3397 27.3861C18.2351 27.5817 18.0817 27.7351 17.8861 27.8397C17.6906 27.9443 17.4966 28 16.9617 28H15.5383C15.0034 28 14.8094 27.9443 14.6139 27.8397C14.4183 27.7351 14.2649 27.5817 14.1603 27.3861C14.0557 27.1906 14 26.9966 14 26.4617V14.5383C14 14.0034 14.0557 13.8094 14.1603 13.6139C14.2649 13.4183 14.4183 13.2649 14.6139 13.1603C14.8094 13.0557 15.0034 13 15.5383 13H16.9617ZM24.4617 13C24.9966 13 25.1906 13.0557 25.3861 13.1603C25.5817 13.2649 25.7351 13.4183 25.8397 13.6139C25.9443 13.8094 26 14.0034 26 14.5383V26.4617C26 26.9966 25.9443 27.1906 25.8397 27.3861C25.7351 27.5817 25.5817 27.7351 25.3861 27.8397C25.1906 27.9443 24.9966 28 24.4617 28H23.0383C22.5034 28 22.3094 27.9443 22.1139 27.8397C21.9183 27.7351 21.7649 27.5817 21.6603 27.3861C21.5557 27.1906 21.5 26.9966 21.5 26.4617V14.5383C21.5 14.0034 21.5557 13.8094 21.6603 13.6139C21.7649 13.4183 21.9183 13.2649 22.1139 13.1603C22.3094 13.0557 22.5034 13 23.0383 13H24.4617Z" fill="white"/>
</svg>
