<?xml version="1.0" encoding="UTF-8"?>
<svg width="56px" height="56px" viewBox="0 0 56 56" version="1.1" xmlns="http://www.w3.org/2000/svg" xmlns:xlink="http://www.w3.org/1999/xlink">
    <title>Large</title>
    <g id="Page-1" stroke="none" stroke-width="1" fill="none" fill-rule="evenodd">
        <g id="Large" fill="#FFFFFF">
            <path d="M19.4671,19.4671 C20.0239,18.9103 20.9266,18.9103 21.4834,19.4671 L28,25.9837 L34.5166,19.4671 C35.0734,18.9103 35.9761,18.9103 36.5329,19.4671 C37.0897,20.0239 37.0897,20.9266 36.5329,21.4834 L30.0163,28 L36.5329,34.5166 C37.0897,35.0734 37.0897,35.9761 36.5329,36.5329 C35.9761,37.0897 35.0734,37.0897 34.5166,36.5329 L28,30.0163 L21.4834,36.5329 C20.9266,37.0897 20.0239,37.0897 19.4671,36.5329 C18.9103,35.9761 18.9103,35.0734 19.4671,34.5166 L25.9837,28 L19.4671,21.4834 C18.9103,20.9266 18.9103,20.0239 19.4671,19.4671 Z" id="Shape"></path>
        </g>
    </g>
</svg>