<svg width="20" height="20" viewBox="0 0 20 20" fill="none" xmlns="http://www.w3.org/2000/svg">
<path d="M9.80897 18.75C8.28988 18.75 7.11667 17.9647 7.11667 16.5064H12.5013C12.5013 17.9647 11.3281 18.75 9.80897 18.75ZM15.1882 11.7587C15.1882 13.2971 17.1154 13.6817 17.1154 14.451C17.1154 15.2202 16.7308 15.6048 15.1923 15.6048H4.42308C2.88462 15.6048 2.5 15.2202 2.5 14.451C2.5 13.6817 4.42308 13.2971 4.42308 11.7587V9.06635C4.42308 5.2202 5.96154 2.01923 9.03846 2.01923C9.03846 1.44231 9.42308 1.25 9.80769 1.25C10.1923 1.25 10.5769 1.44231 10.5769 2.01923C13.6538 2.01923 15.1882 5.2202 15.1882 9.06635V11.7587Z" fill="white"/>
</svg>
