<svg width="24" height="24" viewBox="0 0 24 24" fill="none" xmlns="http://www.w3.org/2000/svg">
<path fill-rule="evenodd" clip-rule="evenodd" d="M12 3.65138C7.38918 3.65138 3.65138 7.38918 3.65138 12C3.65138 16.6108 7.38918 20.3486 12 20.3486C16.6108 20.3486 20.3486 16.6108 20.3486 12C20.3486 7.38918 16.6108 3.65138 12 3.65138ZM2 12C2 6.47715 6.47715 2 12 2C17.5228 2 22 6.47715 22 12C22 17.5228 17.5228 22 12 22C6.47715 22 2 17.5228 2 12ZM7.9633 9.24771C7.9633 8.53835 8.53835 7.9633 9.24771 7.9633C9.95706 7.9633 10.5321 8.53835 10.5321 9.24771C10.5321 9.95706 9.95706 10.5321 9.24771 10.5321C8.53835 10.5321 7.9633 9.95706 7.9633 9.24771ZM13.4679 9.24771C13.4679 8.53835 14.0429 7.9633 14.7523 7.9633C15.4617 7.9633 16.0367 8.53835 16.0367 9.24771C16.0367 9.95706 15.4617 10.5321 14.7523 10.5321C14.0429 10.5321 13.4679 9.95706 13.4679 9.24771Z" fill="#6B72FF"/>
<path fill-rule="evenodd" clip-rule="evenodd" d="M7.85556 13.5445C8.26498 13.3069 8.78952 13.4461 9.02717 13.8556C9.3294 14.3763 9.76309 14.8084 10.2848 15.1089C10.8066 15.4093 11.3981 15.5674 12.0001 15.5674C12.6022 15.5674 13.1937 15.4093 13.7154 15.1089C14.2372 14.8084 14.6709 14.3763 14.9731 13.8556C15.2108 13.4461 15.7353 13.3069 16.1447 13.5445C16.5541 13.7822 16.6934 14.3067 16.4557 14.7161C16.0028 15.4965 15.3528 16.1442 14.5709 16.5945C13.7889 17.0447 12.9024 17.2817 12.0001 17.2817C11.0978 17.2817 10.2114 17.0447 9.42941 16.5945C8.64747 16.1442 7.9975 15.4965 7.54454 14.7161C7.3069 14.3067 7.44615 13.7822 7.85556 13.5445Z" fill="#6B72FF"/>
</svg>
