<svg width="24" height="24" viewBox="0 0 24 24" fill="none" xmlns="http://www.w3.org/2000/svg">
<path fill-rule="evenodd" clip-rule="evenodd" d="M9.64792 2.11224C10.1382 2.19395 10.4694 2.65766 10.3877 3.14795L9.72904 7.09999H15.9042L16.6122 2.85203C16.6939 2.36174 17.1576 2.03052 17.6479 2.11224C18.1382 2.19395 18.4694 2.65766 18.3877 3.14795L17.729 7.09999H20.5C20.997 7.09999 21.4 7.50294 21.4 7.99999C21.4 8.49705 20.997 8.89999 20.5 8.89999H17.429L16.3957 15.1H19.5C19.997 15.1 20.4 15.5029 20.4 16C20.4 16.4971 19.997 16.9 19.5 16.9H16.0957L15.3877 21.148C15.306 21.6382 14.8423 21.9695 14.352 21.8877C13.8617 21.806 13.5305 21.3423 13.6122 20.852L14.2709 16.9H8.09571L7.38772 21.148C7.306 21.6382 6.8423 21.9695 6.352 21.8877C5.86171 21.806 5.53049 21.3423 5.61221 20.852L6.27088 16.9H2.49998C2.00292 16.9 1.59998 16.4971 1.59998 16C1.59998 15.5029 2.00292 15.1 2.49998 15.1H6.57088L7.60421 8.89999H3.49998C3.00292 8.89999 2.59998 8.49705 2.59998 7.99999C2.59998 7.50294 3.00292 7.09999 3.49998 7.09999H7.90421L8.61221 2.85203C8.69392 2.36174 9.15763 2.03052 9.64792 2.11224ZM9.42904 8.89999L8.39571 15.1H14.5709L15.6042 8.89999H9.42904Z" fill="#76787A"/>
</svg>
