<svg width="56" height="56" viewBox="0 0 56 56" fill="none" xmlns="http://www.w3.org/2000/svg">
<path fill-rule="evenodd" clip-rule="evenodd" d="M15.3998 15.4001C17.0085 15.4001 18.2252 14.8288 19.151 13.94C19.8327 13.2856 20.349 12.4405 20.7026 11.8618L20.7028 11.8615C20.7577 11.7717 20.8086 11.6883 20.8556 11.6131C21.2763 10.9401 21.5794 10.5434 21.9506 10.2734C22.2664 10.0438 22.7815 9.8001 23.7998 9.8001H32.1998C33.2181 9.8001 33.7333 10.0438 34.049 10.2734C34.4202 10.5434 34.7234 10.9401 35.144 11.6131C35.1911 11.6884 35.2421 11.7719 35.297 11.8618C35.6506 12.4405 36.1669 13.2856 36.8486 13.94C37.7744 14.8288 38.9911 15.4001 40.5998 15.4001C42.652 15.4001 43.3715 15.4103 43.9289 15.5212C46.428 16.0183 48.3817 17.9719 48.8788 20.471C48.9897 21.0285 48.9998 21.7479 48.9998 23.8001V33.4601C48.9998 35.847 48.9982 37.5108 48.8924 38.8062C48.7885 40.077 48.595 40.8072 48.3132 41.3602C47.7092 42.5457 46.7454 43.5094 45.56 44.1134C45.0069 44.3952 44.2768 44.5888 43.0059 44.6926C41.7106 44.7985 40.0467 44.8001 37.6598 44.8001H18.336C15.9491 44.8001 14.2852 44.7985 12.9899 44.6926C11.719 44.5888 10.9889 44.3952 10.4358 44.1134C9.25042 43.5094 8.28664 42.5457 7.68264 41.3602C7.40085 40.8072 7.20728 40.077 7.10345 38.8062C6.99761 37.5108 6.99598 35.847 6.99598 33.4601V23.8039C6.99598 21.748 7.00619 21.0272 7.11747 20.4688C7.61516 17.9715 9.56733 16.0193 12.0647 15.5216C12.6231 15.4103 13.3438 15.4001 15.3998 15.4001ZM23.7998 5.6001C22.0181 5.6001 20.6083 6.05639 19.4803 6.87675C18.4077 7.65679 17.7484 8.66014 17.294 9.3871C17.2176 9.50931 17.1477 9.62198 17.083 9.72621C16.7032 10.3382 16.504 10.6591 16.2424 10.9102C16.0744 11.0714 15.8911 11.2001 15.3998 11.2001L15.1563 11.2001C13.4362 11.1996 12.2637 11.1993 11.2438 11.4026C7.08157 12.2321 3.82795 15.4857 2.99847 19.6479C2.79522 20.6678 2.79551 21.8403 2.79594 23.5604L2.79598 23.8039V33.4601L2.79598 33.55C2.79596 35.8259 2.79594 37.6617 2.91739 39.1482C3.04245 40.6788 3.30665 42.0232 3.94041 43.267C4.94708 45.2427 6.55337 46.849 8.52908 47.8557C9.77289 48.4894 11.1173 48.7536 12.6479 48.8787C14.1344 49.0001 15.9701 49.0001 18.246 49.0001H18.336H37.6598H37.7498C40.0257 49.0001 41.8614 49.0001 43.3479 48.8787C44.8785 48.7536 46.2229 48.4894 47.4667 47.8557C49.4424 46.849 51.0487 45.2427 52.0554 43.267C52.6892 42.0232 52.9534 40.6788 53.0784 39.1482C53.1999 37.6617 53.1998 35.826 53.1998 33.55V33.4601V23.8001L53.1999 23.557C53.2003 21.84 53.2006 20.6697 52.9981 19.6517C52.1696 15.4864 48.9135 12.2304 44.7483 11.4019C43.7302 11.1993 42.5599 11.1996 40.8429 11.2001L40.5998 11.2001C40.1085 11.2001 39.9252 11.0714 39.7573 10.9102C39.4957 10.6591 39.2965 10.3382 38.9167 9.72624C38.852 9.622 38.782 9.50932 38.7056 9.3871C38.2513 8.66014 37.5919 7.65679 36.5194 6.87675C35.3914 6.05639 33.9815 5.6001 32.1998 5.6001H23.7998ZM34.2998 28.7001C34.2998 32.1795 31.4792 35.0001 27.9998 35.0001C24.5204 35.0001 21.6998 32.1795 21.6998 28.7001C21.6998 25.2207 24.5204 22.4001 27.9998 22.4001C31.4792 22.4001 34.2998 25.2207 34.2998 28.7001ZM38.4998 28.7001C38.4998 34.4991 33.7988 39.2001 27.9998 39.2001C22.2008 39.2001 17.4998 34.4991 17.4998 28.7001C17.4998 22.9011 22.2008 18.2001 27.9998 18.2001C33.7988 18.2001 38.4998 22.9011 38.4998 28.7001Z" fill="white"/>
</svg>
