<svg width="24" height="24" viewBox="0 0 24 24" fill="none" xmlns="http://www.w3.org/2000/svg">
<path d="M18.8572 8.57141V17.5714C18.8572 19.7017 17.1303 21.4286 15 21.4286H9.00002C6.86978 21.4286 5.14287 19.7017 5.14287 17.5714V8.57141H4.53447C3.92371 8.57141 3.42859 8.07629 3.42859 7.46553V6.21427C3.42859 4.91245 4.48392 3.85713 5.78573 3.85713H7.20101C7.6499 3.08005 8.48838 2.57141 9.42859 2.57141H14.5714C15.5117 2.57141 16.3501 3.08005 16.799 3.85713H18.2143C19.5161 3.85713 20.5714 4.91245 20.5714 6.21427V7.46553C20.5714 8.07629 20.0763 8.57141 19.4656 8.57141H18.8572ZM18 6.85713H18.8572V6.21427C18.8572 5.85923 18.5693 5.57141 18.2143 5.57141H16.2317C15.8406 5.57141 15.4991 5.30667 15.4016 4.92792C15.3052 4.55321 14.9648 4.2857 14.5714 4.2857H9.42859C9.03528 4.2857 8.69484 4.55321 8.5984 4.92792C8.50091 5.30667 8.15941 5.57141 7.76831 5.57141H5.78573C5.43069 5.57141 5.14287 5.85923 5.14287 6.21427V6.85713H6.00002H18ZM6.85716 8.57141V17.5714C6.85716 18.7549 7.81655 19.7143 9.00002 19.7143H15C16.1835 19.7143 17.1429 18.7549 17.1429 17.5714V8.57141H6.85716Z" fill="#FA4C56"/>
</svg>
