<svg width="32" height="32" viewBox="0 0 32 32" fill="none" xmlns="http://www.w3.org/2000/svg">
<rect width="32" height="32" rx="16" fill="#111539" fill-opacity="0.4"/>
<path d="M14.6198 10.2779L9.24093 15.3579C9.09036 15.5001 9.08358 15.7375 9.22578 15.888C9.23069 15.8932 9.23574 15.8983 9.24093 15.9032L14.6198 20.9832C14.7703 21.1254 15.0077 21.1186 15.1499 20.9681C15.2156 20.8985 15.2523 20.8063 15.2523 20.7106V18.0956C18.8798 18.0956 21.6122 18.835 23.5673 20.9647C23.5973 20.9974 23.6462 21.0549 23.714 21.1371L23.7141 21.1371C23.8195 21.2648 24.0085 21.283 24.1363 21.1776C24.2254 21.1041 24.2644 20.9859 24.2365 20.8738C24.2063 20.7526 24.1847 20.6693 24.1715 20.624C23.105 16.9411 20.4802 13.8262 15.2523 13.0806V10.5505C15.2523 10.3434 15.0844 10.1755 14.8773 10.1755C14.7815 10.1755 14.6894 10.2122 14.6198 10.2779Z" fill="white"/>
</svg>
