<svg width="24" height="24" viewBox="0 0 24 24" fill="none" xmlns="http://www.w3.org/2000/svg">
<path fill-rule="evenodd" clip-rule="evenodd" d="M11.3572 2.26627C11.7122 1.91124 12.2878 1.91124 12.6428 2.26627L17.1883 6.81172C17.5433 7.16674 17.5433 7.74235 17.1883 8.09737C16.8333 8.45239 16.2577 8.45239 15.9026 8.09737L12.9091 5.10383V16.5455C12.9091 17.0475 12.5021 17.4545 12 17.4545C11.4979 17.4545 11.0909 17.0475 11.0909 16.5455V5.10383L8.09737 8.09737C7.74235 8.45239 7.16674 8.45239 6.81172 8.09737C6.4567 7.74235 6.4567 7.16674 6.81172 6.81172L11.3572 2.26627ZM2.90909 15.6364C3.41117 15.6364 3.81818 16.0434 3.81818 16.5455V17.6818C3.81818 18.3449 4.08157 18.9807 4.55042 19.4496C5.01926 19.9184 5.65514 20.1818 6.31818 20.1818H17.6818C18.3449 20.1818 18.9807 19.9184 19.4496 19.4496C19.9184 18.9807 20.1818 18.3449 20.1818 17.6818V16.5455C20.1818 16.0434 20.5888 15.6364 21.0909 15.6364C21.593 15.6364 22 16.0434 22 16.5455V17.6818C22 18.8271 21.5451 19.9254 20.7352 20.7352C19.9254 21.5451 18.8271 22 17.6818 22H6.31818C5.17293 22 4.07458 21.5451 3.26477 20.7352C2.45495 19.9254 2 18.8271 2 17.6818V16.5455C2 16.0434 2.40701 15.6364 2.90909 15.6364Z" fill="#5159F6"/>
</svg>
