<svg width="24" height="24" viewBox="0 0 24 24" fill="none" xmlns="http://www.w3.org/2000/svg">
<path fill-rule="evenodd" clip-rule="evenodd" d="M4.9888 8.30078L7.49576 5.49576C7.76912 5.22239 7.76912 4.77917 7.49576 4.50581C7.22239 4.23244 6.77917 4.23244 6.50581 4.50581L2.50581 8.50581C2.23244 8.77917 2.23244 9.22239 2.50581 9.49576L6.50581 13.4958C6.77917 13.7691 7.22239 13.7691 7.49576 13.4958C7.76912 13.2224 7.76912 12.7792 7.49576 12.5058L4.9888 9.70078H16.5008C18.5995 9.70078 20.3008 11.4021 20.3008 13.5008C20.3008 15.5995 18.5995 17.3008 16.5008 17.3008H12.0008C11.6142 17.3008 11.3008 17.6142 11.3008 18.0008C11.3008 18.3874 11.6142 18.7008 12.0008 18.7008H16.5008C19.3727 18.7008 21.7008 16.3727 21.7008 13.5008C21.7008 10.6289 19.3727 8.30078 16.5008 8.30078H4.9888Z" fill="#111539"/>
</svg>
