<svg width="49" height="48" viewBox="0 0 49 48" fill="none" xmlns="http://www.w3.org/2000/svg">
<path fill-rule="evenodd" clip-rule="evenodd" d="M16.0246 4.20001H32.9754C34.5915 4.19999 35.9132 4.19997 36.9874 4.28774C38.0992 4.37858 39.1034 4.57234 40.0411 5.05016C41.5088 5.79797 42.702 6.99122 43.4499 8.45889C43.9277 9.39667 44.1214 10.4008 44.2123 11.5126C44.3 12.5868 44.3 13.9085 44.3 15.5246V26.4754C44.3 28.0915 44.3 29.4132 44.2123 30.4874C44.1214 31.5992 43.9277 32.6034 43.4499 33.5411C42.702 35.0088 41.5088 36.2021 40.0411 36.9499C39.1034 37.4277 38.0992 37.6215 36.9874 37.7123C35.9132 37.8001 34.5915 37.8 32.9754 37.8H27.8675C26.5473 37.8 26.1368 37.8085 25.7603 37.8858C25.3896 37.9618 25.0309 38.0877 24.6939 38.2598C24.3517 38.4347 24.0258 38.6845 22.9949 39.5092L18.172 43.3676C17.8014 43.6641 17.4336 43.9585 17.1123 44.1709C16.8037 44.3749 16.2351 44.7186 15.503 44.7194C14.6503 44.7203 13.8437 44.3326 13.3117 43.6662C12.855 43.094 12.7682 42.4353 12.7347 42.067C12.6999 41.6833 12.6999 41.2122 12.7 40.7376L12.7 37.7892C11.8404 37.7681 11.1275 37.7074 10.4812 37.5342C7.7895 36.813 5.68703 34.7105 4.96579 32.0188C4.69868 31.0219 4.69921 29.8668 4.69993 28.2591C4.69997 28.174 4.70001 28.0877 4.70001 28L4.70001 15.5246C4.69999 13.9085 4.69997 12.5868 4.78773 11.5126C4.87857 10.4008 5.07234 9.39667 5.55016 8.45889C6.29797 6.99122 7.49122 5.79798 8.95889 5.05016C9.89666 4.57234 10.9008 4.37858 12.0126 4.28774C13.0868 4.19997 14.4085 4.19999 16.0246 4.20001ZM12.3058 7.87578C11.4166 7.94843 10.9389 8.08165 10.5933 8.25779C9.80297 8.66045 9.16045 9.30297 8.75778 10.0933C8.58164 10.4389 8.44843 10.9166 8.37578 11.8058C8.30141 12.716 8.30001 13.8902 8.30001 15.6V28C8.30001 29.9758 8.31547 30.6107 8.44312 31.0871C8.83148 32.5364 9.96358 33.6685 11.413 34.0569C11.8894 34.1846 12.5242 34.2 14.5 34.2C15.4941 34.2 16.3 35.0059 16.3 36V40.2549L20.746 36.6981C20.7887 36.6639 20.8309 36.6301 20.8725 36.5968C21.7249 35.9145 22.3476 35.4159 23.0561 35.054C23.6819 34.7342 24.3481 34.5006 25.0366 34.3593C25.8159 34.1993 26.6135 34.1996 27.7054 34.2C27.7587 34.2 27.8127 34.2 27.8675 34.2H32.9C34.6099 34.2 35.784 34.1986 36.6942 34.1242C37.5834 34.0516 38.0611 33.9184 38.4068 33.7422C39.1971 33.3396 39.8396 32.6971 40.2422 31.9068C40.4184 31.5611 40.5516 31.0834 40.6242 30.1942C40.6986 29.284 40.7 28.1099 40.7 26.4V15.6C40.7 13.8902 40.6986 12.716 40.6242 11.8058C40.5516 10.9166 40.4184 10.4389 40.2422 10.0933C39.8396 9.30297 39.1971 8.66045 38.4068 8.25779C38.0611 8.08165 37.5834 7.94843 36.6942 7.87578C35.784 7.80141 34.6099 7.80001 32.9 7.80001H16.1C14.3902 7.80001 13.216 7.80141 12.3058 7.87578ZM12.7 17C12.7 16.0059 13.5059 15.2 14.5 15.2H24.5C25.4941 15.2 26.3 16.0059 26.3 17C26.3 17.9941 25.4941 18.8 24.5 18.8H14.5C13.5059 18.8 12.7 17.9941 12.7 17ZM12.7 24C12.7 23.0059 13.5059 22.2 14.5 22.2H30.5C31.4941 22.2 32.3 23.0059 32.3 24C32.3 24.9941 31.4941 25.8 30.5 25.8H14.5C13.5059 25.8 12.7 24.9941 12.7 24Z" fill="#5159F6"/>
</svg>
