<svg width="24" height="24" viewBox="0 0 24 24" fill="none" xmlns="http://www.w3.org/2000/svg">
<path fill-rule="evenodd" clip-rule="evenodd" d="M6.39959 6.0578C5.88829 6.05779 5.46454 6.05792 5.119 6.08616C4.75799 6.11565 4.42392 6.1791 4.10947 6.33932C3.62348 6.58694 3.22836 6.98206 2.98073 7.46805C2.82051 7.7825 2.75707 8.11658 2.72757 8.47759C2.69934 8.82313 2.6992 9.24687 2.69922 9.75818V17.5989C2.6992 18.1102 2.69934 18.5339 2.72757 18.8794C2.75707 19.2404 2.82051 19.5745 2.98073 19.889C3.22836 20.375 3.62348 20.7701 4.10947 21.0177C4.42392 21.1779 4.75799 21.2414 5.119 21.2709C5.46454 21.2991 5.88828 21.2992 6.39959 21.2992H14.2403C14.7516 21.2992 15.1753 21.2991 15.5209 21.2709C15.8819 21.2414 16.2159 21.1779 16.5304 21.0177C17.0164 20.7701 17.4115 20.375 17.6591 19.889C17.8193 19.5745 17.8828 19.2404 17.9123 18.8794C17.9405 18.5339 17.9406 18.1102 17.9406 17.5989V9.75817C17.9406 9.24686 17.9405 8.82313 17.9123 8.47759C17.8828 8.11658 17.8193 7.7825 17.6591 7.46805C17.4115 6.98206 17.0164 6.58694 16.5304 6.33932C16.2159 6.1791 15.8819 6.11565 15.5209 6.08616C15.1753 6.05792 14.7516 6.05779 14.2403 6.0578H6.39959ZM15.9278 7.52192C16.1641 7.6423 16.3561 7.83437 16.4765 8.07062C16.5255 8.16683 16.5666 8.30684 16.5894 8.58567C16.6128 8.87243 16.6134 9.2439 16.6134 9.79215V17.5649C16.6134 18.1131 16.6128 18.4846 16.5894 18.7714C16.5666 19.0502 16.5255 19.1902 16.4765 19.2864C16.3561 19.5226 16.1641 19.7147 15.9278 19.8351C15.8316 19.8841 15.6916 19.9252 15.4128 19.948C15.126 19.9714 14.7545 19.9719 14.2063 19.9719H6.43356C5.88531 19.9719 5.51385 19.9714 5.22708 19.948C4.94825 19.9252 4.80825 19.8841 4.71204 19.8351C4.47579 19.7147 4.28371 19.5226 4.16334 19.2864C4.11432 19.1902 4.07322 19.0502 4.05044 18.7714C4.02701 18.4846 4.02649 18.1131 4.02649 17.5649V9.79215C4.02649 9.2439 4.02701 8.87243 4.05044 8.58567C4.07322 8.30683 4.11432 8.16683 4.16334 8.07062C4.28371 7.83438 4.47579 7.6423 4.71204 7.52192C4.80825 7.4729 4.94825 7.4318 5.22708 7.40902C5.51385 7.38559 5.88531 7.38508 6.43356 7.38508H14.2063C14.7545 7.38508 15.126 7.38559 15.4128 7.40902C15.6916 7.4318 15.8316 7.47291 15.9278 7.52192ZM14.4942 4.02649C15.5799 4.02649 16.3544 4.02701 16.9612 4.07658C17.5601 4.12552 17.9371 4.21894 18.2385 4.37252C18.8359 4.67689 19.3215 5.16257 19.6259 5.75993C19.7795 6.06136 19.8729 6.4383 19.9219 7.03727C19.9714 7.64405 19.9719 8.41853 19.9719 9.50427V16.3174C19.9719 16.6839 20.2691 16.981 20.6356 16.981C21.0021 16.981 21.2992 16.6839 21.2992 16.3174V9.46689C21.2992 8.42068 21.2991 7.59455 21.2447 6.92919C21.1891 6.24812 21.0733 5.67707 20.8085 5.15737C20.3769 4.31026 19.6882 3.62153 18.8411 3.18991C18.3214 2.92511 17.7503 2.80936 17.0693 2.75372C16.4039 2.69936 15.5778 2.69921 14.5315 2.69922L7.68104 2.69922C7.31452 2.69922 7.0174 2.99634 7.0174 3.36286C7.0174 3.72937 7.31452 4.02649 7.68104 4.02649H14.4942Z" fill="#111539"/>
</svg>
