<svg width="24" height="24" viewBox="0 0 24 24" fill="none" xmlns="http://www.w3.org/2000/svg">
<path fill-rule="evenodd" clip-rule="evenodd" d="M16.9457 4.2767C16.3489 4.22794 15.584 4.22727 14.495 4.22727H7.68182C7.20485 4.22727 6.81818 3.84061 6.81818 3.36364C6.81818 2.88666 7.20485 2.5 7.68182 2.5L14.5323 2.5C15.5755 2.49999 16.411 2.49999 17.0863 2.55516C17.7798 2.61182 18.3801 2.73094 18.9327 3.01249C19.8174 3.46329 20.5367 4.18261 20.9875 5.06735C21.2691 5.61993 21.3882 6.22021 21.4448 6.91368C21.5 7.58902 21.5 8.42452 21.5 9.46767V16.3182C21.5 16.7952 21.1133 17.1818 20.6364 17.1818C20.1594 17.1818 19.7727 16.7952 19.7727 16.3182V9.50505C19.7727 8.41595 19.7721 7.65107 19.7233 7.05434C19.6754 6.46768 19.5853 6.12001 19.4485 5.85151C19.1633 5.29178 18.7082 4.8367 18.1485 4.5515C17.88 4.41469 17.5323 4.32463 16.9457 4.2767ZM6.40038 5.85859H14.241C14.7495 5.85857 15.1825 5.85856 15.5379 5.8876C15.9114 5.91811 16.2747 5.98493 16.622 6.1619C17.1456 6.4287 17.5713 6.85441 17.8381 7.37804C18.0151 7.72535 18.0819 8.08864 18.1124 8.46208C18.1414 8.81754 18.1414 9.25049 18.1414 9.75895V17.5996C18.1414 18.1081 18.1414 18.541 18.1124 18.8965C18.0819 19.2699 18.0151 19.6332 17.8381 19.9805C17.5713 20.5042 17.1456 20.9299 16.622 21.1967C16.2747 21.3737 15.9114 21.4405 15.5379 21.471C15.1825 21.5 14.7495 21.5 14.241 21.5H6.40037C5.89191 21.5 5.45896 21.5 5.1035 21.471C4.73006 21.4405 4.36676 21.3737 4.01945 21.1967C3.49583 20.9299 3.07011 20.5042 2.80331 19.9805C2.62635 19.6332 2.55953 19.2699 2.52902 18.8965C2.49997 18.541 2.49999 18.1081 2.5 17.5996V9.75896C2.49999 9.2505 2.49997 8.81754 2.52902 8.46208C2.55953 8.08864 2.62635 7.72535 2.80331 7.37804C3.07011 6.85441 3.49583 6.4287 4.01945 6.1619C4.36676 5.98493 4.73006 5.91811 5.1035 5.8876C5.45896 5.85856 5.89192 5.85857 6.40038 5.85859ZM5.24415 7.60914C4.97753 7.63092 4.86685 7.66869 4.80362 7.70091C4.605 7.80211 4.44352 7.96359 4.34232 8.1622C4.31011 8.22543 4.27234 8.33611 4.25055 8.60274C4.22795 8.87944 4.22727 9.24125 4.22727 9.79293V17.5657C4.22727 18.1173 4.22795 18.4791 4.25055 18.7558C4.27234 19.0225 4.31011 19.1332 4.34232 19.1964C4.44352 19.395 4.605 19.5565 4.80362 19.6577C4.86685 19.6899 4.97753 19.7277 5.24415 19.7494C5.52085 19.7721 5.88267 19.7727 6.43434 19.7727H14.2071C14.7587 19.7727 15.1206 19.7721 15.3973 19.7494C15.6639 19.7277 15.7746 19.6899 15.8378 19.6577C16.0364 19.5565 16.1979 19.395 16.2991 19.1964C16.3313 19.1332 16.3691 19.0225 16.3909 18.7558C16.4135 18.4791 16.4141 18.1173 16.4141 17.5657V9.79293C16.4141 9.24125 16.4135 8.87944 16.3909 8.60274C16.3691 8.33611 16.3313 8.22543 16.2991 8.1622C16.1979 7.96359 16.0364 7.80211 15.8378 7.70091C15.7746 7.66869 15.6639 7.63092 15.3973 7.60914C15.1206 7.58653 14.7587 7.58586 14.2071 7.58586H6.43434C5.88267 7.58586 5.52085 7.58653 5.24415 7.60914Z" fill="#111539"/>
</svg>
