<svg width="24" height="24" viewBox="0 0 24 24" fill="none" xmlns="http://www.w3.org/2000/svg">
<path d="M21.6061 2.39381C21.9408 2.72845 21.9408 3.27101 21.6061 3.60566L19.7278 5.48418C20.8299 7.14775 20.6481 9.41111 19.1824 10.8768L18.862 11.1977C19.1603 14.9314 17.8409 18.2775 14.9409 21.1775C14.7235 21.395 14.4062 21.4792 14.1096 21.3983C11.7307 20.7496 9.38409 19.2562 7.0639 16.936C4.74371 14.6159 3.25039 12.2692 2.60163 9.89039C2.52071 9.59372 2.60497 9.27644 2.82241 9.059C5.72211 6.1593 9.06787 4.83987 12.8011 5.13789L13.1232 4.81751C14.5886 3.35205 16.8515 3.17009 18.515 4.27162L20.3943 2.39381C20.7289 2.05916 21.2715 2.05916 21.6061 2.39381ZM17.148 11.2671L12.733 6.851L12.4149 6.82908C9.44769 6.65758 6.79129 7.67725 4.39909 9.91767C5.02863 11.8276 6.31622 13.7647 8.27575 15.7242C10.2353 17.6837 12.1723 18.9713 14.0823 19.6009C16.4024 17.1235 17.4134 14.3629 17.148 11.2671ZM17.9706 6.02937C16.9667 5.02543 15.339 5.02543 14.335 6.02937L17.9706 9.66493C18.9745 8.66099 18.9745 7.0333 17.9706 6.02937Z" fill="#5159F6"/>
</svg>
