<svg width="24" height="24" viewBox="0 0 24 24" fill="none" xmlns="http://www.w3.org/2000/svg">
<path fill-rule="evenodd" clip-rule="evenodd" d="M13.1743 3.7794C12.9931 3.75468 12.7363 3.75139 12.1759 3.75139H9.22935C8.44501 3.75139 7.90641 3.75204 7.48889 3.78615C7.081 3.81947 6.86189 3.88058 6.70332 3.96138C6.3408 4.14609 6.04607 4.44082 5.86136 4.80334C5.78056 4.96191 5.71945 5.18102 5.68613 5.58891C5.65202 6.00643 5.65137 6.54503 5.65137 7.32937V16.8706C5.65137 17.655 5.65202 18.1936 5.68613 18.6111C5.71945 19.019 5.78056 19.2381 5.86136 19.3967C6.04607 19.7592 6.3408 20.0539 6.70332 20.2386C6.86189 20.3194 7.081 20.3805 7.48889 20.4138C7.90641 20.448 8.44501 20.4486 9.22935 20.4486H15.1009C15.8852 20.4486 16.4238 20.448 16.8414 20.4138C17.2492 20.3805 17.4683 20.3194 17.6269 20.2386C17.9894 20.0539 18.2842 19.7592 18.4689 19.3967C18.5497 19.2381 18.6108 19.019 18.6441 18.6111C18.6782 18.1936 18.6789 17.655 18.6789 16.8706V10.2543C18.6789 9.69401 18.6756 9.43724 18.6509 9.25603L15.4406 9.25604C15.2072 9.25606 14.9852 9.25608 14.7981 9.24079C14.594 9.22412 14.36 9.18524 14.126 9.06604C13.7981 8.89893 13.5314 8.63226 13.3643 8.30428C13.2451 8.07035 13.2062 7.83631 13.1895 7.63226C13.1742 7.44514 13.1743 7.22309 13.1743 6.98977L13.1743 3.7794ZM14.3255 2.41395C14.1229 2.32295 13.9119 2.2509 13.6952 2.19888C13.2816 2.09959 12.8521 2.09976 12.2638 2.1C12.2349 2.10001 12.2056 2.10002 12.1759 2.10002L9.19476 2.10002C8.45343 2.10001 7.84714 2.1 7.35441 2.14026C6.8444 2.18193 6.38378 2.27081 5.95361 2.49C5.28037 2.83303 4.73301 3.38039 4.38998 4.05363C4.17079 4.4838 4.08191 4.94442 4.04024 5.45443C3.99998 5.94716 3.99999 6.55345 4 7.29478V16.9052C3.99999 17.6466 3.99998 18.2528 4.04024 18.7456C4.08191 19.2556 4.17079 19.7162 4.38998 20.1464C4.73301 20.8196 5.28037 21.367 5.95361 21.71C6.38378 21.9292 6.8444 22.0181 7.35441 22.0597C7.84714 22.1 8.45342 22.1 9.19476 22.1H15.1355C15.8768 22.1 16.4831 22.1 16.9758 22.0597C17.4858 22.0181 17.9465 21.9292 18.3766 21.71C19.0499 21.367 19.5972 20.8196 19.9403 20.1464C20.1594 19.7162 20.2483 19.2556 20.29 18.7456C20.3303 18.2528 20.3302 17.6466 20.3302 16.9052V10.2543C20.3302 10.2246 20.3303 10.1954 20.3303 10.1664C20.3305 9.57819 20.3307 9.14861 20.2314 8.73506C20.1795 8.51904 20.1077 8.30864 20.0171 8.10653C20.012 8.09466 20.0067 8.08294 20.0011 8.07137C19.9425 7.94426 19.8763 7.82053 19.803 7.70083C19.5808 7.33819 19.2769 7.03455 18.8608 6.61875C18.8403 6.59832 18.8196 6.57762 18.7986 6.55663L15.8736 3.63166C15.8526 3.61067 15.8319 3.58995 15.8115 3.5695C15.3957 3.15338 15.0921 2.8495 14.7294 2.62727C14.6092 2.55362 14.485 2.48724 14.3573 2.42842C14.3468 2.42338 14.3362 2.41855 14.3255 2.41395ZM14.8257 4.91909V6.96246C14.8257 7.23299 14.8263 7.38623 14.8354 7.49779C14.8383 7.533 14.8415 7.55516 14.8437 7.56752C14.8491 7.57481 14.8555 7.58125 14.8628 7.58664C14.8752 7.58882 14.8973 7.59203 14.9325 7.5949C15.0441 7.60402 15.1973 7.60466 15.4679 7.60466H17.5112L14.8257 4.91909Z" fill="#5159F6"/>
</svg>
