<svg width="24" height="24" viewBox="0 0 24 24" fill="none" xmlns="http://www.w3.org/2000/svg">
<path fill-rule="evenodd" clip-rule="evenodd" d="M11.9999 3.8999C12.497 3.8999 12.8999 4.30285 12.8999 4.7999V11.0999L19.1999 11.0999C19.697 11.0999 20.0999 11.5028 20.0999 11.9999C20.0999 12.497 19.697 12.8999 19.1999 12.8999L12.8999 12.8999V19.1999C12.8999 19.697 12.497 20.0999 11.9999 20.0999C11.5029 20.0999 11.0999 19.697 11.0999 19.1999V12.8999H4.7999C4.30285 12.8999 3.8999 12.497 3.8999 11.9999C3.8999 11.5028 4.30285 11.0999 4.7999 11.0999H11.0999V4.7999C11.0999 4.30285 11.5029 3.8999 11.9999 3.8999Z" fill="#5159F6"/>
</svg>
