<svg width="24" height="24" viewBox="0 0 24 24" fill="none" xmlns="http://www.w3.org/2000/svg">
<path d="M15.9288 6.31652C15.9288 8.42432 14.2201 10.133 12.1123 10.133C10.0045 10.133 8.2958 8.42432 8.2958 6.31652C8.2958 4.20872 10.0045 2.5 12.1123 2.5C14.2201 2.5 15.9288 4.20872 15.9288 6.31652Z" fill="white"/>
<path fill-rule="evenodd" clip-rule="evenodd" d="M15.8928 21.5C18.7443 21.5 21.0559 19.1884 21.0559 16.337C21.0559 13.4855 18.7443 11.1739 15.8928 11.1739C13.0414 11.1739 10.7298 13.4855 10.7298 16.337C10.7298 19.1884 13.0414 21.5 15.8928 21.5ZM13.3576 15.4388C12.8579 15.4388 12.4528 15.8439 12.4528 16.3436C12.4528 16.8433 12.8579 17.2483 13.3576 17.2483H18.7861C19.2858 17.2483 19.6909 16.8433 19.6909 16.3436C19.6909 15.8439 19.2858 15.4388 18.7861 15.4388H13.3576Z" fill="white"/>
<path d="M7.29248 12.8172C8.22065 12.5064 9.04517 13.316 9.04517 14.2948V19.4716C9.04517 19.9523 8.65551 20.342 8.17483 20.342H4.20251C3.51231 20.342 2.95279 19.7573 2.95279 19.0361C2.95279 16.1258 4.7751 13.6602 7.29248 12.8172Z" fill="white"/>
</svg>
