<svg width="24" height="24" viewBox="0 0 24 24" fill="none" xmlns="http://www.w3.org/2000/svg">
<path fill-rule="evenodd" clip-rule="evenodd" d="M16.3636 4.3637C16.7151 4.01223 17.2849 4.01223 17.6364 4.3637L21.6364 8.3637C21.9879 8.71517 21.9879 9.28502 21.6364 9.63649L17.6364 13.6365C17.2849 13.988 16.7151 13.988 16.3636 13.6365C16.0121 13.285 16.0121 12.7152 16.3636 12.3637L18.8272 9.9001H7.50001C5.51178 9.9001 3.90001 11.5119 3.90001 13.5001C3.90001 15.4883 5.51178 17.1001 7.50001 17.1001H12C12.4971 17.1001 12.9 17.503 12.9 18.0001C12.9 18.4972 12.4971 18.9001 12 18.9001H7.50001C4.51767 18.9001 2.10001 16.4824 2.10001 13.5001C2.10001 10.5178 4.51767 8.1001 7.50001 8.1001H18.8272L16.3636 5.63649C16.0121 5.28502 16.0121 4.71517 16.3636 4.3637Z" fill="#111539"/>
</svg>
