<svg width="24" height="24" viewBox="0 0 24 24" fill="none" xmlns="http://www.w3.org/2000/svg">
<path fill-rule="evenodd" clip-rule="evenodd" d="M19.0128 9.70078L16.5058 12.5058C16.2324 12.7792 16.2324 13.2224 16.5058 13.4958C16.7792 13.7691 17.2224 13.7691 17.4958 13.4958L21.4958 9.49576C21.7691 9.22239 21.7691 8.77917 21.4958 8.50581L17.4958 4.50581C17.2224 4.23244 16.7792 4.23244 16.5058 4.50581C16.2324 4.77917 16.2324 5.22239 16.5058 5.49576L19.0128 8.30078H7.50078C4.6289 8.30078 2.30078 10.6289 2.30078 13.5008C2.30078 16.3727 4.6289 18.7008 7.50078 18.7008H12.0008C12.3874 18.7008 12.7008 18.3874 12.7008 18.0008C12.7008 17.6142 12.3874 17.3008 12.0008 17.3008H7.50078C5.4021 17.3008 3.70078 15.5995 3.70078 13.5008C3.70078 11.4021 5.4021 9.70078 7.50078 9.70078H19.0128Z" fill="#111539"/>
</svg>
