<svg width="16" height="16" viewBox="0 0 16 16" fill="none" xmlns="http://www.w3.org/2000/svg">
<path fill-rule="evenodd" clip-rule="evenodd" d="M4.19643 5.44415C3.1849 6.28838 2.47785 7.27955 2.12074 7.845C2.09726 7.88217 2.08045 7.90883 2.06631 7.93212C2.0525 7.95485 2.04499 7.96829 2.04054 7.97684C2.03952 7.97881 2.03872 7.9804 2.03811 7.98165C2.03778 7.98652 2.03752 7.99284 2.03752 8.00007C2.03752 8.0073 2.03778 8.01361 2.03811 8.01848C2.03872 8.01973 2.03952 8.02132 2.04054 8.02329C2.04499 8.03184 2.0525 8.04528 2.06631 8.06802C2.08045 8.0913 2.09726 8.11796 2.12074 8.15513C2.47785 8.72058 3.1849 9.71175 4.19643 10.556C5.20654 11.399 6.48413 12.0667 8.00029 12.0667C9.51646 12.0667 10.794 11.399 11.8042 10.556C12.8157 9.71175 13.5227 8.72058 13.8798 8.15513C13.9033 8.11796 13.9201 8.0913 13.9343 8.06801C13.9481 8.04528 13.9556 8.03184 13.96 8.02329C13.9611 8.02132 13.9619 8.01972 13.9625 8.01848C13.9628 8.01361 13.9631 8.00729 13.9631 8.00007C13.9631 7.99284 13.9628 7.98652 13.9625 7.98165C13.9619 7.9804 13.9611 7.97881 13.96 7.97684C13.9556 7.96829 13.9481 7.95485 13.9343 7.93212C13.9201 7.90883 13.9033 7.88217 13.8798 7.845C13.5227 7.27955 12.8157 6.28838 11.8042 5.44415C10.794 4.6011 9.51646 3.9334 8.00029 3.9334C6.48413 3.9334 5.20654 4.6011 4.19643 5.44415ZM13.9639 8.01496C13.9638 8.01534 13.9638 8.01565 13.9637 8.0159L13.9639 8.01496ZM13.9637 8.0159C13.9633 8.01751 13.9634 8.01684 13.964 8.01526C13.964 8.01516 13.9641 8.01507 13.9641 8.015M2.03641 8.01479C2.03641 8.01479 2.03644 8.01486 2.0365 8.015L2.03641 8.01479ZM2.03641 7.98534C2.03641 7.98534 2.03644 7.98527 2.0365 7.98513L2.03641 7.98534ZM3.42751 4.52287C4.57242 3.56731 6.11312 2.7334 8.00029 2.7334C9.88746 2.7334 11.4282 3.56731 12.5731 4.52287C13.7166 5.47725 14.5013 6.58169 14.8944 7.20423C14.8995 7.2123 14.9047 7.22049 14.91 7.2288C14.9886 7.35266 15.0848 7.50408 15.1336 7.71707C15.1729 7.88857 15.1729 8.11156 15.1336 8.28306C15.0848 8.49605 14.9886 8.64747 14.91 8.77133C14.9047 8.77964 14.8995 8.78783 14.8944 8.7959C14.5013 9.41844 13.7166 10.5229 12.5731 11.4773C11.4282 12.4328 9.88746 13.2667 8.00029 13.2667C6.11312 13.2667 4.57242 12.4328 3.42751 11.4773C2.28401 10.5229 1.4993 9.41844 1.10614 8.7959C1.10104 8.78783 1.09584 8.77964 1.09057 8.77133C1.01194 8.64747 0.915827 8.49605 0.867006 8.28306C0.827697 8.11156 0.827697 7.88857 0.867006 7.71707C0.915827 7.50408 1.01194 7.35266 1.09057 7.2288C1.09584 7.22049 1.10104 7.2123 1.10614 7.20423C1.4993 6.58169 2.28401 5.47725 3.42751 4.52287ZM8.00029 6.60007C7.22709 6.60007 6.60029 7.22687 6.60029 8.00007C6.60029 8.77326 7.22709 9.40007 8.00029 9.40007C8.77349 9.40007 9.40029 8.77326 9.40029 8.00007C9.40029 7.22687 8.77349 6.60007 8.00029 6.60007ZM5.40029 8.00007C5.40029 6.56413 6.56435 5.40007 8.00029 5.40007C9.43623 5.40007 10.6003 6.56412 10.6003 8.00007C10.6003 9.43601 9.43623 10.6001 8.00029 10.6001C6.56435 10.6001 5.40029 9.43601 5.40029 8.00007Z" fill="#707388"/>
</svg>
