<svg width="18" height="18" viewBox="0 0 18 18" fill="none" xmlns="http://www.w3.org/2000/svg">
<path d="M7.6199 3.27815L2.24105 8.35818C2.09048 8.50038 2.0837 8.73772 2.22591 8.88829C2.23081 8.89348 2.23586 8.89853 2.24105 8.90343L7.6199 13.9835C7.77047 14.1257 8.00781 14.1189 8.15001 13.9683C8.21576 13.8987 8.25238 13.8066 8.25238 13.7108V11.0958C11.8799 11.0958 14.6123 11.8352 16.5674 13.965C16.5974 13.9977 16.6463 14.0551 16.7141 14.1374L16.7142 14.1373C16.8196 14.2651 17.0086 14.2833 17.1364 14.1779C17.2256 14.1043 17.2645 13.9861 17.2366 13.874C17.2064 13.7528 17.1848 13.6696 17.1717 13.6243C16.1052 9.9413 13.4803 6.8264 8.25238 6.08081V3.55078C8.25238 3.34367 8.08449 3.17578 7.87738 3.17578C7.78163 3.17578 7.68951 3.21241 7.6199 3.27815Z" fill="white"/>
</svg>
