<svg width="49" height="48" viewBox="0 0 49 48" fill="none" xmlns="http://www.w3.org/2000/svg">
<path fill-rule="evenodd" clip-rule="evenodd" d="M35.8174 38.159H43.0095C42.3611 34.0477 38.8018 30.9038 34.5083 30.9038C34.3899 30.9038 34.2722 30.9062 34.1552 30.9108C34.1774 31.1153 34.2303 31.3313 34.3116 31.5322C35.15 33.6029 35.6712 35.8331 35.8174 38.159ZM14.9477 19.0962C16.9511 19.0962 18.5753 17.4721 18.5753 15.4686C18.5753 13.4651 16.9511 11.841 14.9477 11.841C12.9442 11.841 11.3201 13.4651 11.3201 15.4686C11.3201 17.4721 12.9442 19.0962 14.9477 19.0962ZM34.5083 19.0962C36.5118 19.0962 38.1359 17.4721 38.1359 15.4686C38.1359 13.4651 36.5118 11.841 34.5083 11.841C32.5047 11.841 30.8807 13.4651 30.8807 15.4686C30.8807 17.4721 32.5047 19.0962 34.5083 19.0962ZM23.4488 38.159C22.8004 34.0477 19.2412 30.9037 14.9477 30.9037C10.6542 30.9037 7.09491 34.0477 6.44649 38.159H23.4488ZM14.9477 22.9372C19.0725 22.9372 22.4163 19.5934 22.4163 15.4686C22.4163 11.3438 19.0725 8 14.9477 8C10.8229 8 7.47909 11.3438 7.47909 15.4686C7.47909 19.5934 10.8229 22.9372 14.9477 22.9372ZM32.0188 39.5105C32.0188 40.8288 33.0219 42 34.3402 42H44.4665C45.8414 42 46.956 40.8854 46.956 39.5105C46.956 32.6359 41.3829 27.0628 34.5083 27.0628C33.9706 27.0628 33.4407 27.0969 32.9209 27.1631C30.3425 27.4912 29.7759 30.5646 30.7514 32.9738C31.5687 34.9923 32.0188 37.1988 32.0188 39.5105ZM41.9769 15.4686C41.9769 19.5934 38.6332 22.9372 34.5083 22.9372C30.3834 22.9372 27.0397 19.5934 27.0397 15.4686C27.0397 11.3438 30.3834 8 34.5083 8C38.6332 8 41.9769 11.3438 41.9769 15.4686ZM27.3953 39.5104C27.3953 32.6358 21.8223 27.0628 14.9477 27.0628C8.07302 27.0628 2.5 32.6358 2.5 39.5104C2.5 40.8853 3.61461 41.9999 4.98954 41.9999H24.9058C26.2807 41.9999 27.3953 40.8853 27.3953 39.5104Z" fill="#5159F6"/>
</svg>
