<svg width="24" height="24" viewBox="0 0 24 24" fill="none" xmlns="http://www.w3.org/2000/svg">
<path d="M5.94423 3.6831L6.0364 3.76365L20.2364 17.9636C20.5879 18.3151 20.5879 18.885 20.2364 19.2364C19.9142 19.5586 19.4085 19.5855 19.0558 19.317L18.9636 19.2364L15.248 15.521L14.9892 18.8872C14.9381 19.5513 14.3583 20.0483 13.6942 19.9972C13.4071 19.9751 13.1374 19.8511 12.9339 19.6475L9.28 15.993L4.5364 20.7372C4.18492 21.0886 3.61508 21.0886 3.2636 20.7372C2.94142 20.415 2.91457 19.9093 3.18306 19.5565L3.2636 19.4644L8.007 14.72L4.35324 11.0669C3.91365 10.6273 3.88435 9.93285 4.26532 9.45927L4.35324 9.36134C4.55681 9.15777 4.82649 9.03374 5.11354 9.01166L8.479 8.75205L4.7636 5.03644C4.41213 4.68497 4.41213 4.11512 4.7636 3.76365C5.08579 3.44147 5.59147 3.41462 5.94423 3.6831ZM10.1263 10.3994C10.0079 10.4297 9.88638 10.4498 9.76308 10.4593L6.539 10.7068L13.293 17.4608L13.5415 14.2377C13.551 14.1144 13.5711 13.993 13.6014 13.8745L10.1263 10.3994ZM14.5855 3.18574L14.6735 3.2634L20.7381 9.3234C21.2199 9.80481 21.0089 10.61 20.3877 10.8139L20.2738 10.8435L18.4438 11.1992L18.391 11.2262L17.8585 11.7606C17.5076 12.1126 16.9378 12.1136 16.5857 11.7628C16.2629 11.4411 16.2352 10.9355 16.5031 10.5823L16.5835 10.49L17.117 9.95462C17.3548 9.71665 17.6509 9.54682 17.9623 9.46334L18.267 9.39905L14.593 5.72705L14.5636 5.87729C14.5053 6.20608 14.3616 6.5127 14.1468 6.76835L14.0336 6.89179L13.5055 7.4159C13.1527 7.76606 12.5829 7.76392 12.2327 7.41114C11.9118 7.08775 11.8868 6.58198 12.1566 6.23022L12.2375 6.13836L12.7634 5.61637L12.7712 5.60421L12.7945 5.5456L13.1544 3.72546C13.2862 3.05879 14.07 2.78558 14.5855 3.18574Z" fill="#5159F6"/>
</svg>
