<svg width="72" height="72" viewBox="0 0 72 72" fill="none" xmlns="http://www.w3.org/2000/svg">
<g clip-path="url(#clip0_3087_2148)">
<rect width="72" height="72" fill="#A0A1B0"/>
<circle cx="36" cy="36" r="36" fill="#A0A1B0"/>
<path d="M48.9201 30.96C48.9201 38.1176 43.1177 43.92 35.9601 43.92C28.8025 43.92 23.0001 38.1176 23.0001 30.96C23.0001 23.8024 28.8025 18 35.9601 18C43.1177 18 48.9201 23.8024 48.9201 30.96Z" fill="#F4F5F8"/>
<path d="M9 71.9697C9 68.9795 9 71.9897 9 72H63C63 68.4541 62.3018 66.9434 60.9448 63.6675C59.5879 60.3916 57.5991 57.4155 55.0918 54.9082C52.5845 52.4009 49.6084 50.4121 46.3325 49.0552C43.0664 47.7021 39.5654 47.0039 36.0303 47C36.0205 47 36.0103 47 36 47C32.4541 47 28.9434 47.6982 25.6675 49.0552C22.3916 50.4121 19.4155 52.4009 16.9082 54.9082C14.4009 57.4155 12.4121 60.3916 11.0552 63.6675C9.70215 66.9336 9.00391 68.4346 9 71.9697Z" fill="#F4F5F8"/>
</g>
<defs>
<clipPath id="clip0_3087_2148">
<rect width="72" height="72" fill="white"/>
</clipPath>
</defs>
</svg>
