<svg width="24" height="24" viewBox="0 0 24 24" fill="none" xmlns="http://www.w3.org/2000/svg">
<path fill-rule="evenodd" clip-rule="evenodd" d="M12 3.89961C11.1778 3.89961 10.3893 4.22622 9.80794 4.80758C9.22658 5.38894 8.89998 6.17744 8.89998 6.99961V10.0996H18C18.7691 10.0996 19.5067 10.4051 20.0506 10.949C20.5944 11.4929 20.9 12.2305 20.9 12.9996V18.9996C20.9 19.7687 20.5944 20.5064 20.0506 21.0502C19.5067 21.5941 18.7691 21.8996 18 21.8996H5.99998C5.23085 21.8996 4.49322 21.5941 3.94937 21.0502C3.40551 20.5064 3.09998 19.7687 3.09998 18.9996V12.9996C3.09998 12.2305 3.40551 11.4929 3.94937 10.949C4.49322 10.4051 5.23085 10.0996 5.99998 10.0996H7.09998V6.99961C7.09998 5.70005 7.61622 4.45371 8.53515 3.53479C9.45408 2.61586 10.7004 2.09961 12 2.09961C13.2995 2.09961 14.5459 2.61586 15.4648 3.53479C16.3837 4.45371 16.9 5.70005 16.9 6.99961C16.9 7.49667 16.497 7.89961 16 7.89961C15.5029 7.89961 15.1 7.49667 15.1 6.99961C15.1 6.17744 14.7734 5.38894 14.192 4.80758C13.6106 4.22622 12.8221 3.89961 12 3.89961ZM5.99998 11.8996C5.70824 11.8996 5.42845 12.0155 5.22216 12.2218C5.01587 12.4281 4.89998 12.7079 4.89998 12.9996V18.9996C4.89998 19.2913 5.01587 19.5711 5.22216 19.7774C5.42845 19.9837 5.70824 20.0996 5.99998 20.0996H18C18.2917 20.0996 18.5715 19.9837 18.7778 19.7774C18.9841 19.5711 19.1 19.2913 19.1 18.9996V12.9996C19.1 12.7079 18.9841 12.4281 18.7778 12.2218C18.5715 12.0155 18.2917 11.8996 18 11.8996H5.99998ZM12 14.0996C12.497 14.0996 12.9 14.5026 12.9 14.9996V16.9996C12.9 17.4967 12.497 17.8996 12 17.8996C11.5029 17.8996 11.1 17.4967 11.1 16.9996V14.9996C11.1 14.5026 11.5029 14.0996 12 14.0996Z" fill="#A0A1B0"/>
</svg>
