<svg width="24" height="24" viewBox="0 0 24 24" fill="none" xmlns="http://www.w3.org/2000/svg">
<path fill-rule="evenodd" clip-rule="evenodd" d="M4.99998 3.9001C4.70824 3.9001 4.42845 4.01599 4.22216 4.22228C4.01587 4.42857 3.89998 4.70836 3.89998 5.0001V14.3168C4.24577 14.1751 4.61901 14.1001 4.99998 14.1001H11.5C11.7387 14.1001 11.9676 14.1949 12.1364 14.3637L12.8728 15.1001H19.5437L17.195 10.4026C17.0683 10.1492 17.0683 9.85098 17.195 9.59761L19.5437 4.9001H12.9V9.0001C12.9 9.49715 12.497 9.9001 12 9.9001C11.5029 9.9001 11.1 9.49715 11.1 9.0001V3.9001H4.99998ZM12.8728 3.1001L12.1364 2.3637C11.9676 2.19492 11.7387 2.1001 11.5 2.1001H4.99998C4.23085 2.1001 3.49322 2.40563 2.94937 2.94949C2.40551 3.49334 2.09998 4.23097 2.09998 5.0001V21.0001C2.09998 21.4972 2.50292 21.9001 2.99998 21.9001C3.49703 21.9001 3.89998 21.4972 3.89998 21.0001V17.0001C3.89998 16.7084 4.01587 16.4286 4.22216 16.2223C4.42845 16.016 4.70824 15.9001 4.99998 15.9001H11.1272L11.8636 16.6365C12.0324 16.8053 12.2613 16.9001 12.5 16.9001H21C21.3119 16.9001 21.6016 16.7386 21.7656 16.4733C21.9295 16.2079 21.9445 15.8766 21.805 15.5976L19.0062 10.0001L21.805 4.40259C21.9445 4.1236 21.9295 3.79227 21.7656 3.52694C21.6016 3.2616 21.3119 3.1001 21 3.1001H12.8728Z" fill="#76787A"/>
</svg>
