<svg width="32" height="32" viewBox="0 0 32 32" fill="none" xmlns="http://www.w3.org/2000/svg">
<circle cx="16" cy="16" r="16" fill="#4F6AFF"/>
<path d="M10.953 18.9445C10.4078 20.4045 10.0652 21.4301 9.92534 22.0213C9.48618 23.8773 9.16686 24.2953 10.8037 23.4133C12.4405 22.5312 20.3644 18.1619 22.1323 17.1909C24.4369 15.9251 24.4677 16.024 22.0087 14.68C20.1359 13.6564 12.3048 9.40103 10.8037 8.56548C9.30254 7.72994 9.48618 8.10149 9.92534 9.95747C10.0671 10.5564 10.4146 11.5911 10.968 13.0618C11.3532 14.0857 12.2432 14.8355 13.3176 15.0416L17.9123 15.9227C17.9553 15.9312 17.9832 15.9726 17.9746 16.0151C17.9683 16.0462 17.9437 16.0705 17.9123 16.0768L13.3072 16.957C12.2293 17.1631 11.337 17.9164 10.953 18.9445Z" fill="white"/>
</svg>
