<svg width="24" height="24" viewBox="0 0 24 24" fill="none" xmlns="http://www.w3.org/2000/svg">
<path fill-rule="evenodd" clip-rule="evenodd" d="M12 3.65138C7.38918 3.65138 3.65138 7.38918 3.65138 12C3.65138 16.6108 7.38918 20.3486 12 20.3486C16.6108 20.3486 20.3486 16.6108 20.3486 12C20.3486 7.38918 16.6108 3.65138 12 3.65138ZM2 12C2 6.47715 6.47715 2 12 2C17.5228 2 22 6.47715 22 12C22 17.5228 17.5228 22 12 22C6.47715 22 2 17.5228 2 12Z" fill="#111539"/>
<path fill-rule="evenodd" clip-rule="evenodd" d="M10.4098 11.2355C10.4098 10.7795 10.7795 10.4098 11.2355 10.4098H12C12.456 10.4098 12.8257 10.7795 12.8257 11.2355V15.7637C13.2531 15.795 13.5902 16.1517 13.5902 16.5872C13.5902 17.0432 13.2205 17.4128 12.7645 17.4128H12C11.544 17.4128 11.1743 17.0432 11.1743 16.5872V12.0589C10.7469 12.0276 10.4098 11.6709 10.4098 11.2355Z" fill="#111539"/>
<path d="M11.8089 8.9419C12.4422 8.9419 12.9557 8.42846 12.9557 7.79511C12.9557 7.16175 12.4422 6.64832 11.8089 6.64832C11.1755 6.64832 10.6621 7.16175 10.6621 7.79511C10.6621 8.42846 11.1755 8.9419 11.8089 8.9419Z" fill="#111539"/>
</svg>
