<svg width="24" height="24" viewBox="0 0 24 24" fill="none" xmlns="http://www.w3.org/2000/svg">
<path fill-rule="evenodd" clip-rule="evenodd" d="M12.8142 15.9624C12.7097 15.9547 12.6288 15.8677 12.6288 15.7629V11.2347C12.6288 10.8891 12.3487 10.609 12.0031 10.609H11.2386C10.893 10.609 10.6129 10.8891 10.6129 11.2347C10.6129 11.5646 10.8683 11.835 11.192 11.8587C11.2966 11.8663 11.3774 11.9534 11.3774 12.0582V16.5864C11.3774 16.9319 11.6576 17.2121 12.0031 17.2121H12.7677C13.1132 17.2121 13.3933 16.9319 13.3933 16.5864C13.3933 16.2565 13.1379 15.9861 12.8142 15.9624ZM3.4545 11.9992C3.4545 7.27794 7.28185 3.45059 12.0031 3.45059C16.7244 3.45059 20.5517 7.27794 20.5517 11.9992C20.5517 16.7205 16.7244 20.5478 12.0031 20.5478C7.28185 20.5478 3.4545 16.7205 3.4545 11.9992ZM12.0031 2.19922C6.59073 2.19922 2.20312 6.58683 2.20312 11.9992C2.20312 17.4116 6.59073 21.7992 12.0031 21.7992C17.4155 21.7992 21.8031 17.4116 21.8031 11.9992C21.8031 6.58683 17.4155 2.19922 12.0031 2.19922ZM11.812 8.74112C12.3349 8.74112 12.7588 8.31722 12.7588 7.79433C12.7588 7.27143 12.3349 6.84754 11.812 6.84754C11.2891 6.84754 10.8652 7.27143 10.8652 7.79433C10.8652 8.31722 11.2891 8.74112 11.812 8.74112Z" fill="#111539"/>
</svg>
