<svg width="16" height="16" viewBox="0 0 16 16" fill="none" xmlns="http://www.w3.org/2000/svg">
<path fill-rule="evenodd" clip-rule="evenodd" d="M3.21276 1.82415C3.88112 1.4667 4.53972 1.3335 6.04267 1.3335H9.95765C11.4606 1.3335 12.1192 1.4667 12.7876 1.82415C13.3847 2.14348 13.8568 2.61565 14.1762 3.21276C14.5336 3.88112 14.6668 4.53972 14.6668 6.04267V9.95765C14.6668 11.4606 14.5336 12.1192 14.1762 12.7876C13.8568 13.3847 13.3847 13.8568 12.7876 14.1762C12.1192 14.5336 11.4606 14.6668 9.95765 14.6668H6.04267C4.53972 14.6668 3.88112 14.5336 3.21276 14.1762C2.61565 13.8568 2.14348 13.3847 1.82415 12.7876C1.4667 12.1192 1.3335 11.4606 1.3335 9.95765V6.04267C1.3335 4.53972 1.4667 3.88112 1.82415 3.21276C2.14348 2.61565 2.61565 2.14348 3.21276 1.82415ZM9.57647 8.10819C9.66786 7.98638 9.83739 7.96427 9.95514 8.0588C9.97417 8.07407 9.99114 8.09191 10.0056 8.11185L12.7081 11.8392C12.7975 11.9625 12.7733 12.1375 12.6541 12.23C12.6074 12.2663 12.5506 12.2859 12.4922 12.2859H3.98433C3.83528 12.2859 3.71445 12.1609 3.71445 12.0067C3.71445 11.9446 3.73445 11.8843 3.7713 11.8353L5.74529 9.20995C5.8368 9.08824 6.00636 9.06632 6.12402 9.16098C6.13942 9.17337 6.15347 9.18745 6.16594 9.20297L7.52397 10.8573L9.57647 8.10819ZM5.14302 6.0954C5.66901 6.0954 6.0954 5.66901 6.0954 5.14302C6.0954 4.61703 5.66901 4.19064 5.14302 4.19064C4.61703 4.19064 4.19064 4.61703 4.19064 5.14302C4.19064 5.66901 4.61703 6.0954 5.14302 6.0954Z" fill="#818C99"/>
</svg>
