<svg width="32" height="32" viewBox="0 0 32 32" fill="none" xmlns="http://www.w3.org/2000/svg">
<rect width="32" height="32" rx="16" fill="#5159F6"/>
<path d="M17.6538 9.39734C17.8518 9.44297 18.027 9.51554 18.1993 9.62327C18.3715 9.73101 18.5111 9.8441 18.8762 10.2093L21.1237 12.4568C21.4889 12.8219 21.602 12.9615 21.7097 13.1337C21.8175 13.306 21.89 13.4812 21.9357 13.6792C21.9813 13.8772 22 14.0558 22 14.5722V19.4358C22 20.3273 21.9072 20.6506 21.7329 20.9765C21.5585 21.3024 21.3028 21.5582 20.9768 21.7325C20.6509 21.9068 20.3276 21.9997 19.4361 21.9997H13.2305C12.339 21.9997 12.0157 21.9068 11.6898 21.7325C11.3639 21.5582 11.1081 21.3024 10.9338 20.9765C10.7595 20.6506 10.6667 20.3273 10.6667 19.4358V11.8969C10.6667 11.0054 10.7595 10.6821 10.9338 10.3562C11.1081 10.0302 11.3639 9.77445 11.6898 9.60014C12.0157 9.42583 12.339 9.33301 13.2305 9.33301H16.7608C17.2772 9.33301 17.4558 9.35171 17.6538 9.39734ZM17.2 10.6159C17.0895 10.6159 17 10.7054 17 10.8159V13.333C17 13.5171 17.1492 13.6664 17.3333 13.6664H19.8505C19.9035 13.6664 19.9544 13.6453 19.9919 13.6078C20.07 13.5297 20.07 13.403 19.9919 13.3249L17.3414 10.6744C17.3039 10.6369 17.253 10.6159 17.2 10.6159Z" fill="white"/>
</svg>
