<svg width="24" height="24" viewBox="0 0 24 24" fill="none" xmlns="http://www.w3.org/2000/svg">
<path fill-rule="evenodd" clip-rule="evenodd" d="M12.0001 3.90028C10.5959 3.90028 9.22317 4.31668 8.05559 5.09682C6.88801 5.87696 5.97798 6.98581 5.44059 8.28314C4.9032 9.58048 4.76257 11.008 5.0365 12.3853C5.31042 13.7625 5.98656 15.0276 6.97942 16.0205C6.97939 16.0205 6.97945 16.0205 6.97942 16.0205L11.2234 20.2635C11.3254 20.3656 11.4469 20.447 11.5802 20.5022C11.7134 20.5575 11.8563 20.5859 12.0006 20.5859C12.1449 20.5859 12.2878 20.5575 12.421 20.5022C12.5543 20.447 12.6754 20.366 12.7774 20.2639L17.0207 16.0206C17.0207 16.0206 17.0207 16.0206 17.0207 16.0206C18.0136 15.0276 18.6898 13.7625 18.9637 12.3853C19.2376 11.008 19.097 9.58048 18.5596 8.28314C18.0222 6.98581 17.1122 5.87696 15.9446 5.09682C14.777 4.31668 13.4043 3.90028 12.0001 3.90028ZM7.05557 3.60017C8.51916 2.62224 10.2399 2.10028 12.0001 2.10028C13.7603 2.10028 15.481 2.62224 16.9446 3.60017C18.4082 4.57809 19.549 5.96806 20.2226 7.59429C20.8962 9.22053 21.0725 11.01 20.7291 12.7364C20.3858 14.4628 19.5382 16.0487 18.2935 17.2934L14.0508 21.5361C14.0507 21.5362 14.0509 21.536 14.0508 21.5361C13.7817 21.8053 13.4619 22.0193 13.1103 22.165C12.7585 22.3108 12.3814 22.3859 12.0006 22.3859C11.6198 22.3859 11.2427 22.3108 10.8909 22.165C10.5393 22.0193 10.2198 21.8057 9.95078 21.5365C9.95065 21.5363 9.95091 21.5366 9.95078 21.5365L5.70678 17.2935C4.46214 16.0488 3.61445 14.4628 3.27108 12.7364C2.92771 11.01 3.10398 9.22053 3.77762 7.59429C4.45125 5.96806 5.59199 4.57809 7.05557 3.60017ZM12.0001 8.89999C11.4431 8.89999 10.909 9.12124 10.5152 9.51506C10.1214 9.90889 9.9001 10.443 9.9001 11C9.9001 11.5569 10.1214 12.0911 10.5152 12.4849C10.909 12.8787 11.4431 13.1 12.0001 13.1C12.5571 13.1 13.0912 12.8787 13.485 12.4849C13.8789 12.0911 14.1001 11.5569 14.1001 11C14.1001 10.443 13.8789 9.90889 13.485 9.51506C13.0912 9.12124 12.5571 8.89999 12.0001 8.89999ZM9.24239 8.24227C9.97378 7.51088 10.9658 7.09999 12.0001 7.09999C13.0344 7.09999 14.0264 7.51088 14.7578 8.24227C15.4892 8.97366 15.9001 9.96564 15.9001 11C15.9001 12.0343 15.4892 13.0263 14.7578 13.7577C14.0264 14.4891 13.0344 14.9 12.0001 14.9C10.9658 14.9 9.97378 14.4891 9.24239 13.7577C8.51099 13.0263 8.1001 12.0343 8.1001 11C8.1001 9.96564 8.51099 8.97366 9.24239 8.24227Z" fill="#5159F6"/>
</svg>
