<svg width="20" height="20" viewBox="0 0 20 20" fill="none" xmlns="http://www.w3.org/2000/svg">
<path fill-rule="evenodd" clip-rule="evenodd" d="M13.5851 18.75C16.2115 18.75 18.3405 16.6209 18.3405 13.9946C18.3405 11.3682 16.2115 9.23913 13.5851 9.23913C10.9588 9.23913 8.82968 11.3682 8.82968 13.9946C8.82968 16.6209 10.9588 18.75 13.5851 18.75ZM15.9123 12.814L14.5864 12.6839L14.0027 11.3063C13.82 10.875 13.3516 10.8748 13.1687 11.3062L12.5847 12.6839L11.2591 12.814C10.7958 12.8595 10.6549 13.3191 11.0126 13.6233L12.0506 14.5059L11.6652 15.9438C11.5387 16.416 11.9329 16.7007 12.3245 16.4177L13.5857 15.5062L14.8469 16.4177C15.2401 16.7018 15.6327 16.416 15.5062 15.9438L15.1209 14.5059L16.1588 13.6233C16.5151 13.3204 16.3736 12.8593 15.9123 12.814Z" fill="white"/>
<path fill-rule="evenodd" clip-rule="evenodd" d="M13.6183 4.76521C13.6183 6.70661 12.0445 8.28043 10.1031 8.28043C8.16167 8.28043 6.58785 6.70661 6.58785 4.76521C6.58785 2.82382 8.16167 1.25 10.1031 1.25C12.0445 1.25 13.6183 2.82382 13.6183 4.76521Z" fill="white"/>
<path d="M7.27806 12.1136C7.27806 11.2121 6.51863 10.4664 5.66374 10.7527C3.3451 11.5291 1.66666 13.8001 1.66666 16.4807C1.66666 17.1449 2.182 17.6834 2.81772 17.6834H6.47643C6.91916 17.6834 7.27806 17.3245 7.27806 16.8818V12.1136Z" fill="white"/>
</svg>
