<svg width="20" height="20" viewBox="0 0 20 20" fill="none" xmlns="http://www.w3.org/2000/svg">
<path d="M9.99984 17.2709C14.0154 17.2709 17.2707 14.0157 17.2707 10.0001C17.2707 5.98451 14.0154 2.72925 9.99984 2.72925C5.98427 2.72925 2.729 5.98451 2.729 10.0001C2.729 14.0157 5.98427 17.2709 9.99984 17.2709ZM17.8332 10.0001C17.8332 14.3263 14.3261 17.8334 9.99984 17.8334C5.67361 17.8334 2.1665 14.3263 2.1665 10.0001C2.1665 5.67385 5.67361 2.16675 9.99984 2.16675C14.3261 2.16675 17.8332 5.67385 17.8332 10.0001ZM9.99984 13.2501C10.23 13.2501 10.4165 13.4366 10.4165 13.6667C10.4165 13.8969 10.23 14.0834 9.99984 14.0834C9.76972 14.0834 9.58317 13.8969 9.58317 13.6667C9.58317 13.4366 9.76972 13.2501 9.99984 13.2501ZM10.2226 5.91675C10.2227 5.91675 10.2228 5.91675 10.2229 5.91675C10.3263 5.9169 10.4101 6.00079 10.4101 6.10425L10.41 6.11108L10.2276 11.1138C10.2231 11.2364 10.1225 11.3334 9.99985 11.3334C9.87721 11.3334 9.77656 11.2364 9.77209 11.1138L9.58969 6.11108C9.58599 6.00964 9.66359 5.92409 9.76413 5.91719L10.2226 5.91675Z" fill="#FFB73D" stroke="#FFB73D"/>
</svg>
