<svg width="34" height="34" viewBox="0 0 34 34" fill="none" xmlns="http://www.w3.org/2000/svg">
<circle cx="17" cy="17" r="17" fill="#6B72FF"/>
<path d="M9.69267 17.0173C10.1554 16.9174 10.6115 17.2116 10.7113 17.6744C11.3234 20.5116 13.8448 22.571 16.7858 22.571H17.2144C20.155 22.571 22.6762 20.5121 23.2887 17.6752C23.3886 17.2125 23.8447 16.9184 24.3074 17.0183C24.7701 17.1182 25.0643 17.5743 24.9644 18.037C24.2274 21.4503 21.329 23.9793 17.8573 24.2594L17.8572 26.8567C17.8572 27.3301 17.4735 27.7139 17.0001 27.7139C16.5267 27.7139 16.1429 27.3301 16.1429 26.8567L16.1428 24.2594C12.6707 23.9793 9.7721 21.4497 9.03557 18.0359C8.93573 17.5732 9.22993 17.1171 9.69267 17.0173ZM17.0001 6.71387C19.367 6.71387 21.2858 8.63265 21.2858 10.9996V16.1424C21.2858 18.5094 19.367 20.4282 17.0001 20.4282C14.6331 20.4282 12.7144 18.5094 12.7144 16.1424V10.9996C12.7144 8.63265 14.6331 6.71387 17.0001 6.71387Z" fill="white"/>
</svg>
