<svg width="16" height="16" viewBox="0 0 16 16" fill="none" xmlns="http://www.w3.org/2000/svg">
<path fill-rule="evenodd" clip-rule="evenodd" d="M7.99999 3.73366C5.64357 3.73366 3.73332 5.64391 3.73332 8.00033C3.73332 10.3567 5.64357 12.267 7.99999 12.267C10.3564 12.267 12.2667 10.3567 12.2667 8.00033C12.2667 5.64391 10.3564 3.73366 7.99999 3.73366ZM2.66666 8.00033C2.66666 5.05481 5.05447 2.66699 7.99999 2.66699C10.9455 2.66699 13.3333 5.05481 13.3333 8.00033C13.3333 10.9458 10.9455 13.3337 7.99999 13.3337C5.05447 13.3337 2.66666 10.9458 2.66666 8.00033ZM7.99999 4.66699C8.29454 4.66699 8.53332 4.90577 8.53332 5.20033V7.46699H10.8C11.0945 7.46699 11.3333 7.70577 11.3333 8.00033C11.3333 8.29488 11.0945 8.53366 10.8 8.53366H7.99999C7.70544 8.53366 7.46666 8.29488 7.46666 8.00033V5.20033C7.46666 4.90577 7.70544 4.66699 7.99999 4.66699Z" fill="#969A9F"/>
</svg>
