<svg width="24" height="24" viewBox="0 0 24 24" fill="none" xmlns="http://www.w3.org/2000/svg">
<path d="M7.1999 8.69997C7.1999 7.87154 7.87148 7.19997 8.6999 7.19997C9.52833 7.19997 10.1999 7.87154 10.1999 8.69997C10.1999 9.5284 9.52833 10.2 8.6999 10.2C7.87148 10.2 7.1999 9.5284 7.1999 8.69997Z" fill="#5159F6"/>
<path fill-rule="evenodd" clip-rule="evenodd" d="M8.49852 2.39999C6.36806 2.39999 5.59337 2.61643 4.81393 3.03328C4.04624 3.44385 3.44375 4.04633 3.03319 4.81402C2.61634 5.59346 2.3999 6.36816 2.3999 8.49861V15.5014C2.3999 17.6318 2.61634 18.4065 3.03319 19.186C3.44375 19.9537 4.04624 20.5561 4.81393 20.9667C5.59337 21.3836 6.36806 21.6 8.49852 21.6H15.5013C17.6317 21.6 18.4064 21.3836 19.1859 20.9667C19.9536 20.5561 20.5561 19.9537 20.9666 19.186C21.3835 18.4065 21.5999 17.6318 21.5999 15.5014V8.49861C21.5999 6.36816 21.3835 5.59346 20.9666 4.81402C20.5561 4.04633 19.9536 3.44385 19.1859 3.03328C18.4064 2.61643 17.6317 2.39999 15.5013 2.39999H8.49852ZM6.95157 14.7255C7.28703 14.39 7.57643 14.1006 7.83429 13.8817C8.10644 13.6507 8.40206 13.4458 8.76556 13.3277C9.30783 13.1515 9.89197 13.1515 10.4342 13.3277C10.7977 13.4458 11.0934 13.6507 11.3655 13.8817C11.5574 14.0446 11.7668 14.2466 11.9996 14.4775L14.1516 12.3255C14.487 11.99 14.7764 11.7006 15.0343 11.4817C15.3064 11.2507 15.6021 11.0458 15.9656 10.9277C16.5078 10.7515 17.092 10.7515 17.6343 10.9277C17.9977 11.0458 18.2934 11.2507 18.5655 11.4817C18.8234 11.7006 19.1128 11.99 19.4482 12.3255L19.7999 12.6772V8.49861C19.7999 6.50654 19.5974 6.0706 19.3794 5.6629C19.1366 5.2089 18.791 4.86335 18.337 4.62054C17.9293 4.4025 17.4934 4.19999 15.5013 4.19999H8.49852C6.50645 4.19999 6.07051 4.4025 5.66281 4.62054C5.2088 4.86335 4.86326 5.20889 4.62045 5.6629C4.40241 6.0706 4.1999 6.50654 4.1999 8.49861V15.5014C4.1999 16.3893 4.24014 16.9681 4.30406 17.373L6.95157 14.7255ZM7.1999 8.69997C7.1999 9.5284 7.87148 10.2 8.6999 10.2C9.52833 10.2 10.1999 9.5284 10.1999 8.69997C10.1999 7.87154 9.52833 7.19997 8.6999 7.19997C7.87148 7.19997 7.1999 7.87154 7.1999 8.69997ZM17.078 12.6396C16.8973 12.5809 16.7025 12.5809 16.5218 12.6396C16.4743 12.655 16.3862 12.6952 16.1992 12.8539C16.0042 13.0195 15.7667 13.2559 15.3998 13.6228L12.6363 16.3864C12.4675 16.5552 12.2386 16.65 11.9999 16.65C11.7612 16.65 11.5323 16.5552 11.3635 16.3864L11 16.0228C10.6331 15.6559 10.3956 15.4195 10.2006 15.2539C10.0136 15.0952 9.92552 15.055 9.87802 15.0396C9.69726 14.9809 9.50255 14.9809 9.32179 15.0396C9.27429 15.055 9.18621 15.0952 8.9992 15.2539C8.80416 15.4195 8.56675 15.6559 8.19983 16.0228L5.17744 19.0452C5.32271 19.1727 5.48438 19.284 5.66281 19.3794C6.07051 19.5975 6.50645 19.8 8.49852 19.8H15.5013C17.4934 19.8 17.9293 19.5975 18.337 19.3794C18.791 19.1366 19.1365 18.7911 19.3794 18.3371C19.5974 17.9294 19.7999 17.4935 19.7999 15.5014V15.2208C19.7999 15.2208 18.7306 14.154 18.2 13.6228C17.8331 13.2559 17.5957 13.0195 17.4006 12.8539C17.2136 12.6952 17.1255 12.655 17.078 12.6396Z" fill="#5159F6"/>
</svg>
