<svg width="24" height="24" viewBox="0 0 24 24" fill="none" xmlns="http://www.w3.org/2000/svg">
<path d="M18.4005 4.2352L20.7821 6.61679L12.6523 14.7471C12.1498 15.2496 11.5111 15.5939 10.815 15.7373L9.15287 16.0798C9.05453 16.1001 8.95838 16.0368 8.93812 15.9384C8.93312 15.9142 8.93313 15.8892 8.93813 15.865L9.28141 14.2017C9.42497 13.5061 9.7691 12.8678 10.2713 12.3656L18.4005 4.2352ZM21.6647 2.89928L21.6647 2.90052L22.1174 3.35378C22.6486 3.88698 22.6483 4.74983 22.1167 5.28268L21.6375 5.76142L19.2559 3.38074L19.737 2.8999C20.2689 2.3668 21.1322 2.3668 21.6647 2.89928Z" fill="#5159F6"/>
<path fill-rule="evenodd" clip-rule="evenodd" d="M8.66266 4.40901L13.4237 4.40901C13.8756 4.40901 14.2418 4.77529 14.2418 5.22711C14.2418 5.67894 13.8756 6.04521 13.4237 6.04521H8.69693C7.9198 6.04521 7.38615 6.04585 6.97246 6.07965C6.56832 6.11267 6.35122 6.17322 6.1941 6.25327C5.83492 6.43628 5.5429 6.72831 5.35988 7.08749C5.27983 7.24461 5.21928 7.4617 5.18626 7.86585C5.15246 8.27954 5.15183 8.81318 5.15183 9.59032V16.3169C5.15183 17.0941 5.15246 17.6277 5.18626 18.0414C5.21928 18.4455 5.27983 18.6626 5.35988 18.8197C5.5429 19.1789 5.83492 19.471 6.1941 19.654C6.35122 19.734 6.56832 19.7946 6.97246 19.8276C7.38615 19.8614 7.9198 19.862 8.69693 19.862H15.4235C16.2007 19.862 16.7343 19.8614 17.148 19.8276C17.5521 19.7946 17.7692 19.734 17.9264 19.654C18.2855 19.471 18.5776 19.1789 18.7606 18.8197C18.8406 18.6626 18.9012 18.4455 18.9342 18.0414C18.968 17.6277 18.9686 17.0941 18.9686 16.3169V11.5901C18.9686 11.1383 19.3349 10.772 19.7867 10.772C20.2386 10.772 20.6048 11.1383 20.6048 11.5901V16.3512C20.6048 17.0857 20.6049 17.6864 20.565 18.1746C20.5237 18.68 20.4356 19.1363 20.2184 19.5626C19.8786 20.2296 19.3362 20.7719 18.6692 21.1118C18.243 21.329 17.7866 21.4171 17.2812 21.4584C16.793 21.4982 16.1923 21.4982 15.4578 21.4982H8.66265C7.92813 21.4982 7.32742 21.4982 6.83922 21.4584C6.33389 21.4171 5.87751 21.329 5.45129 21.1118C4.78423 20.7719 4.2419 20.2296 3.90202 19.5626C3.68485 19.1363 3.59678 18.68 3.5555 18.1746C3.51561 17.6864 3.51562 17.0857 3.51563 16.3512V9.55604C3.51562 8.82152 3.51561 8.22081 3.5555 7.73261C3.59678 7.22728 3.68485 6.77089 3.90202 6.34467C4.2419 5.67762 4.78423 5.13529 5.45129 4.79541C5.87751 4.57824 6.33389 4.49017 6.83922 4.44888C7.32742 4.40899 7.92814 4.409 8.66266 4.40901Z" fill="#5159F6"/>
</svg>
