<svg width="20" height="20" viewBox="0 0 20 20" fill="none" xmlns="http://www.w3.org/2000/svg">
<path fill-rule="evenodd" clip-rule="evenodd" d="M9.99998 2.58331C10.4142 2.58331 10.75 2.9191 10.75 3.33331V11.5227L12.803 9.46965C13.0959 9.17676 13.5708 9.17676 13.8636 9.46965C14.1565 9.76254 14.1565 10.2374 13.8636 10.5303L10.5303 13.8636C10.2374 14.1565 9.76254 14.1565 9.46965 13.8636L6.13632 10.5303C5.84342 10.2374 5.84342 9.76254 6.13632 9.46965C6.42921 9.17676 6.90408 9.17676 7.19698 9.46965L9.24998 11.5227V3.33331C9.24998 2.9191 9.58577 2.58331 9.99998 2.58331ZM3.33331 12.5833C3.74753 12.5833 4.08331 12.9191 4.08331 13.3333V14.1666C4.08331 14.6308 4.26769 15.0759 4.59588 15.4041C4.92406 15.7323 5.36918 15.9166 5.83331 15.9166H14.1666C14.6308 15.9166 15.0759 15.7323 15.4041 15.4041C15.7323 15.0759 15.9166 14.6308 15.9166 14.1666V13.3333C15.9166 12.9191 16.2524 12.5833 16.6666 12.5833C17.0809 12.5833 17.4166 12.9191 17.4166 13.3333V14.1666C17.4166 15.0286 17.0742 15.8553 16.4647 16.4647C15.8553 17.0742 15.0286 17.4166 14.1666 17.4166H5.83331C4.97136 17.4166 4.14471 17.0742 3.53522 16.4647C2.92572 15.8553 2.58331 15.0286 2.58331 14.1666V13.3333C2.58331 12.9191 2.9191 12.5833 3.33331 12.5833Z" fill="#5159F6"/>
</svg>
