<svg width="24" height="24" viewBox="0 0 24 24" fill="none" xmlns="http://www.w3.org/2000/svg">
<path fill-rule="evenodd" clip-rule="evenodd" d="M14.2562 7.27873C14.3092 7.27873 14.3601 7.2998 14.3976 7.33731L16.6603 9.60005C16.7384 9.67815 16.7384 9.80479 16.6603 9.88289L7.62322 18.92C7.37942 19.1638 7.04876 19.3008 6.70398 19.3008H4.99688C4.83119 19.3008 4.69687 19.1665 4.69687 19.0008L4.69687 17.2937C4.69687 16.9489 4.83384 16.6182 5.07763 16.3744L14.1147 7.33731C14.1522 7.2998 14.2031 7.27873 14.2562 7.27873ZM17.7917 8.66868C17.7386 8.66868 17.6878 8.64761 17.6503 8.6101L15.3875 6.34736C15.3094 6.26925 15.3094 6.14262 15.3875 6.06451L16.5189 4.93314C16.8313 4.62072 17.3378 4.62072 17.6503 4.93314L19.0645 6.34736C19.3769 6.65978 19.3769 7.16631 19.0645 7.47873L17.9331 8.6101C17.8956 8.64761 17.8447 8.66868 17.7917 8.66868ZM18.6402 3.94319C17.7811 3.08404 16.3881 3.08404 15.5289 3.94319L4.08768 15.3845C3.58134 15.8908 3.29687 16.5776 3.29688 17.2937L3.29688 19.0008C3.29688 19.9397 4.05799 20.7008 4.99688 20.7008L6.70398 20.7008C7.42006 20.7008 8.10682 20.4163 8.61317 19.91L20.0544 8.46868C20.9136 7.60952 20.9136 6.21656 20.0544 5.35741L18.6402 3.94319Z" fill="#111539"/>
</svg>
