<svg width="24" height="24" viewBox="0 0 24 24" fill="none" xmlns="http://www.w3.org/2000/svg">
<path fill-rule="evenodd" clip-rule="evenodd" d="M5.30518 6.52883C5 7.12778 5 7.91185 5 9.48V14.52C5 16.0881 5 16.8722 5.30518 17.4712C5.57363 17.998 6.00197 18.4264 6.52883 18.6948C7.12778 19 7.91185 19 9.48 19H14.52C16.0881 19 16.8722 19 17.4712 18.6948C17.998 18.4264 18.4264 17.998 18.6948 17.4712C19 16.8722 19 16.0881 19 14.52V9.48C19 7.91185 19 7.12778 18.6948 6.52883C18.4264 6.00197 17.998 5.57363 17.4712 5.30518C16.8722 5 16.0881 5 14.52 5H9.48C7.91185 5 7.12778 5 6.52883 5.30518C6.00197 5.57363 5.57363 6.00197 5.30518 6.52883Z" fill="#5159F6"/>
</svg>
