<svg width="24" height="24" viewBox="0 0 24 24" fill="none" xmlns="http://www.w3.org/2000/svg">
<path d="M21.4342 10.7301L6.19351 2.20073C5.93957 2.05265 5.64715 1.98385 5.35382 2.00319C5.06049 2.02254 4.77964 2.12912 4.54734 2.30927C4.3101 2.49645 4.13785 2.75361 4.05504 3.04424C3.97224 3.33487 3.98309 3.64419 4.08605 3.92831L6.62767 11.0285C6.65338 11.0993 6.70004 11.1606 6.76143 11.2043C6.82283 11.2479 6.89606 11.2718 6.97137 11.2728H13.5018C13.6895 11.2698 13.8715 11.3381 14.0108 11.464C14.1501 11.59 14.2365 11.764 14.2525 11.9511C14.2587 12.0499 14.2446 12.1489 14.211 12.2419C14.1774 12.335 14.1251 12.4202 14.0573 12.4923C13.9894 12.5643 13.9076 12.6217 13.8167 12.6609C13.7258 12.7 13.6279 12.7201 13.5289 12.7199H6.97137C6.89606 12.7209 6.82283 12.7448 6.76143 12.7884C6.70004 12.8321 6.65338 12.8934 6.62767 12.9642L4.08605 20.0644C4.00979 20.2831 3.98681 20.5169 4.01902 20.7463C4.05123 20.9757 4.1377 21.1941 4.27126 21.3834C4.40481 21.5726 4.58159 21.7273 4.78691 21.8346C4.99224 21.9418 5.22019 21.9985 5.45183 22C5.69833 21.9989 5.94071 21.9367 6.15733 21.8191L21.4342 13.2626C21.658 13.1355 21.8441 12.9514 21.9736 12.7289C22.1031 12.5065 22.1713 12.2537 22.1713 11.9963C22.1713 11.739 22.1031 11.4862 21.9736 11.2637C21.8441 11.0413 21.658 10.8572 21.4342 10.7301Z" fill="white"/>
</svg>
