<svg width="24" height="24" viewBox="0 0 24 24" fill="none" xmlns="http://www.w3.org/2000/svg">
<path fill-rule="evenodd" clip-rule="evenodd" d="M2.09998 12C2.09998 6.53236 6.53236 2.09998 12 2.09998C17.4676 2.09998 21.9 6.53236 21.9 12C21.9 17.4676 17.4676 21.9 12 21.9C6.53236 21.9 2.09998 17.4676 2.09998 12ZM12 3.89998C16.4735 3.89998 20.1 7.52647 20.1 12C20.1 13.9125 19.4372 15.6702 18.3287 17.0559L6.94406 5.67127C8.32976 4.5628 10.0875 3.89998 12 3.89998ZM3.89998 12C3.89998 16.4735 7.52647 20.1 12 20.1C13.9125 20.1 15.6702 19.4372 17.0559 18.3287L5.67127 6.94406C4.5628 8.32976 3.89998 10.0875 3.89998 12Z" fill="#5159F6"/>
</svg>
