<svg width="32" height="32" viewBox="0 0 32 32" fill="none" xmlns="http://www.w3.org/2000/svg">
<rect width="32" height="32" rx="16" fill="#5159F6"/>
<path d="M14.9584 8.91699C18.2951 8.91699 21 11.6219 21 14.9587C21 16.3263 20.5456 17.5879 19.7794 18.6005L23.2559 22.0777C23.5814 22.4032 23.5814 22.9308 23.2559 23.2562C22.9305 23.5817 22.4029 23.5817 22.0774 23.2562L18.6002 19.7797C17.5876 20.5459 16.326 21.0003 14.9584 21.0003C11.6216 21.0003 8.91669 18.2954 8.91669 14.9587C8.91669 11.6219 11.6216 8.91699 14.9584 8.91699ZM14.9584 10.5837C12.5421 10.5837 10.5834 12.5424 10.5834 14.9587C10.5834 17.3749 12.5421 19.3337 14.9584 19.3337C17.3746 19.3337 19.3334 17.3749 19.3334 14.9587C19.3334 12.5424 17.3746 10.5837 14.9584 10.5837Z" fill="white"/>
</svg>
