<svg width="32" height="32" viewBox="0 0 32 32" fill="none" xmlns="http://www.w3.org/2000/svg">
<rect width="32" height="32" rx="16" fill="#63AFFF"/>
<path d="M14.9815 11.5556C14.9815 13.2431 13.6135 14.6111 11.926 14.6111C10.2384 14.6111 8.87041 13.2431 8.87041 11.5556C8.87041 9.86803 10.2384 8.5 11.926 8.5C13.6135 8.5 14.9815 9.86803 14.9815 11.5556Z" fill="white"/>
<path d="M23.1297 11.5556C23.1297 13.2431 21.7617 14.6111 20.0741 14.6111C18.3866 14.6111 17.0186 13.2431 17.0186 11.5556C17.0186 9.86803 18.3866 8.5 20.0741 8.5C21.7617 8.5 23.1297 9.86803 23.1297 11.5556Z" fill="white"/>
<path d="M20.0053 22.7593C19.466 22.7593 19.0556 22.2801 19.0556 21.7408C19.0556 21.0244 18.9499 20.3327 18.7533 19.6804C18.3474 18.3333 18.6672 16.6482 20.0741 16.6482C22.8866 16.6482 25.1667 18.9282 25.1667 21.7408C25.1667 22.3033 24.7107 22.7593 24.1482 22.7593H20.0053Z" fill="white"/>
<path d="M11.926 16.6482C14.7385 16.6482 17.0186 18.9282 17.0186 21.7408C17.0186 22.3033 16.5626 22.7593 16.0001 22.7593H7.85189C7.28938 22.7593 6.83337 22.3033 6.83337 21.7408C6.83337 18.9282 9.11341 16.6482 11.926 16.6482Z" fill="white"/>
</svg>
