<svg width="20" height="23" viewBox="0 0 20 23" fill="none" xmlns="http://www.w3.org/2000/svg">
<path d="M18.1665 13.1666C18.8108 13.1666 19.3332 13.6889 19.3332 14.3333V18.9999C19.3332 20.9329 17.7662 22.4999 15.8332 22.4999H4.1665C2.23351 22.4999 0.666504 20.9329 0.666504 18.9999V14.3333C0.666504 13.6889 1.18884 13.1666 1.83317 13.1666C2.4775 13.1666 2.99984 13.6889 2.99984 14.3333V18.9999C2.99984 19.6443 3.52217 20.1666 4.1665 20.1666H15.8332C16.4775 20.1666 16.9998 19.6443 16.9998 18.9999V14.3333C16.9998 13.6889 17.5222 13.1666 18.1665 13.1666ZM9.99984 0.333252L10.0224 0.333469C10.0496 0.333993 10.0768 0.335463 10.104 0.337879L9.99984 0.333252C10.0589 0.333252 10.1169 0.33764 10.1736 0.346108C10.1934 0.349151 10.2138 0.352738 10.234 0.356865C10.2597 0.361998 10.285 0.368058 10.31 0.374927C10.3282 0.380033 10.3462 0.385436 10.364 0.39128C10.3869 0.398728 10.41 0.40712 10.4327 0.416207C10.4534 0.424481 10.4736 0.433211 10.4936 0.442538C10.5177 0.453858 10.5415 0.466012 10.5648 0.47894C10.579 0.486667 10.5932 0.49496 10.6073 0.50358C10.6372 0.521924 10.6662 0.541491 10.6942 0.562284C10.7029 0.568631 10.7113 0.575084 10.7197 0.581667C10.7228 0.584168 10.7262 0.586853 10.7295 0.589555L10.8248 0.674961L16.0748 5.92496C16.5304 6.38057 16.5304 7.11926 16.0748 7.57488C15.6192 8.03049 14.8805 8.03049 14.4249 7.57488L11.1665 4.31625V14.9166C11.1665 15.5609 10.6442 16.0833 9.99984 16.0833C9.35551 16.0833 8.83317 15.5609 8.83317 14.9166V4.31625L5.5748 7.57488C5.11918 8.03049 4.38049 8.03049 3.92488 7.57488C3.46927 7.11926 3.46927 6.38057 3.92488 5.92496L9.17488 0.674961L9.27015 0.589555C9.27351 0.586853 9.2769 0.584168 9.2803 0.581502L9.17488 0.674961C9.21617 0.633668 9.25979 0.596117 9.30531 0.562309C9.33352 0.54149 9.36252 0.521924 9.3924 0.503664C9.40646 0.49496 9.42071 0.486667 9.4351 0.478702C9.45816 0.466012 9.48196 0.453858 9.50622 0.442515C9.52606 0.433211 9.54624 0.424481 9.56661 0.416348C9.58966 0.40712 9.61274 0.398728 9.63615 0.391056C9.65351 0.385436 9.67146 0.380033 9.68951 0.375071C9.71466 0.368058 9.73997 0.361998 9.76558 0.356778C9.7859 0.352738 9.80623 0.349151 9.82663 0.346106C9.84876 0.342716 9.87168 0.339979 9.8948 0.337916C9.92323 0.335429 9.95082 0.333951 9.97842 0.333447C9.98491 0.333322 9.99236 0.333252 9.99984 0.333252Z" fill="white"/>
</svg>
