<svg width="32" height="32" viewBox="0 0 32 32" fill="none" xmlns="http://www.w3.org/2000/svg">
<rect width="32" height="32" rx="16" fill="#B463E7"/>
<path fill-rule="evenodd" clip-rule="evenodd" d="M16 24C18.1217 24 20.1566 23.1571 21.6569 21.6569C23.1571 20.1566 24 18.1217 24 16C24 13.8783 23.1571 11.8434 21.6569 10.3431C20.1566 8.84285 18.1217 8 16 8C13.8783 8 11.8434 8.84285 10.3431 10.3431C8.84285 11.8434 8 13.8783 8 16C8 18.1217 8.84285 20.1566 10.3431 21.6569C11.8434 23.1571 13.8783 24 16 24ZM17 12C17 11.7348 16.8946 11.4804 16.7071 11.2929C16.5196 11.1054 16.2652 11 16 11C15.7348 11 15.4804 11.1054 15.2929 11.2929C15.1054 11.4804 15 11.7348 15 12V16C15.0001 16.2652 15.1055 16.5195 15.293 16.707L18.121 19.536C18.2139 19.6289 18.3242 19.7026 18.4456 19.7529C18.567 19.8032 18.6971 19.8291 18.8285 19.8291C18.9599 19.8291 19.09 19.8032 19.2114 19.7529C19.3328 19.7026 19.4431 19.6289 19.536 19.536C19.6289 19.4431 19.7026 19.3328 19.7529 19.2114C19.8032 19.09 19.8291 18.9599 19.8291 18.8285C19.8291 18.6971 19.8032 18.567 19.7529 18.4456C19.7026 18.3242 19.6289 18.2139 19.536 18.121L17 15.586V12Z" fill="white"/>
</svg>
