<svg width="70" height="70" viewBox="0 0 70 70" fill="none" xmlns="http://www.w3.org/2000/svg">
<circle cx="35" cy="35" r="35" fill="#4F6AFF"/>
<path fill-rule="evenodd" clip-rule="evenodd" d="M34.5785 23.333C31.9609 23.333 29.8389 25.455 29.8389 28.0726V33.1768C29.8389 35.7944 31.9609 37.9163 34.5785 37.9163C37.1961 37.9163 39.3181 35.7944 39.3181 33.1768V28.0726C39.3181 25.455 37.1961 23.333 34.5785 23.333Z" fill="white"/>
<path d="M26.3006 34.9997C25.4293 34.9997 24.7785 35.8099 25.1035 36.6183C26.456 39.9822 29.548 42.4596 33.2659 42.9369V45.3538C33.2659 46.0787 33.8535 46.6663 34.5784 46.6663C35.3033 46.6663 35.8909 46.0787 35.8909 45.3538V42.9369C39.609 42.4598 42.7012 39.9824 44.0538 36.6183C44.3788 35.8099 43.728 34.9997 42.8567 34.9997C42.2542 34.9997 41.7343 35.4008 41.4848 35.9492C40.2915 38.572 37.648 40.3955 34.5787 40.3955C31.5093 40.3955 28.8658 38.572 27.6726 35.9492C27.423 35.4008 26.9031 34.9997 26.3006 34.9997Z" fill="white"/>
</svg>
