<svg width="24" height="24" viewBox="0 0 24 24" fill="none" xmlns="http://www.w3.org/2000/svg">
<path fill-rule="evenodd" clip-rule="evenodd" d="M16.3637 4.36358C16.7152 4.01211 17.285 4.01211 17.6365 4.36358L21.6365 8.36358C21.988 8.71505 21.988 9.2849 21.6365 9.63637L17.6365 13.6364C17.285 13.9878 16.7152 13.9878 16.3637 13.6364C16.0122 13.2849 16.0122 12.7151 16.3637 12.3636L18.8273 9.89998H7.5001C5.51187 9.89998 3.9001 11.5118 3.9001 13.5C3.9001 15.4882 5.51187 17.1 7.5001 17.1H12.0001C12.4972 17.1 12.9001 17.5029 12.9001 18C12.9001 18.497 12.4972 18.9 12.0001 18.9H7.5001C4.51776 18.9 2.1001 16.4823 2.1001 13.5C2.1001 10.5176 4.51776 8.09998 7.5001 8.09998H18.8273L16.3637 5.63637C16.0122 5.2849 16.0122 4.71505 16.3637 4.36358Z" fill="#5159F6"/>
</svg>
