<svg width="32" height="32" viewBox="0 0 32 32" fill="none" xmlns="http://www.w3.org/2000/svg">
<rect width="32" height="32" rx="16" fill="#FBB019"/>
<path d="M15.809 24.75C14.2899 24.75 13.1167 23.9647 13.1167 22.5064H18.5013C18.5013 23.9647 17.3281 24.75 15.809 24.75ZM21.1882 17.7587C21.1882 19.2971 23.1154 19.6817 23.1154 20.451C23.1154 21.2202 22.7308 21.6048 21.1923 21.6048H10.4231C8.88462 21.6048 8.5 21.2202 8.5 20.451C8.5 19.6817 10.4231 19.2971 10.4231 17.7587V15.0663C10.4231 11.2202 11.9615 8.01923 15.0385 8.01923C15.0385 7.44231 15.4231 7.25 15.8077 7.25C16.1923 7.25 16.5769 7.44231 16.5769 8.01923C19.6538 8.01923 21.1882 11.2202 21.1882 15.0663V17.7587Z" fill="white"/>
</svg>
