<svg width="16" height="16" viewBox="0 0 16 16" fill="none" xmlns="http://www.w3.org/2000/svg">
<path fill-rule="evenodd" clip-rule="evenodd" d="M7.75928 1.3335C6.26351 1.3335 5.05095 2.54606 5.05095 4.04183V6.9585C5.05095 8.45427 6.26351 9.66683 7.75928 9.66683C9.25505 9.66683 10.4676 8.45427 10.4676 6.9585V4.04183C10.4676 2.54606 9.25505 1.3335 7.75928 1.3335Z" fill="#818C99"/>
<path d="M3.02906 8.00017C2.53119 8.00017 2.15927 8.46318 2.345 8.92511C3.11787 10.8473 4.88472 12.263 7.00924 12.5357V13.9168C7.00924 14.331 7.34502 14.6668 7.75924 14.6668C8.17345 14.6668 8.50924 14.331 8.50924 13.9168V12.5357C10.6339 12.2631 12.4008 10.8474 13.1737 8.92511C13.3595 8.46318 12.9876 8.00017 12.4897 8.00017C12.1454 8.00017 11.8483 8.22935 11.7057 8.54274C11.0238 10.0415 9.5133 11.0835 7.75937 11.0835C6.00545 11.0835 4.4949 10.0415 3.81303 8.54274C3.67045 8.22935 3.37336 8.00017 3.02906 8.00017Z" fill="#818C99"/>
</svg>
