<svg width="28" height="28" viewBox="0 0 28 28" fill="none" xmlns="http://www.w3.org/2000/svg">
<path fill-rule="evenodd" clip-rule="evenodd" d="M13.7186 2.33325C10.7535 2.33325 8.34982 4.73692 8.34982 7.70198V12.6577C8.34982 15.6228 10.7535 18.0265 13.7186 18.0265C16.6836 18.0265 19.0873 15.6228 19.0873 12.6577V7.70198C19.0873 4.73692 16.6836 2.33325 13.7186 2.33325ZM17.0224 12.6577V7.70198C17.0224 5.87733 15.5432 4.39815 13.7186 4.39815C11.8939 4.39815 10.4147 5.87733 10.4147 7.70198V12.6577C10.4147 14.4824 11.8939 15.9616 13.7186 15.9616C15.5432 15.9616 17.0224 14.4824 17.0224 12.6577Z" fill="#818C99"/>
<path d="M14.751 22.5165C18.9829 22.0817 22.429 19.0032 23.3953 14.9628C23.5279 14.4082 23.1858 13.8511 22.6312 13.7185C22.0767 13.5859 21.5196 13.9279 21.387 14.4825C20.5617 17.9339 17.4424 20.5043 13.7186 20.5043C9.99467 20.5043 6.87546 17.9339 6.05013 14.4825C5.91751 13.9279 5.36044 13.5859 4.80587 13.7185C4.2513 13.8511 3.90924 14.4082 4.04185 14.9628C5.00807 19.0032 8.45418 22.0817 12.6861 22.5165V24.6341C12.6861 25.2043 13.1483 25.6666 13.7186 25.6666C14.2888 25.6666 14.751 25.2043 14.751 24.6341V22.5165Z" fill="#818C99"/>
</svg>
