<svg width="24" height="24" viewBox="0 0 24 24" fill="none" xmlns="http://www.w3.org/2000/svg">
<path fill-rule="evenodd" clip-rule="evenodd" d="M14.5714 9.42592C14.5714 8.95243 14.9552 8.5686 15.4286 8.5686C16.3627 8.5686 17.23 8.8827 17.8683 9.5039C18.5103 10.1286 18.8572 11.0025 18.8572 11.9979C18.8572 12.4714 18.4734 12.8552 18 12.8552C17.5266 12.8552 17.1429 12.4714 17.1429 11.9979C17.1429 11.4105 16.9458 10.9984 16.6729 10.7328C16.3964 10.4637 15.978 10.2832 15.4286 10.2832C14.9552 10.2832 14.5714 9.8994 14.5714 9.42592Z" fill="#76787A"/>
<path fill-rule="evenodd" clip-rule="evenodd" d="M12.099 2.6664C11.3605 3.40508 11.1274 4.49324 11.1436 5.50672C10.4283 5.26844 9.66238 5.13933 8.85715 5.13933C4.732 5.13933 1.71429 8.08035 1.71429 12.1694C1.71429 14.1419 2.42036 16.607 3.60335 18.5887C4.76524 20.5351 6.56103 22.2858 8.85715 22.2858C9.99386 22.2858 11.0522 22.0285 12.0001 21.5703C12.9484 22.0286 14.0061 22.2858 15.1428 22.2858C17.439 22.2858 19.2348 20.5351 20.3967 18.5887C21.5797 16.607 22.2857 14.1419 22.2857 12.1694C22.2857 8.31929 19.6104 5.48696 15.8543 5.1691C16.1204 4.6484 16.2222 4.09789 16.2616 3.67698C16.3197 3.05545 16.2417 2.45756 16.1525 1.84332C15.5376 1.75624 14.9412 1.67595 14.3192 1.73415C13.6911 1.79293 12.7745 1.9908 12.099 2.6664ZM8.85715 6.85398C5.64897 6.85398 3.42858 9.05685 3.42858 12.1694C3.42858 13.7976 4.03204 15.9621 5.07524 17.7097C6.13954 19.4927 7.48661 20.5711 8.85715 20.5711C9.76694 20.5711 10.6025 20.3577 11.3469 19.9806C11.757 19.7729 12.243 19.7729 12.6531 19.9806C13.3982 20.3578 14.2331 20.5711 15.1429 20.5711C16.5134 20.5711 17.8605 19.4927 18.9248 17.7097C19.968 15.9621 20.5714 13.7976 20.5714 12.1694C20.5714 9.05685 18.351 6.85398 15.1429 6.85398C14.2433 6.85398 13.398 7.06755 12.6548 7.44453C12.2446 7.6526 11.758 7.65284 11.3476 7.4449C10.6024 7.0674 9.76689 6.85398 8.85715 6.85398ZM12.867 5.12942C13.3004 5.09864 13.7981 5.00444 14.1174 4.68513C14.4366 4.36582 14.5308 3.86798 14.5616 3.43455C14.1282 3.46532 13.6305 3.55953 13.3112 3.87883C12.992 4.19814 12.8978 4.69598 12.867 5.12942Z" fill="#76787A"/>
<path fill-rule="evenodd" clip-rule="evenodd" d="M15.4286 8.5686C14.9552 8.5686 14.5714 8.95243 14.5714 9.42592C14.5714 9.8994 14.9552 10.2832 15.4286 10.2832C15.978 10.2832 16.3964 10.4637 16.6729 10.7328C16.9458 10.9984 17.1429 11.4105 17.1429 11.9979C17.1429 12.4714 17.5266 12.8552 18 12.8552C18.4734 12.8552 18.8572 12.4714 18.8572 11.9979C18.8572 11.0025 18.5103 10.1286 17.8683 9.5039C17.23 8.8827 16.3627 8.5686 15.4286 8.5686Z" fill="#76787A"/>
</svg>
