<svg width="20" height="20" viewBox="0 0 20 20" fill="none" xmlns="http://www.w3.org/2000/svg">
<path d="M19 10C19 14.9706 14.9706 19 10 19C5.02944 19 1 14.9706 1 10C1 5.02944 5.02944 1 10 1C14.9706 1 19 5.02944 19 10Z" fill="#3B3B3D" stroke="#19191B" stroke-width="2"/>
<path d="M13.9472 6.05268C14.2401 6.34557 14.2401 6.82044 13.9472 7.11334L11.061 9.99967L13.9472 12.886C14.2157 13.1545 14.238 13.5759 14.0143 13.8699L13.9472 13.9467C13.6543 14.2396 13.1794 14.2396 12.8865 13.9467L10.0002 11.0605L7.11383 13.9467C6.82093 14.2396 6.34606 14.2396 6.05317 13.9467C5.76027 13.6538 5.76027 13.1789 6.05317 12.886L8.93933 9.99967L6.05317 7.11334C5.78468 6.84485 5.76231 6.42345 5.98604 6.12948L6.05317 6.05268C6.34606 5.75978 6.82093 5.75978 7.11383 6.05268L10.0002 8.93884L12.8865 6.05268C13.1794 5.75978 13.6543 5.75978 13.9472 6.05268Z" fill="white"/>
</svg>
