<svg width="16" height="16" viewBox="0 0 16 16" fill="none" xmlns="http://www.w3.org/2000/svg">
<path d="M11.4234 3.76856C11.6855 4.03073 11.7057 4.44326 11.4839 4.72856L11.4234 4.79707L4.15062 12.0698C3.88845 12.332 3.47592 12.3521 3.19062 12.1303L3.1221 12.0698L0.213013 9.16071C-0.0710044 8.87669 -0.0710044 8.41621 0.213013 8.13219C0.475183 7.87002 0.887715 7.84985 1.17302 8.07169L1.24153 8.13219L3.63636 10.5265L10.3948 3.76856C10.6788 3.48454 11.1393 3.48454 11.4234 3.76856ZM15.787 3.76856C16.0492 4.03073 16.0693 4.44326 15.8475 4.72856L15.787 4.79707L8.51426 12.0698C8.23024 12.3538 7.76976 12.3538 7.48574 12.0698C7.22357 11.8076 7.2034 11.3951 7.42524 11.1098L7.48574 11.0413L14.7585 3.76856C15.0425 3.48454 15.503 3.48454 15.787 3.76856Z" fill="#5159F6"/>
</svg>
