<svg width="16" height="16" viewBox="0 0 16 16" fill="none" xmlns="http://www.w3.org/2000/svg">
<path d="M3.1284 8.01176C3.4369 7.9452 3.74093 8.14133 3.80749 8.44982C4.21558 10.3413 5.89651 11.7143 7.85716 11.7143H8.14287C10.1033 11.7143 11.7841 10.3416 12.1924 8.45039C12.259 8.1419 12.5631 7.94582 12.8716 8.01242C13.18 8.07902 13.3761 8.38309 13.3095 8.69157C12.8182 10.9671 10.886 12.6531 8.57147 12.8399L8.57144 14.5714C8.57144 14.887 8.31561 15.1428 8.00001 15.1428C7.68442 15.1428 7.42859 14.887 7.42859 14.5714L7.42851 12.8399C5.11376 12.6531 3.18136 10.9667 2.69034 8.69085C2.62378 8.38235 2.81991 8.07832 3.1284 8.01176ZM8.00001 1.14282C9.57797 1.14282 10.8572 2.42201 10.8572 3.99997V7.42854C10.8572 9.00649 9.57797 10.2857 8.00001 10.2857C6.42206 10.2857 5.14287 9.00649 5.14287 7.42854V3.99997C5.14287 2.42201 6.42206 1.14282 8.00001 1.14282Z" fill="#A0A1B0"/>
</svg>
