<svg width="24" height="25" viewBox="0 0 24 25" fill="none" xmlns="http://www.w3.org/2000/svg">
<path d="M8.96167 5C9.49658 5 9.69055 5.0557 9.88611 5.16028C10.0817 5.26486 10.2351 5.41834 10.3397 5.61389C10.4443 5.80945 10.5 6.00342 10.5 6.53833V18.4617C10.5 18.9966 10.4443 19.1906 10.3397 19.3861C10.2351 19.5817 10.0817 19.7351 9.88611 19.8397C9.69055 19.9443 9.49658 20 8.96167 20H7.53833C7.00342 20 6.80945 19.9443 6.61389 19.8397C6.41834 19.7351 6.26486 19.5817 6.16028 19.3861C6.0557 19.1906 6 18.9966 6 18.4617V6.53833C6 6.00342 6.0557 5.80945 6.16028 5.61389C6.26486 5.41834 6.41834 5.26486 6.61389 5.16028C6.80945 5.0557 7.00342 5 7.53833 5H8.96167ZM16.4617 5C16.9966 5 17.1906 5.0557 17.3861 5.16028C17.5817 5.26486 17.7351 5.41834 17.8397 5.61389C17.9443 5.80945 18 6.00342 18 6.53833V18.4617C18 18.9966 17.9443 19.1906 17.8397 19.3861C17.7351 19.5817 17.5817 19.7351 17.3861 19.8397C17.1906 19.9443 16.9966 20 16.4617 20H15.0383C14.5034 20 14.3094 19.9443 14.1139 19.8397C13.9183 19.7351 13.7649 19.5817 13.6603 19.3861C13.5557 19.1906 13.5 18.9966 13.5 18.4617V6.53833C13.5 6.00342 13.5557 5.80945 13.6603 5.61389C13.7649 5.41834 13.9183 5.26486 14.1139 5.16028C14.3094 5.0557 14.5034 5 15.0383 5H16.4617Z" fill="white"/>
</svg>
