<svg width="20" height="20" viewBox="0 0 20 20" fill="none" xmlns="http://www.w3.org/2000/svg">
<path d="M12.0275 3.3962C12.2325 3.19118 12.5649 3.19118 12.7699 3.3962L16.6025 7.22874C16.7009 7.3272 16.7562 7.46073 16.7562 7.59997C16.7562 7.88992 16.5212 8.12497 16.2312 8.12497H14.8737L12.6237 10.375V15.0713C12.6237 15.2145 12.5668 15.3519 12.4655 15.4531C12.2546 15.664 11.9127 15.664 11.7018 15.4531L8.7865 12.5372L5.22541 16.0993C4.8593 16.4654 4.2657 16.4654 3.89959 16.0993C3.53347 15.7331 3.53347 15.1395 3.89959 14.7734L7.4605 11.2112L4.54552 8.29681C4.46451 8.21579 4.41189 8.11168 4.39409 7.99995L4.38736 7.91497C4.38736 7.61674 4.62913 7.37497 4.92736 7.37497H9.62368L11.8737 5.12497V3.76743C11.8737 3.62819 11.929 3.49466 12.0275 3.3962Z" fill="#A0A1B0"/>
</svg>
