<svg width="24" height="24" viewBox="0 0 24 24" fill="none" xmlns="http://www.w3.org/2000/svg">
<path d="M17.9992 10.1992C18.9933 10.1992 19.7992 11.0051 19.7992 11.9992C19.7992 12.9933 18.9933 13.7992 17.9992 13.7992C17.0051 13.7992 16.1992 12.9933 16.1992 11.9992C16.1992 11.0051 17.0051 10.1992 17.9992 10.1992ZM11.9992 10.1992C12.9933 10.1992 13.7992 11.0051 13.7992 11.9992C13.7992 12.9933 12.9933 13.7992 11.9992 13.7992C11.0051 13.7992 10.1992 12.9933 10.1992 11.9992C10.1992 11.0051 11.0051 10.1992 11.9992 10.1992ZM5.99922 10.1992C6.99333 10.1992 7.79922 11.0051 7.79922 11.9992C7.79922 12.9933 6.99333 13.7992 5.99922 13.7992C5.00511 13.7992 4.19922 12.9933 4.19922 11.9992C4.19922 11.0051 5.00511 10.1992 5.99922 10.1992Z" fill="#5159F6"/>
</svg>
