<svg width="28" height="28" viewBox="0 0 28 28" fill="none" xmlns="http://www.w3.org/2000/svg">
<path d="M21 11.8999C22.1598 11.8999 23.1 12.8401 23.1 13.9999C23.1 15.1597 22.1598 16.0999 21 16.0999C19.8402 16.0999 18.9 15.1597 18.9 13.9999C18.9 12.8401 19.8402 11.8999 21 11.8999ZM14 11.8999C15.1598 11.8999 16.1 12.8401 16.1 13.9999C16.1 15.1597 15.1598 16.0999 14 16.0999C12.8402 16.0999 11.9 15.1597 11.9 13.9999C11.9 12.8401 12.8402 11.8999 14 11.8999ZM7.00002 11.8999C8.15982 11.8999 9.10002 12.8401 9.10002 13.9999C9.10002 15.1597 8.15982 16.0999 7.00002 16.0999C5.84023 16.0999 4.90002 15.1597 4.90002 13.9999C4.90002 12.8401 5.84023 11.8999 7.00002 11.8999Z" fill="#5159F6"/>
</svg>
