<svg width="20" height="20" viewBox="0 0 20 20" fill="none" xmlns="http://www.w3.org/2000/svg">
<path fill-rule="evenodd" clip-rule="evenodd" d="M9.99998 2.58337C10.4142 2.58337 10.75 2.91916 10.75 3.33337V11.5227L12.803 9.46971C13.0959 9.17682 13.5708 9.17682 13.8636 9.46971C14.1565 9.7626 14.1565 10.2375 13.8636 10.5304L10.5303 13.8637C10.2374 14.1566 9.76254 14.1566 9.46965 13.8637L6.13632 10.5304C5.84342 10.2375 5.84342 9.7626 6.13632 9.46971C6.42921 9.17682 6.90408 9.17682 7.19698 9.46971L9.24998 11.5227V3.33337C9.24998 2.91916 9.58577 2.58337 9.99998 2.58337ZM3.33331 12.5834C3.74753 12.5834 4.08331 12.9192 4.08331 13.3334V14.1667C4.08331 14.6308 4.26769 15.076 4.59588 15.4041C4.92406 15.7323 5.36918 15.9167 5.83331 15.9167H14.1666C14.6308 15.9167 15.0759 15.7323 15.4041 15.4041C15.7323 15.076 15.9166 14.6308 15.9166 14.1667V13.3334C15.9166 12.9192 16.2524 12.5834 16.6666 12.5834C17.0809 12.5834 17.4166 12.9192 17.4166 13.3334V14.1667C17.4166 15.0287 17.0742 15.8553 16.4647 16.4648C15.8553 17.0743 15.0286 17.4167 14.1666 17.4167H5.83331C4.97136 17.4167 4.14471 17.0743 3.53522 16.4648C2.92572 15.8553 2.58331 15.0287 2.58331 14.1667V13.3334C2.58331 12.9192 2.9191 12.5834 3.33331 12.5834Z" fill="#6B72FF"/>
</svg>
