<svg width="16" height="16" viewBox="0 0 16 16" fill="none" xmlns="http://www.w3.org/2000/svg">
<path d="M9.6538 1.39764C9.85179 1.44328 10.027 1.51584 10.1992 1.62358C10.3715 1.73131 10.5111 1.8444 10.8762 2.20957L13.1237 4.45706C13.4889 4.82222 13.602 4.96176 13.7097 5.13403C13.8174 5.3063 13.89 5.48148 13.9356 5.67948C13.9813 5.87747 14 6.05611 14 6.57252V11.4361C14 12.3276 13.9071 12.6509 13.7328 12.9768C13.5585 13.3028 13.3027 13.5585 12.9768 13.7328C12.6509 13.9072 12.3276 14 11.4361 14H5.23051C4.33899 14 4.01571 13.9072 3.68978 13.7328C3.36385 13.5585 3.10807 13.3028 2.93376 12.9768C2.75945 12.6509 2.66663 12.3276 2.66663 11.4361V3.8972C2.66663 3.00568 2.75945 2.68239 2.93376 2.35647C3.10807 2.03054 3.36385 1.77475 3.68978 1.60045C4.01571 1.42614 4.33899 1.33331 5.23051 1.33331H8.76075C9.27717 1.33331 9.4558 1.35201 9.6538 1.39764ZM9.19996 2.61616C9.0895 2.61616 8.99996 2.7057 8.99996 2.81616V5.33333C8.99996 5.51742 9.1492 5.66666 9.33329 5.66666H11.8505C11.9035 5.66666 11.9544 5.64559 11.9919 5.60808C12.07 5.52998 12.07 5.40334 11.9919 5.32524L9.34138 2.67474C9.30387 2.63723 9.253 2.61616 9.19996 2.61616Z" fill="#A0A1B0"/>
</svg>
