<svg width="24" height="24" viewBox="0 0 24 24" fill="none" xmlns="http://www.w3.org/2000/svg">
<path fill-rule="evenodd" clip-rule="evenodd" d="M14.2593 7.47804L5.2222 16.5152C5.01591 16.7215 4.90002 17.0012 4.90002 17.293L4.90002 19.0001C4.90002 19.0553 4.94479 19.1001 5.00002 19.1001H6.70712C6.99886 19.1001 7.27865 18.9842 7.48494 18.7779L16.522 9.74079L14.2593 7.47804ZM15.5321 6.20525L17.7948 8.46799L18.9262 7.33662C19.1605 7.10231 19.1605 6.72241 18.9262 6.48809L17.512 5.07388C17.2777 4.83957 16.8978 4.83957 16.6635 5.07388L15.5321 6.20525ZM3.94941 15.2424L15.3907 3.80109C16.3279 2.86383 17.8475 2.86383 18.7848 3.80109L20.199 5.2153C21.1363 6.15256 21.1363 7.67216 20.199 8.60941L8.75774 20.0507C8.21388 20.5946 7.47625 20.9001 6.70713 20.9001L5.00002 20.9001C3.95068 20.9001 3.10002 20.0494 3.10002 19.0001L3.10002 17.293C3.10002 16.5239 3.40556 15.7862 3.94941 15.2424Z" fill="#5159F6"/>
</svg>
