<svg width="24" height="24" viewBox="0 0 24 24" fill="none" xmlns="http://www.w3.org/2000/svg">
<path fill-rule="evenodd" clip-rule="evenodd" d="M3.62764 12.1008C3.62764 7.42335 7.41945 3.63155 12.0969 3.63155C16.7743 3.63155 20.5661 7.42335 20.5661 12.1008C20.5661 16.7782 16.7743 20.57 12.0969 20.57C7.41945 20.57 3.62764 16.7782 3.62764 12.1008ZM12.0969 2.30078C6.68448 2.30078 2.29688 6.68839 2.29688 12.1008C2.29688 17.5132 6.68448 21.9008 12.0969 21.9008C17.5093 21.9008 21.8969 17.5132 21.8969 12.1008C21.8969 6.68839 17.5093 2.30078 12.0969 2.30078ZM12.7623 7.53347C12.7623 7.16599 12.4644 6.86809 12.0969 6.86809C11.7294 6.86809 11.4315 7.16599 11.4315 7.53347V12.862C11.4315 13.2295 11.7294 13.5274 12.0969 13.5274C12.4644 13.5274 12.7623 13.2295 12.7623 12.862V7.53347ZM12.0969 17.2293C12.617 17.2293 13.0387 16.8076 13.0387 16.2875C13.0387 15.7673 12.617 15.3456 12.0969 15.3456C11.5767 15.3456 11.155 15.7673 11.155 16.2875C11.155 16.8076 11.5767 17.2293 12.0969 17.2293Z" fill="#111539"/>
</svg>
