<svg width="24" height="24" viewBox="0 0 24 24" fill="none" xmlns="http://www.w3.org/2000/svg">
<path fill-rule="evenodd" clip-rule="evenodd" d="M12.1 3.83087C7.53304 3.83087 3.83078 7.53313 3.83078 12.1001C3.83078 16.6671 7.53304 20.3693 12.1 20.3693C16.667 20.3693 20.3692 16.6671 20.3692 12.1001C20.3692 7.53313 16.667 3.83087 12.1 3.83087ZM2.10001 12.1001C2.10001 6.57725 6.57716 2.1001 12.1 2.1001C17.6229 2.1001 22.1 6.57725 22.1 12.1001C22.1 17.6229 17.6229 22.1001 12.1 22.1001C6.57716 22.1001 2.10001 17.6229 2.10001 12.1001Z" fill="#111539"/>
<path fill-rule="evenodd" clip-rule="evenodd" d="M12.1 6.66741C12.5779 6.66741 12.9654 7.05485 12.9654 7.53279V12.8613C12.9654 13.3393 12.5779 13.7267 12.1 13.7267C11.6221 13.7267 11.2346 13.3393 11.2346 12.8613V7.53279C11.2346 7.05485 11.6221 6.66741 12.1 6.66741Z" fill="#111539"/>
<path d="M12.1 17.4286C12.7306 17.4286 13.2418 16.9174 13.2418 16.2868C13.2418 15.6562 12.7306 15.145 12.1 15.145C11.4694 15.145 10.9582 15.6562 10.9582 16.2868C10.9582 16.9174 11.4694 17.4286 12.1 17.4286Z" fill="#111539"/>
</svg>
