<svg width="28" height="28" viewBox="0 0 28 28" fill="none" xmlns="http://www.w3.org/2000/svg">
<path fill-rule="evenodd" clip-rule="evenodd" d="M9.05599 2.44995H18.944C19.8867 2.44994 20.6577 2.44993 21.2843 2.50112C21.9328 2.55411 22.5186 2.66714 23.0656 2.94587C23.9218 3.3821 24.6178 4.07816 25.0541 4.9343C25.3328 5.48133 25.4458 6.06709 25.4988 6.71566C25.55 7.34224 25.55 8.11324 25.55 9.05596V15.4439C25.55 16.3867 25.55 17.1577 25.4988 17.7842C25.4458 18.4328 25.3328 19.0186 25.0541 19.5656C24.6178 20.4217 23.9218 21.1178 23.0656 21.554C22.5186 21.8328 21.9328 21.9458 21.2843 21.9988C20.6577 22.05 19.8867 22.05 18.944 22.05H15.9644C15.1942 22.05 14.9548 22.0549 14.7352 22.1C14.5189 22.1444 14.3097 22.2178 14.1131 22.3182C13.9134 22.4202 13.7234 22.5659 13.122 23.047L10.3086 25.2977C10.0925 25.4707 9.8779 25.6424 9.69045 25.7663C9.51046 25.8853 9.17879 26.0858 8.75174 26.0863C8.25432 26.0868 7.78377 25.8606 7.47346 25.4719C7.20705 25.1381 7.1564 24.7539 7.13688 24.539C7.11655 24.3152 7.1166 24.0404 7.11664 23.7636L7.11664 22.0436C6.61521 22.0313 6.19937 21.9959 5.82235 21.8949C4.25218 21.4742 3.02574 20.2477 2.60502 18.6776C2.4492 18.0961 2.44951 17.4222 2.44993 16.4844C2.44996 16.4348 2.44998 16.3844 2.44998 16.3333L2.44998 9.05597C2.44997 8.11324 2.44996 7.34225 2.50115 6.71566C2.55414 6.06709 2.66717 5.48133 2.9459 4.9343C3.38212 4.07816 4.07818 3.3821 4.93432 2.94587C5.48136 2.66714 6.06712 2.55411 6.71568 2.50112C7.34227 2.44993 8.11326 2.44994 9.05599 2.44995ZM6.88669 4.59415C6.36799 4.63653 6.08936 4.71424 5.8877 4.81699C5.4267 5.05188 5.0519 5.42668 4.81701 5.88768C4.71426 6.08933 4.63656 6.36796 4.59418 6.88666C4.5508 7.41762 4.54998 8.10253 4.54998 9.09995V16.3333C4.54998 17.4859 4.559 17.8562 4.63346 18.1341C4.86 18.9795 5.5204 19.6399 6.36587 19.8665C6.64377 19.9409 7.01408 19.95 8.16665 19.95C8.74654 19.95 9.21665 20.4201 9.21665 21V23.482L11.8101 21.4072C11.8351 21.3872 11.8597 21.3675 11.884 21.3481C12.3812 20.95 12.7444 20.6592 13.1577 20.4481C13.5228 20.2616 13.9114 20.1253 14.313 20.0429C14.7676 19.9496 15.2329 19.9497 15.8698 19.9499C15.9009 19.9499 15.9324 19.95 15.9644 19.95H18.9C19.8974 19.95 20.5823 19.9491 21.1133 19.9058C21.632 19.8634 21.9106 19.7857 22.1123 19.6829C22.5732 19.448 22.9481 19.0732 23.1829 18.6122C23.2857 18.4106 23.3634 18.1319 23.4058 17.6132C23.4492 17.0823 23.45 16.3974 23.45 15.4V9.09995C23.45 8.10253 23.4492 7.41762 23.4058 6.88666C23.3634 6.36796 23.2857 6.08933 23.1829 5.88768C22.9481 5.42668 22.5732 5.05188 22.1123 4.81699C21.9106 4.71424 21.632 4.63653 21.1133 4.59415C20.5823 4.55077 19.8974 4.54995 18.9 4.54995H9.09998C8.10256 4.54995 7.41765 4.55077 6.88669 4.59415ZM7.11664 9.91662C7.11664 9.33672 7.58675 8.86662 8.16665 8.86662H14C14.5799 8.86662 15.05 9.33672 15.05 9.91662C15.05 10.4965 14.5799 10.9666 14 10.9666H8.16665C7.58675 10.9666 7.11664 10.4965 7.11664 9.91662ZM7.11664 14C7.11664 13.4201 7.58675 12.95 8.16665 12.95H17.5C18.0799 12.95 18.55 13.4201 18.55 14C18.55 14.5799 18.0799 15.05 17.5 15.05H8.16665C7.58675 15.05 7.11664 14.5799 7.11664 14Z" fill="#5159F6"/>
</svg>
