<svg width="41" height="40" viewBox="0 0 41 40" fill="none" xmlns="http://www.w3.org/2000/svg">
<path fill-rule="evenodd" clip-rule="evenodd" d="M11.4999 11C12.649 11 13.518 10.5919 14.1793 9.95708C14.6662 9.48962 15.035 8.88602 15.2876 8.47265L15.2877 8.4724C15.3269 8.40828 15.3633 8.34874 15.3969 8.295C15.6973 7.81425 15.9139 7.53093 16.179 7.3381C16.4045 7.17408 16.7725 7 17.4999 7H23.4999C24.2272 7 24.5952 7.17408 24.8207 7.3381C25.0859 7.53093 25.3024 7.81425 25.6029 8.295C25.6365 8.34881 25.6729 8.40843 25.7122 8.47264C25.9647 8.88601 26.3335 9.48962 26.8204 9.95708C27.4817 10.5919 28.3508 11 29.4999 11C30.9657 11 31.4796 11.0073 31.8778 11.0865C33.6629 11.4415 35.0583 12.837 35.4134 14.6221C35.4926 15.0203 35.4999 15.5341 35.4999 17V23.9C35.4999 25.6049 35.4987 26.7934 35.4231 27.7186C35.3489 28.6264 35.2107 29.1479 35.0094 29.543C34.578 30.3897 33.8896 31.0781 33.0428 31.5095C32.6478 31.7108 32.1263 31.8491 31.2185 31.9232C30.2933 31.9988 29.1048 32 27.3999 32H13.5971C11.8922 32 10.7037 31.9988 9.77849 31.9232C8.87073 31.8491 8.3492 31.7108 7.95417 31.5095C7.10744 31.0781 6.41903 30.3897 5.9876 29.543C5.78632 29.1479 5.64806 28.6264 5.57389 27.7186C5.49829 26.7934 5.49713 25.6049 5.49713 23.9V17.0027C5.49713 15.5342 5.50442 15.0194 5.58391 14.6205C5.9394 12.8367 7.33381 11.4423 9.11763 11.0868C9.51651 11.0073 10.0313 11 11.4999 11ZM17.4999 4C16.2272 4 15.2202 4.32592 14.4145 4.9119C13.6484 5.46907 13.1774 6.18575 12.8529 6.705C12.7983 6.79229 12.7484 6.87277 12.7021 6.94722C12.4308 7.38433 12.2885 7.61355 12.1017 7.79292C11.9817 7.90808 11.8508 8 11.4999 8L11.3259 7.99997C10.0973 7.99967 9.2598 7.99946 8.5313 8.14464C5.55826 8.73712 3.23425 11.0611 2.64176 14.0342C2.49658 14.7627 2.49679 15.6001 2.4971 16.8288L2.49713 17.0027V23.9L2.49713 23.9642C2.49711 25.5899 2.4971 26.9011 2.58385 27.9629C2.67318 29.0562 2.8619 30.0165 3.31458 30.9049C4.03363 32.3161 5.18098 33.4635 6.5922 34.1825C7.48063 34.6352 8.44092 34.8239 9.53419 34.9133C10.596 35 11.9072 35 13.5329 35H13.5971H27.3999H27.4641C29.0898 35 30.401 35 31.4628 34.9133C32.5561 34.8239 33.5164 34.6352 34.4048 34.1825C35.816 33.4635 36.9634 32.3161 37.6824 30.9049C38.1351 30.0165 38.3238 29.0562 38.4131 27.9629C38.4999 26.9011 38.4999 25.5899 38.4999 23.9642V23.9V17L38.4999 16.8263C38.5002 15.5999 38.5004 14.764 38.3558 14.0368C37.764 11.0616 35.4382 8.73591 32.463 8.14411C31.7358 7.99946 30.8999 7.99967 29.6735 7.99997L29.4999 8C29.149 8 29.018 7.90808 28.898 7.79292C28.7112 7.61355 28.5689 7.38434 28.2976 6.94725C28.2514 6.87279 28.2014 6.7923 28.1469 6.705C27.8223 6.18575 27.3514 5.46907 26.5853 4.9119C25.7795 4.32592 24.7725 4 23.4999 4H17.4999ZM24.9999 20.5C24.9999 22.9853 22.9852 25 20.4999 25C18.0146 25 15.9999 22.9853 15.9999 20.5C15.9999 18.0147 18.0146 16 20.4999 16C22.9852 16 24.9999 18.0147 24.9999 20.5ZM27.9999 20.5C27.9999 24.6421 24.642 28 20.4999 28C16.3577 28 12.9999 24.6421 12.9999 20.5C12.9999 16.3579 16.3577 13 20.4999 13C24.642 13 27.9999 16.3579 27.9999 20.5Z" fill="white"/>
</svg>
