<?xml version="1.0" encoding="UTF-8"?>
<svg width="24px" height="24px" viewBox="0 0 24 24" version="1.1" xmlns="http://www.w3.org/2000/svg" xmlns:xlink="http://www.w3.org/1999/xlink">
    <title>Group</title>
    <g id="Page-1" stroke="none" stroke-width="1" fill="none" fill-rule="evenodd">
        <g id="Group" fill="#969A9F">
            <path d="M14.3838157,5.45454766 C13.0764683,5.45454766 11.8227452,5.97391814 10.8983317,6.89833166 C9.97391814,7.82274519 9.45454766,9.0764683 9.45454766,10.3838157 C9.45454766,11.0311864 9.582063,11.6721571 9.82972398,12.2701701 C10.0774819,12.8682801 10.440537,13.4116991 10.8983317,13.8693968 C11.3560293,14.3270944 11.8994483,14.6902465 12.4974614,14.9379075 C13.0955714,15.1856654 13.736542,15.3131808 14.3838157,15.3131808 C15.0311864,15.3131808 15.6721571,15.1856654 16.2701701,14.9379075 C16.8682801,14.6902465 17.4116991,14.3270944 17.8693968,13.8693968 C18.3270944,13.4116991 18.6902465,12.8682801 18.9379075,12.2701701 C19.1856654,11.6721571 19.3131808,11.0311864 19.3131808,10.3838157 C19.3131808,9.07656527 18.7938103,7.82274519 17.8693968,6.89833166 C16.9449832,5.97391814 15.6911632,5.45454766 14.3838157,5.45454766 Z M9.86977253,5.86977253 C11.0669622,4.67258284 12.6907223,4 14.3838157,4 C16.0769092,4 17.7006692,4.67258284 18.8979559,5.86977253 C20.0951456,7.06696222 20.7677284,8.69072226 20.7677284,10.3838157 C20.7677284,11.222217 20.6025888,12.0522789 20.2817156,12.826874 C20.0541274,13.3764021 19.7512905,13.8903423 19.3828051,14.354246 L23.7869815,18.7585193 C24.0710062,19.042544 24.0710062,19.5029568 23.7869815,19.7869815 C23.5029568,20.0710062 23.042544,20.0710062 22.7585193,19.7869815 L18.354246,15.3828051 C17.8903423,15.7512905 17.3764021,16.0541274 16.826874,16.2817156 C16.0522789,16.6025888 15.222217,16.7677284 14.3838157,16.7677284 C13.5455114,16.7677284 12.7153526,16.6025888 11.9408545,16.2817156 C11.1663563,15.9609393 10.4625492,15.4907326 9.86977253,14.8979559 C9.27699587,14.3050823 8.8067891,13.6013721 8.48591589,12.826874 C8.16513964,12.0522789 8,11.222217 8,10.3838157 C8,8.69072226 8.67258284,7.06696222 9.86977253,5.86977253 Z" id="Shape"></path>
        </g>
    </g>
</svg>