<svg width="24" height="24" viewBox="0 0 24 24" fill="none" xmlns="http://www.w3.org/2000/svg">
<path fill-rule="evenodd" clip-rule="evenodd" d="M18.6536 8.37148H19.462C19.9623 8.37148 20.3679 7.96591 20.3679 7.4656V6.21434C20.3679 5.02298 19.4021 4.0572 18.2107 4.0572H16.68L16.6223 3.95724C16.2082 3.24042 15.4348 2.77148 14.5679 2.77148H9.425C8.55807 2.77148 7.78469 3.24042 7.3706 3.95724L7.31286 4.0572H5.78214C4.59079 4.0572 3.625 5.02298 3.625 6.21434V7.4656C3.625 7.96591 4.03058 8.37148 4.53088 8.37148H5.33929V17.5715C5.33929 19.5913 6.97664 21.2286 8.99643 21.2286H14.9964C17.0162 21.2286 18.6536 19.5913 18.6536 17.5715V8.37148ZM19.0536 7.0572H4.93929V6.21434C4.93929 5.74884 5.31665 5.37148 5.78214 5.37148H7.76472C8.06456 5.37148 8.32638 5.16852 8.40112 4.87814C8.52021 4.41545 8.94003 4.08577 9.425 4.08577H14.5679C15.0528 4.08577 15.4726 4.41545 15.5917 4.87814C15.6665 5.16852 15.9283 5.37148 16.2281 5.37148H18.2107C18.6762 5.37148 19.0536 5.74884 19.0536 6.21434V7.0572ZM6.65357 8.37148H17.3393V17.5715C17.3393 18.8654 16.2904 19.9143 14.9964 19.9143H8.99643C7.7025 19.9143 6.65357 18.8654 6.65357 17.5715V8.37148Z" fill="#FA4C56"/>
</svg>
