<svg width="24" height="24" viewBox="0 0 24 24" fill="none" xmlns="http://www.w3.org/2000/svg">
<path d="M18.8571 8.57129V17.5713C18.8571 19.7015 17.1302 21.4284 15 21.4284H8.99999C6.86975 21.4284 5.14284 19.7015 5.14284 17.5713V8.57129H4.53444C3.92368 8.57129 3.42856 8.07617 3.42856 7.46541V6.21415C3.42856 4.91233 4.48389 3.857 5.7857 3.857H7.20098C7.64987 3.07993 8.48835 2.57129 9.42856 2.57129H14.5714C15.5116 2.57129 16.3501 3.07993 16.799 3.857H18.2143C19.5161 3.857 20.5714 4.91233 20.5714 6.21415V7.46541C20.5714 8.07617 20.0763 8.57129 19.4655 8.57129H18.8571ZM18 6.857H18.8571V6.21415C18.8571 5.85911 18.5693 5.57129 18.2143 5.57129H16.2317C15.8406 5.57129 15.4991 5.30655 15.4016 4.9278C15.3052 4.55309 14.9647 4.28557 14.5714 4.28557H9.42856C9.03525 4.28557 8.69481 4.55309 8.59837 4.9278C8.50088 5.30655 8.15938 5.57129 7.76828 5.57129H5.7857C5.43066 5.57129 5.14284 5.85911 5.14284 6.21415V6.857H5.99999H18ZM6.85713 8.57129V17.5713C6.85713 18.7548 7.81652 19.7141 8.99999 19.7141H15C16.1835 19.7141 17.1428 18.7548 17.1428 17.5713V8.57129H6.85713Z" fill="#FA4C56"/>
</svg>
