<svg width="16" height="16" viewBox="0 0 16 16" fill="none" xmlns="http://www.w3.org/2000/svg">
<path fill-rule="evenodd" clip-rule="evenodd" d="M5.34693 2.85693H7.79585C8.41516 2.85693 8.91468 2.85692 9.31918 2.88997C9.73566 2.924 10.1015 2.99589 10.4399 3.16834C10.9775 3.44227 11.4146 3.87936 11.6886 4.41696C11.8207 4.67624 11.8938 4.95159 11.936 5.25347L12.1859 5.09142C12.3579 4.97989 12.5299 4.86836 12.7018 4.75674C12.8383 4.66815 12.9988 4.5639 13.1437 4.48774C13.289 4.41135 13.5971 4.26204 13.99 4.28866C14.4367 4.31892 14.8489 4.54176 15.1187 4.90021C15.3561 5.21568 15.3987 5.55624 15.4137 5.71971C15.4287 5.88266 15.4286 6.07406 15.4285 6.23642V9.76316C15.4286 9.92552 15.4287 10.1169 15.4137 10.2799C15.3987 10.4433 15.3561 10.7839 15.1187 11.0994C14.8489 11.4578 14.4368 11.6807 13.99 11.7109C13.5971 11.7375 13.289 11.5882 13.1437 11.5118C12.9988 11.4357 12.8383 11.3314 12.7018 11.2428C12.5294 11.1309 12.357 11.0191 12.1845 10.9073L11.936 10.7461C11.8938 11.048 11.8207 11.3233 11.6886 11.5826C11.4146 12.1202 10.9775 12.5573 10.4399 12.8312C10.1015 13.0037 9.73566 13.0756 9.31918 13.1096C8.91468 13.1427 8.41517 13.1427 7.79587 13.1426H5.34692C4.72762 13.1427 4.22811 13.1427 3.82361 13.1096C3.40712 13.0756 3.0413 13.0037 2.70285 12.8312C2.16524 12.5573 1.72816 12.1202 1.45423 11.5826C1.28178 11.2442 1.20989 10.8783 1.17586 10.4619C1.14281 10.0574 1.14282 9.55784 1.14282 8.93854V7.06104C1.14282 6.44174 1.14281 5.94222 1.17586 5.53772C1.20989 5.12123 1.28178 4.75541 1.45423 4.41696C1.72816 3.87936 2.16524 3.44227 2.70285 3.16834C3.0413 2.99589 3.40712 2.924 3.82361 2.88997C4.22811 2.85692 4.72763 2.85693 5.34693 2.85693ZM12 8.93855V7.06103V6.57422L13.2969 5.73298C13.6187 5.52425 13.7796 5.41988 13.9128 5.4289C14.0288 5.43676 14.1357 5.49464 14.2055 5.58744C14.2857 5.69395 14.2857 5.88545 14.2857 6.26846V9.73112C14.2857 10.1141 14.2857 10.3056 14.2055 10.4121C14.1357 10.5049 14.0288 10.5628 13.9128 10.5707C13.7796 10.5797 13.6187 10.4753 13.2969 10.2666L12 9.42537V8.93855ZM3.91667 4.02903C3.57086 4.05729 3.37218 4.10996 3.2217 4.18664C2.89913 4.35099 2.63688 4.61324 2.47253 4.93581C2.39585 5.0863 2.34318 5.28498 2.31492 5.63079C2.28612 5.98327 2.28568 6.43602 2.28568 7.08551V8.91408C2.28568 9.56357 2.28612 10.0163 2.31492 10.3688C2.34318 10.7146 2.39585 10.9133 2.47253 11.0638C2.63688 11.3863 2.89913 11.6486 3.2217 11.8129C3.37218 11.8896 3.57086 11.9423 3.91667 11.9705C4.26916 11.9993 4.7219 11.9998 5.37139 11.9998H7.77139C8.42088 11.9998 8.87363 11.9993 9.22611 11.9705C9.57192 11.9423 9.7706 11.8896 9.92109 11.8129C10.2437 11.6486 10.5059 11.3863 10.6703 11.0638C10.7469 10.9133 10.7996 10.7146 10.8279 10.3688C10.8567 10.0163 10.8571 9.56357 10.8571 8.91408V7.08551C10.8571 6.43602 10.8567 5.98327 10.8279 5.63079C10.7996 5.28498 10.7469 5.0863 10.6703 4.93581C10.5059 4.61324 10.2437 4.35099 9.92109 4.18664C9.7706 4.10996 9.57192 4.05729 9.22611 4.02903C8.87363 4.00024 8.42088 3.99979 7.77139 3.99979H5.37139C4.72191 3.99979 4.26916 4.00024 3.91667 4.02903Z" fill="white"/>
</svg>
