<svg width="16" height="16" viewBox="0 0 16 16" fill="none" xmlns="http://www.w3.org/2000/svg">
<path d="M7.74247 15.0003C6.52915 15.0003 5.5921 14.3731 5.5921 13.2084H9.89284C9.89284 14.3731 8.95578 15.0003 7.74247 15.0003ZM13.0529 12.3642L13.0527 12.3642L4.22765 3.53923L4.2282 3.53818L2.57873 1.88848C2.29964 1.60935 2.29967 1.15682 2.5788 0.877724L2.58055 0.875978C2.8619 0.596609 3.31622 0.597437 3.59655 0.877831L5.10721 2.38884C5.64859 1.91175 6.32187 1.63731 7.12705 1.63731C7.12705 1.17652 7.43425 1.02292 7.74144 1.02292C8.04864 1.02292 8.35583 1.17652 8.35583 1.63731C10.8134 1.63731 12.0389 4.19395 12.0389 7.26591V9.32212L14.6954 11.9792C14.9753 12.2592 14.9752 12.713 14.6953 12.993C14.4154 13.2729 13.9616 13.2729 13.6817 12.993L13.6817 12.9929L13.0529 12.3642ZM11.1493 12.4882H3.4407C2.21192 12.4882 1.90472 12.181 1.90472 11.5666C1.90472 10.9523 3.4407 10.6451 3.4407 9.41628V7.26591C3.4407 6.47299 3.52257 5.71441 3.6863 5.02526L11.1493 12.4882Z" fill="#969A9F"/>
</svg>
