<svg width="24" height="24" viewBox="0 0 24 24" fill="none" xmlns="http://www.w3.org/2000/svg">
<path fill-rule="evenodd" clip-rule="evenodd" d="M12 2C12.5021 2 12.9091 2.40701 12.9091 2.90909V14.3507L15.9026 11.3572C16.2577 11.0022 16.8333 11.0022 17.1883 11.3572C17.5433 11.7122 17.5433 12.2878 17.1883 12.6428L12.6428 17.1883C12.2878 17.5433 11.7122 17.5433 11.3572 17.1883L6.81172 12.6428C6.4567 12.2878 6.4567 11.7122 6.81172 11.3572C7.16674 11.0022 7.74235 11.0022 8.09737 11.3572L11.0909 14.3507V2.90909C11.0909 2.40701 11.4979 2 12 2ZM2.90909 15.6364C3.41117 15.6364 3.81818 16.0434 3.81818 16.5455V17.6818C3.81818 18.3449 4.08157 18.9807 4.55042 19.4496C5.01926 19.9184 5.65514 20.1818 6.31818 20.1818H17.6818C18.3449 20.1818 18.9807 19.9184 19.4496 19.4496C19.9184 18.9807 20.1818 18.3449 20.1818 17.6818V16.5455C20.1818 16.0434 20.5888 15.6364 21.0909 15.6364C21.593 15.6364 22 16.0434 22 16.5455V17.6818C22 18.8271 21.5451 19.9254 20.7352 20.7352C19.9254 21.5451 18.8271 22 17.6818 22H6.31818C5.17293 22 4.07458 21.5451 3.26477 20.7352C2.45495 19.9254 2 18.8271 2 17.6818V16.5455C2 16.0434 2.40701 15.6364 2.90909 15.6364Z" fill="#5159F6"/>
</svg>
