<svg width="16" height="16" viewBox="0 0 16 16" fill="none" xmlns="http://www.w3.org/2000/svg">
<path fill-rule="evenodd" clip-rule="evenodd" d="M5.34693 2.85712H7.79586C8.41516 2.85711 8.91468 2.85711 9.31918 2.89016C9.73566 2.92418 10.1015 2.99608 10.4399 3.16853C10.9775 3.44245 11.4146 3.87954 11.6886 4.41714C11.8207 4.67643 11.8938 4.95177 11.936 5.25365L12.1859 5.09161C12.3579 4.98008 12.5299 4.86855 12.7018 4.75692C12.8383 4.66834 12.9988 4.56409 13.1437 4.48793C13.289 4.41154 13.5971 4.26222 13.99 4.28884C14.4367 4.3191 14.8489 4.54194 15.1187 4.9004C15.3561 5.21587 15.3987 5.55643 15.4137 5.7199C15.4287 5.88285 15.4286 6.07424 15.4285 6.23661V9.76334C15.4286 9.92571 15.4287 10.1171 15.4137 10.2801C15.3987 10.4435 15.3561 10.7841 15.1187 11.0996C14.8489 11.458 14.4368 11.6808 13.99 11.7111C13.5971 11.7377 13.289 11.5884 13.1437 11.512C12.9988 11.4359 12.8383 11.3316 12.7018 11.243C12.5294 11.1311 12.357 11.0193 12.1845 10.9075L11.936 10.7463C11.8938 11.0482 11.8207 11.3235 11.6886 11.5828C11.4146 12.1204 10.9775 12.5575 10.4399 12.8314C10.1015 13.0039 9.73566 13.0758 9.31918 13.1098C8.91468 13.1428 8.41517 13.1428 7.79587 13.1428H5.34692C4.72762 13.1428 4.22811 13.1428 3.82361 13.1098C3.40712 13.0758 3.0413 13.0039 2.70285 12.8314C2.16524 12.5575 1.72816 12.1204 1.45423 11.5828C1.28178 11.2444 1.20989 10.8785 1.17586 10.462C1.14281 10.0575 1.14282 9.55803 1.14282 8.93872V7.06123C1.14282 6.44192 1.14281 5.94241 1.17586 5.5379C1.20989 5.12142 1.28178 4.7556 1.45423 4.41714C1.72816 3.87954 2.16524 3.44245 2.70285 3.16853C3.0413 2.99608 3.40712 2.92418 3.82361 2.89016C4.22811 2.85711 4.72763 2.85711 5.34693 2.85712Z" fill="#A0A1B0"/>
</svg>
