<svg width="34" height="34" viewBox="0 0 34 34" fill="none" xmlns="http://www.w3.org/2000/svg">
<circle cx="17" cy="17" r="17" fill="#5159F6"/>
<path d="M26.4342 15.7301L11.1935 7.20073C10.9396 7.05265 10.6472 6.98385 10.3538 7.00319C10.0605 7.02254 9.77964 7.12912 9.54734 7.30927C9.3101 7.49645 9.13785 7.75361 9.05504 8.04424C8.97224 8.33487 8.98309 8.64419 9.08605 8.92831L11.6277 16.0285C11.6534 16.0993 11.7 16.1606 11.7614 16.2043C11.8228 16.2479 11.8961 16.2718 11.9714 16.2728H18.5018C18.6895 16.2698 18.8715 16.3381 19.0108 16.464C19.1501 16.59 19.2365 16.764 19.2525 16.9511C19.2587 17.0499 19.2446 17.1489 19.211 17.2419C19.1774 17.335 19.1251 17.4202 19.0573 17.4923C18.9894 17.5643 18.9076 17.6217 18.8167 17.6609C18.7258 17.7 18.6279 17.7201 18.5289 17.7199H11.9714C11.8961 17.7209 11.8228 17.7448 11.7614 17.7884C11.7 17.8321 11.6534 17.8934 11.6277 17.9642L9.08605 25.0644C9.00979 25.2831 8.98681 25.5169 9.01902 25.7463C9.05123 25.9757 9.1377 26.1941 9.27126 26.3834C9.40481 26.5726 9.58159 26.7273 9.78691 26.8346C9.99224 26.9418 10.2202 26.9985 10.4518 27C10.6983 26.9989 10.9407 26.9367 11.1573 26.8191L26.4342 18.2626C26.658 18.1355 26.8441 17.9514 26.9736 17.7289C27.1031 17.5065 27.1713 17.2537 27.1713 16.9963C27.1713 16.739 27.1031 16.4862 26.9736 16.2637C26.8441 16.0413 26.658 15.8572 26.4342 15.7301Z" fill="white"/>
</svg>
