<svg width="40" height="40" viewBox="0 0 40 40" fill="none" xmlns="http://www.w3.org/2000/svg">
<circle cx="20" cy="20" r="20" fill="#232324"/>
<path fill-rule="evenodd" clip-rule="evenodd" d="M19.9999 11.8999C20.497 11.8999 20.8999 12.3028 20.8999 12.7999V19.0999L27.1999 19.0999C27.697 19.0999 28.0999 19.5028 28.0999 19.9999C28.0999 20.497 27.697 20.8999 27.1999 20.8999L20.8999 20.8999V27.1999C20.8999 27.697 20.497 28.0999 19.9999 28.0999C19.5029 28.0999 19.0999 27.697 19.0999 27.1999V20.8999H12.7999C12.3028 20.8999 11.8999 20.497 11.8999 19.9999C11.8999 19.5028 12.3028 19.0999 12.7999 19.0999H19.0999V12.7999C19.0999 12.3028 19.5029 11.8999 19.9999 11.8999Z" fill="#6B72FF"/>
</svg>
