<svg width="40" height="40" viewBox="0 0 40 40" fill="none" xmlns="http://www.w3.org/2000/svg">
<circle cx="20" cy="20" r="20" fill="#F1F2F6"/>
<path fill-rule="evenodd" clip-rule="evenodd" d="M20.0001 11.8999C20.4971 11.8999 20.9001 12.3028 20.9001 12.7999V19.0999L27.2 19.0999C27.6971 19.0999 28.1 19.5028 28.1 19.9999C28.1 20.497 27.6971 20.8999 27.2 20.8999L20.9001 20.8999V27.1999C20.9001 27.697 20.4971 28.0999 20.0001 28.0999C19.503 28.0999 19.1001 27.697 19.1001 27.1999V20.8999H12.8C12.303 20.8999 11.9 20.497 11.9 19.9999C11.9 19.5028 12.303 19.0999 12.8 19.0999H19.1001V12.7999C19.1001 12.3028 19.503 11.8999 20.0001 11.8999Z" fill="#5159F6"/>
</svg>
