<?xml version="1.0" encoding="UTF-8"?>
<svg width="32px" height="32px" viewBox="0 0 32 32" version="1.1" xmlns="http://www.w3.org/2000/svg" xmlns:xlink="http://www.w3.org/1999/xlink">
    <title>cancel</title>
    <g id="Page-1" stroke="none" stroke-width="1" fill="none" fill-rule="evenodd">
        <g id="cancel" fill="#969A9F" fill-rule="nonzero">
            <path d="M16,4 C22.6274,4 28,9.37258 28,16 C28,22.6274 22.6274,28 16,28 C9.37258,28 4,22.6274 4,16 C4,9.37258 9.37258,4 16,4 Z M20.7364,11.2636 C20.3849,10.91213 19.8151,10.91213 19.4636,11.2636 L15.9999967,14.727 L12.53639,11.2636 L12.44423,11.18305 C12.09146,10.91457 11.58578,10.94142 11.2636,11.2636 L11.18305,11.35576 C10.91457,11.70853 10.94142,12.21421 11.2636,12.53639 L14.727,15.9999967 L11.2636,19.4636 C10.91213,19.8151 10.91213,20.3849 11.2636,20.7364 C11.61507,21.0879 12.18492,21.0879 12.53639,20.7364 L15.9999967,17.273 L19.4636,20.7364 L19.5558,20.8169 C19.9085,21.0854 20.4142,21.0586 20.7364,20.7364 L20.8169,20.6442 C21.0854,20.2915 21.0586,19.7858 20.7364,19.4636 L17.273,15.9999967 L20.7364,12.53639 C21.0879,12.18492 21.0879,11.61507 20.7364,11.2636 Z" id="Shape"></path>
        </g>
    </g>
</svg>