<svg width="16" height="16" viewBox="0 0 16 16" fill="none" xmlns="http://www.w3.org/2000/svg">
<path fill-rule="evenodd" clip-rule="evenodd" d="M2.6665 3.3335C2.6665 2.22893 3.56194 1.3335 4.6665 1.3335H11.3332C12.4378 1.3335 13.3332 2.22893 13.3332 3.3335V12.6668C13.3332 13.7714 12.4378 14.6668 11.3332 14.6668H4.6665C3.56194 14.6668 2.6665 13.7714 2.6665 12.6668V3.3335ZM4.6665 9.50016C4.6665 9.22403 4.89036 9.00016 5.1665 9.00016H10.8332C11.1093 9.00016 11.3332 9.22403 11.3332 9.50016C11.3332 9.7763 11.1093 10.0002 10.8332 10.0002H5.1665C4.89036 10.0002 4.6665 9.7763 4.6665 9.50016ZM5.1665 11.3335C4.89036 11.3335 4.6665 11.5574 4.6665 11.8335C4.6665 12.1096 4.89036 12.3335 5.1665 12.3335H8.1665C8.44264 12.3335 8.6665 12.1096 8.6665 11.8335C8.6665 11.5574 8.44264 11.3335 8.1665 11.3335H5.1665Z" fill="#818C99"/>
</svg>
