<?xml version="1.0" encoding="UTF-8"?>
<svg width="42px" height="42px" viewBox="0 0 42 42" version="1.1" xmlns="http://www.w3.org/2000/svg" xmlns:xlink="http://www.w3.org/1999/xlink">
    <title>Lock</title>
    <g id="Page-1" stroke="none" stroke-width="1" fill="none" fill-rule="evenodd">
        <g id="Lock">
            <rect id="Rectangle" fill="#FFFFFF" fill-rule="nonzero" x="0" y="0" width="42" height="42" rx="21"></rect>
            <path d="M14.3052,15.5288 C14,16.1278 14,16.9119 14,18.48 L14,23.52 C14,25.0881 14,25.8722 14.3052,26.4712 C14.5736,26.998 15.002,27.4264 15.5288,27.6948 C16.1278,28 16.9119,28 18.48,28 L23.52,28 C25.0881,28 25.8722,28 26.4712,27.6948 C26.998,27.4264 27.4264,26.998 27.6948,26.4712 C28,25.8722 28,25.0881 28,23.52 L28,18.48 C28,16.9119 28,16.1278 27.6948,15.5288 C27.4264,15.002 26.998,14.5736 26.4712,14.3052 C25.8722,14 25.0881,14 23.52,14 L18.48,14 C16.9119,14 16.1278,14 15.5288,14.3052 C15.002,14.5736 14.5736,15.002 14.3052,15.5288 Z" id="Path" fill="#5159F6"></path>
        </g>
    </g>
</svg>