<svg width="24" height="24" viewBox="0 0 24 24" fill="none" xmlns="http://www.w3.org/2000/svg">
<path fill-rule="evenodd" clip-rule="evenodd" d="M16.5158 2.9496C17.7279 1.69769 19.7305 1.6815 20.9627 2.91364C22.1611 4.11203 22.1834 6.048 21.0129 7.27368L18.4507 9.95676C18.3441 10.0684 18.2877 10.1279 18.2484 10.174C18.2367 10.1878 18.2296 10.1968 18.2258 10.2018C18.2232 10.2084 18.2213 10.2152 18.2202 10.2221C18.2209 10.2284 18.2224 10.2398 18.2255 10.2576C18.2357 10.3173 18.2539 10.3972 18.2886 10.5477L19.8819 17.4519C19.8864 17.4716 19.8911 17.4916 19.8959 17.512C19.9489 17.7386 20.0115 18.0064 19.9905 18.2792C19.9723 18.5157 19.9062 18.7461 19.7963 18.9564C19.6696 19.1988 19.4745 19.3927 19.3095 19.5567C19.2946 19.5715 19.28 19.586 19.2657 19.6003L18.899 19.967C18.6409 20.2251 18.4084 20.4577 18.2034 20.6283C17.9927 20.8037 17.7153 20.9982 17.3572 21.0615C16.8826 21.1455 16.3945 21.0302 16.0076 20.7429C15.7156 20.5261 15.5544 20.2281 15.4444 19.977C15.3373 19.7327 15.2334 19.4208 15.118 19.0745L13.6783 14.7554L11.5431 16.8906C11.4452 16.9885 11.3938 17.0403 11.3577 17.0803C11.347 17.0922 11.3405 17.1 11.3369 17.1044C11.3342 17.1102 11.332 17.1164 11.3305 17.1227C11.3305 17.1283 11.3308 17.1384 11.3317 17.1545C11.3349 17.2083 11.3427 17.2808 11.358 17.4183L11.5274 18.9429C11.5293 18.9604 11.5313 18.9781 11.5334 18.9962C11.5564 19.1986 11.5837 19.438 11.5456 19.6766C11.5125 19.8839 11.4425 20.0835 11.3388 20.266C11.2195 20.4761 11.0487 20.646 10.9043 20.7897C10.8914 20.8025 10.8787 20.8151 10.8663 20.8275L10.6842 21.0096L10.6623 21.0315C10.4631 21.2308 10.2773 21.4166 10.1098 21.5571C9.93068 21.7075 9.70398 21.8667 9.40996 21.9434C9.00605 22.0486 8.57783 22.0062 8.2024 21.8238C7.92912 21.691 7.73805 21.4904 7.59188 21.3078C7.45517 21.1371 7.30946 20.9185 7.15315 20.684L5.68991 18.4891C5.65731 18.4402 5.64056 18.4152 5.62771 18.3969C5.62393 18.3915 5.62149 18.3881 5.62015 18.3863C5.61811 18.384 5.61597 18.3819 5.61372 18.3799C5.61191 18.3785 5.60855 18.3761 5.60315 18.3723C5.58483 18.3594 5.55979 18.3427 5.51089 18.3101L3.31598 16.8468C3.08149 16.6905 2.86289 16.5448 2.69218 16.4081C2.50963 16.2619 2.309 16.0709 2.1762 15.7976C1.99377 15.4222 1.95136 14.994 2.05663 14.59C2.13325 14.296 2.29251 14.0693 2.44285 13.8902C2.58345 13.7227 2.76923 13.5369 2.96852 13.3377L2.99035 13.3158L3.17246 13.1337C3.18488 13.1213 3.19749 13.1086 3.21031 13.0957C3.35397 12.9513 3.52388 12.7805 3.73401 12.6612C3.91649 12.5575 4.11613 12.4875 4.32339 12.4544C4.56203 12.4163 4.80142 12.4436 5.00382 12.4666C5.02188 12.4687 5.03964 12.4707 5.05708 12.4726L6.58166 12.642C6.71922 12.6573 6.79172 12.6651 6.84553 12.6683C6.86158 12.6692 6.87173 12.6695 6.87732 12.6695C6.88364 12.668 6.88977 12.6658 6.89563 12.6631C6.89999 12.6595 6.90778 12.653 6.91971 12.6423C6.95975 12.6062 7.01148 12.5548 7.10936 12.4569L9.24457 10.3217L4.9255 8.88201C4.57925 8.76662 4.26727 8.66265 4.02296 8.55559C3.77192 8.44558 3.47387 8.28444 3.25705 7.99245C2.96976 7.60554 2.85452 7.11738 2.93845 6.64284C3.0018 6.2847 3.19632 6.00729 3.37166 5.79662C3.5423 5.5916 3.77484 5.35909 4.03294 5.10102C4.0412 5.09276 4.04949 5.08447 4.05781 5.07615L4.3997 4.73427C4.41398 4.71998 4.42849 4.70538 4.44325 4.69054C4.60733 4.52549 4.80124 4.33042 5.04363 4.20369C5.25389 4.09376 5.48428 4.02769 5.72084 4.00947C5.99355 3.98847 6.26138 4.05111 6.48799 4.10412C6.50837 4.10888 6.52841 4.11357 6.5481 4.11811L13.4261 5.70535C13.5778 5.74036 13.6587 5.75871 13.719 5.76909C13.7372 5.77221 13.7487 5.77372 13.7551 5.77442C13.7631 5.77316 13.7709 5.77086 13.7783 5.76757C13.7833 5.7635 13.7921 5.75597 13.8057 5.74348C13.8507 5.70197 13.9086 5.64261 14.0169 5.53075L16.5158 2.9496ZM19.789 4.08728C19.2125 3.51074 18.2754 3.51832 17.7083 4.1041L15.2093 6.68525C15.1955 6.69952 15.1815 6.71411 15.1672 6.72894C15.0086 6.89367 14.8214 7.08819 14.5865 7.21765C14.3643 7.34014 14.1182 7.4129 13.8651 7.4309C13.5976 7.44992 13.3347 7.38844 13.112 7.33638C13.092 7.33169 13.0723 7.32708 13.0529 7.32261L6.17488 5.73538C6.02047 5.69974 5.93828 5.6811 5.87696 5.67063C5.85858 5.66749 5.84688 5.66599 5.8404 5.66529C5.83334 5.66645 5.82643 5.66843 5.81983 5.67119C5.8147 5.67522 5.80558 5.68269 5.79165 5.69509C5.74521 5.73647 5.68539 5.79584 5.57333 5.9079L5.23145 6.24979C4.94054 6.5407 4.76338 6.71902 4.64738 6.8584C4.60701 6.9069 4.58412 6.93927 4.57198 6.95789C4.5728 6.96549 4.57456 6.97295 4.57722 6.98012C4.59641 6.99134 4.63136 7.01006 4.68916 7.03539C4.85525 7.10817 5.09345 7.18844 5.48374 7.31854L11.0433 9.17173C11.3162 9.26268 11.5225 9.48843 11.5886 9.76836C11.6546 10.0483 11.5711 10.3425 11.3677 10.5458L8.28299 13.6305C8.27058 13.643 8.25797 13.6556 8.24515 13.6685C8.10149 13.8129 7.93157 13.9838 7.72145 14.1031C7.53896 14.2068 7.33932 14.2768 7.13207 14.3099C6.89343 14.3479 6.65404 14.3207 6.45164 14.2977C6.43358 14.2956 6.41581 14.2936 6.39837 14.2916L4.87379 14.1222C4.73623 14.107 4.66373 14.0992 4.60992 14.096C4.59387 14.095 4.58373 14.0948 4.57813 14.0948C4.57182 14.0963 4.56568 14.0984 4.55982 14.1012C4.55546 14.1047 4.54768 14.1112 4.53574 14.122C4.49571 14.1581 4.44397 14.2095 4.3461 14.3073L4.16398 14.4895C3.9353 14.7181 3.8024 14.8521 3.71422 14.9572C3.68545 14.9914 3.6688 15.0143 3.65987 15.0275C3.65945 15.0365 3.66034 15.0455 3.66252 15.0542C3.67385 15.0654 3.69467 15.0845 3.7296 15.1125C3.83668 15.1983 3.99326 15.3035 4.26235 15.4829L6.43157 16.9291C6.43768 16.9332 6.44391 16.9373 6.45024 16.9415C6.52272 16.9897 6.60855 17.0468 6.68907 17.1155C6.75927 17.1754 6.82461 17.2407 6.8845 17.3109C6.95322 17.3915 7.0103 17.4773 7.05851 17.5498C7.06271 17.5561 7.06685 17.5623 7.07092 17.5684L8.51706 19.7376C8.69646 20.0067 8.80174 20.1633 8.88748 20.2704C8.91545 20.3053 8.93464 20.3261 8.94581 20.3375C8.95452 20.3397 8.96351 20.3405 8.97248 20.3401C8.98566 20.3312 9.00855 20.3145 9.04283 20.2858C9.1479 20.1976 9.28186 20.0647 9.51053 19.836L9.69265 19.6539C9.79052 19.556 9.84191 19.5043 9.87801 19.4643C9.88877 19.4523 9.89528 19.4445 9.8988 19.4402C9.90158 19.4343 9.90373 19.4282 9.90522 19.4219C9.9052 19.4163 9.90497 19.4061 9.90403 19.3901C9.90085 19.3363 9.89305 19.2638 9.87776 19.1262L9.70836 17.6016C9.70642 17.5842 9.7044 17.5664 9.70235 17.5484C9.67932 17.346 9.65209 17.1066 9.69015 16.8679C9.72321 16.6607 9.79323 16.461 9.89689 16.2786C10.0162 16.0684 10.1871 15.8985 10.3315 15.7549C10.3444 15.742 10.357 15.7294 10.3695 15.717L13.4542 12.6323C13.6575 12.4289 13.9517 12.3454 14.2316 12.4114C14.5116 12.4775 14.7373 12.6838 14.8283 12.9567L16.6815 18.5163C16.8116 18.9065 16.8918 19.1448 16.9646 19.3108C16.9899 19.3686 17.0087 19.4036 17.0199 19.4228C17.027 19.4254 17.0345 19.4272 17.0421 19.428C17.0607 19.4159 17.0931 19.393 17.1416 19.3526C17.281 19.2366 17.4593 19.0595 17.7502 18.7686L18.0921 18.4267C18.2042 18.3146 18.2635 18.2548 18.3049 18.2084C18.3173 18.1944 18.3248 18.1853 18.3288 18.1802C18.3316 18.1736 18.3336 18.1667 18.3347 18.1596C18.334 18.1531 18.3325 18.1414 18.3294 18.123C18.3189 18.0617 18.3003 17.9795 18.2646 17.8251L16.6713 10.9209C16.6669 10.9017 16.6624 10.8822 16.6577 10.8624C16.6061 10.6415 16.545 10.3803 16.5637 10.1138C16.5799 9.88252 16.6418 9.65678 16.7459 9.44964C16.8658 9.2109 17.0516 9.01747 17.2088 8.85384C17.2229 8.83915 17.2368 8.8247 17.2504 8.81048L19.8126 6.1274C20.3602 5.55389 20.3498 4.64802 19.789 4.08728Z" fill="#76787A"/>
</svg>
