<svg width="56" height="56" viewBox="0 0 56 56" fill="none" xmlns="http://www.w3.org/2000/svg">
<circle cx="28" cy="28" r="28" fill="#17191C" fill-opacity="0.4"/>
<path d="M23.9489 18C24.6621 18 24.9207 18.0743 25.1815 18.2137C25.4422 18.3532 25.6468 18.5578 25.7863 18.8185C25.9257 19.0793 26 19.3379 26 20.0511V35.9489C26 36.6621 25.9257 36.9207 25.7863 37.1815C25.6468 37.4422 25.4422 37.6468 25.1815 37.7863C24.9207 37.9257 24.6621 38 23.9489 38H22.0511C21.3379 38 21.0793 37.9257 20.8185 37.7863C20.5578 37.6468 20.3532 37.4422 20.2137 37.1815C20.0743 36.9207 20 36.6621 20 35.9489V20.0511C20 19.3379 20.0743 19.0793 20.2137 18.8185C20.3532 18.5578 20.5578 18.3532 20.8185 18.2137C21.0793 18.0743 21.3379 18 22.0511 18H23.9489ZM33.9489 18C34.6621 18 34.9207 18.0743 35.1815 18.2137C35.4422 18.3532 35.6468 18.5578 35.7863 18.8185C35.9257 19.0793 36 19.3379 36 20.0511V35.9489C36 36.6621 35.9257 36.9207 35.7863 37.1815C35.6468 37.4422 35.4422 37.6468 35.1815 37.7863C34.9207 37.9257 34.6621 38 33.9489 38H32.0511C31.3379 38 31.0793 37.9257 30.8185 37.7863C30.5578 37.6468 30.3532 37.4422 30.2137 37.1815C30.0743 36.9207 30 36.6621 30 35.9489V20.0511C30 19.3379 30.0743 19.0793 30.2137 18.8185C30.3532 18.5578 30.5578 18.3532 30.8185 18.2137C31.0793 18.0743 31.3379 18 32.0511 18H33.9489Z" fill="white"/>
</svg>
