<svg width="24" height="24" viewBox="0 0 24 24" fill="none" xmlns="http://www.w3.org/2000/svg">
<path fill-rule="evenodd" clip-rule="evenodd" d="M6 4.9001C5.44304 4.9001 4.9089 5.12135 4.51507 5.51517C4.12125 5.909 3.9 6.44314 3.9 7.0001V17.0001C3.9 17.5571 4.12125 18.0912 4.51507 18.485C4.9089 18.8788 5.44304 19.1001 6 19.1001H10C10.557 19.1001 11.0911 18.8788 11.4849 18.485C11.8787 18.0912 12.1 17.5571 12.1 17.0001V16.0001C12.1 15.503 12.5029 15.1001 13 15.1001C13.4971 15.1001 13.9 15.503 13.9 16.0001V17.0001C13.9 18.0344 13.4891 19.0264 12.7577 19.7578C12.0263 20.4892 11.0343 20.9001 10 20.9001H6C4.96565 20.9001 3.97367 20.4892 3.24228 19.7578C2.51089 19.0264 2.1 18.0344 2.1 17.0001V7.0001C2.1 5.96575 2.51089 4.97377 3.24228 4.24238C3.97367 3.51099 4.96565 3.1001 6 3.1001H10C11.0343 3.1001 12.0263 3.51099 12.7577 4.24238C13.4891 4.97377 13.9 5.96575 13.9 7.0001V8.0001C13.9 8.49715 13.4971 8.9001 13 8.9001C12.5029 8.9001 12.1 8.49715 12.1 8.0001V7.0001C12.1 6.44314 11.8787 5.909 11.4849 5.51517C11.0911 5.12135 10.557 4.9001 10 4.9001H6ZM16.3636 7.3637C16.7151 7.01223 17.2849 7.01223 17.6364 7.3637L21.6364 11.3637C21.9879 11.7152 21.9879 12.285 21.6364 12.6365L17.6364 16.6365C17.2849 16.988 16.7151 16.988 16.3636 16.6365C16.0121 16.285 16.0121 15.7152 16.3636 15.3637L18.8272 12.9001H7C6.50294 12.9001 6.1 12.4972 6.1 12.0001C6.1 11.503 6.50294 11.1001 7 11.1001H18.8272L16.3636 8.63649C16.0121 8.28502 16.0121 7.71517 16.3636 7.3637Z" fill="#FA4C56"/>
</svg>
