<svg width="36" height="36" viewBox="0 0 36 36" fill="none" xmlns="http://www.w3.org/2000/svg">
<circle cx="18" cy="18" r="18" fill="#A0A1B0"/>
<path fill-rule="evenodd" clip-rule="evenodd" d="M26 29C28.2091 29 30 27.2091 30 25C30 22.7909 28.2091 21 26 21C23.7909 21 22 22.7909 22 25C22 27.2091 23.7909 29 26 29ZM24.0358 24.3042C23.6487 24.3042 23.3349 24.618 23.3349 25.0051C23.3349 25.3922 23.6487 25.7061 24.0358 25.7061H28.2415C28.6287 25.7061 28.9425 25.3922 28.9425 25.0051C28.9425 24.618 28.6287 24.3042 28.2415 24.3042H24.0358Z" fill="#F4F5F8"/>
<path d="M18.005 21.7798C21.5838 21.7798 24.485 18.8786 24.485 15.2998C24.485 11.721 21.5838 8.81982 18.005 8.81982C14.4262 8.81982 11.525 11.721 11.525 15.2998C11.525 18.8786 14.4262 21.7798 18.005 21.7798Z" fill="#F4F5F8"/>
<path d="M18.0048 23.7599C11.4236 23.7599 5.92776 26.4505 4.62012 30.0353C7.91501 33.6972 12.6911 35.9999 18.005 35.9999C23.3187 35.9999 28.0947 33.6973 31.3896 30.0356C31.1753 29.448 30.8485 28.8844 30.4228 28.3528C29.4093 29.6876 27.8054 30.5496 26.0002 30.5496C22.9353 30.5496 20.4507 28.065 20.4507 25.0002C20.4507 24.6227 20.4884 24.2541 20.5602 23.8978C19.7323 23.8073 18.8781 23.7599 18.0048 23.7599Z" fill="#F4F5F8"/>
</svg>
