<svg width="40" height="40" viewBox="0 0 40 40" fill="none" xmlns="http://www.w3.org/2000/svg">
<circle cx="20" cy="20" r="20" fill="#7A6EF6"/>
<path fill-rule="evenodd" clip-rule="evenodd" d="M12.8189 10.736C13.8214 10.1998 14.8093 10 17.0638 10H22.9362C25.1907 10 26.1786 10.1998 27.1811 10.736C28.0768 11.215 28.785 11.9232 29.264 12.8189C29.8002 13.8214 30 14.8093 30 17.0638V22.9362C30 25.1907 29.8002 26.1786 29.264 27.1811C28.785 28.0768 28.0768 28.785 27.1811 29.264C26.1786 29.8002 25.1907 30 22.9362 30H17.0638C14.8093 30 13.8214 29.8002 12.8189 29.264C11.9232 28.785 11.215 28.0768 10.736 27.1811C10.1998 26.1786 10 25.1907 10 22.9362V17.0638C10 14.8093 10.1998 13.8214 10.736 12.8189C11.215 11.9232 11.9232 11.215 12.8189 10.736ZM22.3645 20.162C22.5015 19.9793 22.7558 19.9462 22.9325 20.088C22.961 20.1109 22.9865 20.1376 23.0081 20.1675L27.0619 25.7586C27.196 25.9436 27.1598 26.2061 26.9809 26.3448C26.9108 26.3992 26.8256 26.4286 26.738 26.4286H13.9763C13.7527 26.4286 13.5714 26.2411 13.5714 26.0098C13.5714 25.9167 13.6014 25.8262 13.6567 25.7527L16.6177 21.8147C16.755 21.6321 17.0093 21.5992 17.1858 21.7412C17.2089 21.7598 17.23 21.7809 17.2487 21.8042L19.2857 24.2857L22.3645 20.162ZM15.7143 17.1429C16.5033 17.1429 17.1429 16.5033 17.1429 15.7143C17.1429 14.9253 16.5033 14.2857 15.7143 14.2857C14.9253 14.2857 14.2857 14.9253 14.2857 15.7143C14.2857 16.5033 14.9253 17.1429 15.7143 17.1429Z" fill="white"/>
</svg>
