<svg width="25" height="24" viewBox="0 0 25 24" fill="none" xmlns="http://www.w3.org/2000/svg">
<path fill-rule="evenodd" clip-rule="evenodd" d="M11.8572 2.26627C12.2122 1.91124 12.7878 1.91124 13.1428 2.26627L17.6883 6.81172C18.0433 7.16674 18.0433 7.74235 17.6883 8.09737C17.3333 8.45239 16.7577 8.45239 16.4026 8.09737L13.4091 5.10383V16.5455C13.4091 17.0475 13.0021 17.4545 12.5 17.4545C11.9979 17.4545 11.5909 17.0475 11.5909 16.5455V5.10383L8.59737 8.09737C8.24235 8.45239 7.66674 8.45239 7.31172 8.09737C6.9567 7.74235 6.9567 7.16674 7.31172 6.81172L11.8572 2.26627ZM3.40909 15.6364C3.91117 15.6364 4.31818 16.0434 4.31818 16.5455V17.6818C4.31818 18.3449 4.58157 18.9807 5.05042 19.4496C5.51926 19.9184 6.15514 20.1818 6.81818 20.1818H18.1818C18.8449 20.1818 19.4807 19.9184 19.9496 19.4496C20.4184 18.9807 20.6818 18.3449 20.6818 17.6818V16.5455C20.6818 16.0434 21.0888 15.6364 21.5909 15.6364C22.093 15.6364 22.5 16.0434 22.5 16.5455V17.6818C22.5 18.8271 22.0451 19.9254 21.2352 20.7352C20.4254 21.5451 19.3271 22 18.1818 22H6.81818C5.67293 22 4.57458 21.5451 3.76477 20.7352C2.95495 19.9254 2.5 18.8271 2.5 17.6818V16.5455C2.5 16.0434 2.90701 15.6364 3.40909 15.6364Z" fill="#5159F6"/>
</svg>
