<svg width="24" height="24" viewBox="0 0 24 24" fill="none" xmlns="http://www.w3.org/2000/svg">
<path d="M12.4016 7.99961C12.4016 7.50255 11.9986 7.09961 11.5016 7.09961C11.0045 7.09961 10.6016 7.50255 10.6016 7.99961V12.4996C10.6016 12.8748 10.8343 13.2106 11.1856 13.3423L15.1856 14.8423C15.651 15.0168 16.1697 14.781 16.3443 14.3156C16.5188 13.8502 16.283 13.3314 15.8176 13.1569L12.4016 11.8759V7.99961Z" fill="#5159F6"/>
<path fill-rule="evenodd" clip-rule="evenodd" d="M12.0016 2.09961C6.53394 2.09961 2.10156 6.53199 2.10156 11.9996C2.10156 17.4672 6.53394 21.8996 12.0016 21.8996C17.4692 21.8996 21.9016 17.4672 21.9016 11.9996C21.9016 6.53199 17.4692 2.09961 12.0016 2.09961ZM3.90156 11.9996C3.90156 7.5261 7.52806 3.89961 12.0016 3.89961C16.4751 3.89961 20.1016 7.5261 20.1016 11.9996C20.1016 16.4731 16.4751 20.0996 12.0016 20.0996C7.52806 20.0996 3.90156 16.4731 3.90156 11.9996Z" fill="#5159F6"/>
</svg>
