<svg width="32" height="32" viewBox="0 0 32 32" fill="none" xmlns="http://www.w3.org/2000/svg">
<circle cx="16" cy="16" r="16" fill="#6B72FF"/>
<path d="M23.8618 14.942L11.1613 7.83427C10.9497 7.71086 10.706 7.65354 10.4616 7.66965C10.2171 7.68577 9.98308 7.7746 9.78949 7.92472C9.59179 8.0807 9.44825 8.295 9.37924 8.53719C9.31024 8.77938 9.31928 9.03715 9.40508 9.27391L11.5231 15.1908C11.5445 15.2498 11.5834 15.3008 11.6346 15.3372C11.6857 15.3736 11.7468 15.3935 11.8095 15.3943H17.2515C17.408 15.3918 17.5596 15.4488 17.6757 15.5537C17.7918 15.6586 17.8638 15.8037 17.8771 15.9596C17.8823 16.0419 17.8705 16.1244 17.8425 16.2019C17.8145 16.2795 17.7709 16.3505 17.7144 16.4106C17.6579 16.4706 17.5897 16.5184 17.5139 16.5511C17.4382 16.5837 17.3566 16.6004 17.2741 16.6003H11.8095C11.7468 16.6011 11.6857 16.621 11.6346 16.6574C11.5834 16.6937 11.5445 16.7448 11.5231 16.8038L9.40508 22.7207C9.34153 22.9029 9.32238 23.0977 9.34923 23.2889C9.37607 23.4801 9.44813 23.6621 9.55942 23.8198C9.67071 23.9775 9.81803 24.1064 9.98914 24.1958C10.1602 24.2852 10.3502 24.3324 10.5432 24.3337C10.7486 24.3327 10.9506 24.2809 11.1311 24.1829L23.8618 17.0525C24.0483 16.9466 24.2034 16.7931 24.3113 16.6078C24.4193 16.4224 24.4761 16.2118 24.4761 15.9973C24.4761 15.7828 24.4193 15.5721 24.3113 15.3868C24.2034 15.2014 24.0483 15.048 23.8618 14.942Z" fill="white"/>
</svg>
