<?xml version="1.0" encoding="UTF-8"?>
<svg width="42px" height="42px" viewBox="0 0 42 42" version="1.1" xmlns="http://www.w3.org/2000/svg" xmlns:xlink="http://www.w3.org/1999/xlink">
    <title>lock-dark</title>
    <g id="Page-1" stroke="none" stroke-width="1" fill="none" fill-rule="evenodd">
        <g id="lock-dark">
            <rect id="Rectangle" fill="#19191B" fill-rule="nonzero" x="0" y="0" width="42" height="42" rx="21"></rect>
            <path d="M17.5352,12.5348 C18.4541,11.6159 19.7004,11.0996 21,11.0996 C22.2996,11.0996 23.5459,11.6159 24.4648,12.5348 C25.3838,13.4537 25.9,14.7 25.9,15.9996 L25.9,19.0996 L27,19.0996 C27.7691,19.0996 28.5068,19.4051 29.0506,19.949 C29.5945,20.4929 29.9,21.2305 29.9,21.9996 L29.9,27.9996 C29.9,28.7687 29.5945,29.5064 29.0506,30.0502 C28.5068,30.5941 27.7691,30.8996 27,30.8996 L15,30.8996 C14.2309,30.8996 13.4933,30.5941 12.9494,30.0502 C12.4055,29.5064 12.1,28.7687 12.1,27.9996 L12.1,21.9996 C12.1,21.2305 12.4055,20.4929 12.9494,19.949 C13.4933,19.4051 14.2309,19.0996 15,19.0996 L16.1,19.0996 L16.1,15.9996 C16.1,14.7 16.6163,13.4537 17.5352,12.5348 Z M17.9,19.0996 L24.1,19.0996 L24.1,15.9996 C24.1,15.1774 23.7734,14.3889 23.192,13.8076 C22.6107,13.2262 21.8222,12.8996 21,12.8996 C20.1778,12.8996 19.3893,13.2262 18.808,13.8076 C18.2266,14.3889 17.9,15.1774 17.9,15.9996 L17.9,19.0996 Z M15,20.8996 C14.7083,20.8996 14.4285,21.0155 14.2222,21.2218 C14.0159,21.4281 13.9,21.7079 13.9,21.9996 L13.9,27.9996 C13.9,28.2913 14.0159,28.5711 14.2222,28.7774 C14.4285,28.9837 14.7083,29.0996 15,29.0996 L27,29.0996 C27.2917,29.0996 27.5715,28.9837 27.7778,28.7774 C27.9841,28.5711 28.1,28.2913 28.1,27.9996 L28.1,21.9996 C28.1,21.7079 27.9841,21.4281 27.7778,21.2218 C27.5715,21.0155 27.2917,20.8996 27,20.8996 L15,20.8996 Z M21,23.0996 C21.4971,23.0996 21.9,23.5026 21.9,23.9996 L21.9,25.9996 C21.9,26.4967 21.4971,26.8996 21,26.8996 C20.5029,26.8996 20.1,26.4967 20.1,25.9996 L20.1,23.9996 C20.1,23.5026 20.5029,23.0996 21,23.0996 Z" id="Shape" fill="#6B72FF"></path>
        </g>
    </g>
</svg>