<svg width="24" height="24" viewBox="0 0 24 24" fill="none" xmlns="http://www.w3.org/2000/svg">
<path fill-rule="evenodd" clip-rule="evenodd" d="M12 3.63265C9.78084 3.63265 7.65257 4.51421 6.08339 6.08339C4.51421 7.65257 3.63265 9.78084 3.63265 12C3.63265 13.0988 3.84908 14.1869 4.26958 15.202C4.69008 16.2172 5.30641 17.1396 6.08339 17.9166C6.86037 18.6936 7.78278 19.3099 8.79796 19.7304C9.81313 20.1509 10.9012 20.3673 12 20.3673C13.0988 20.3673 14.1869 20.1509 15.202 19.7304C16.2172 19.3099 17.1396 18.6936 17.9166 17.9166C18.6936 17.1396 19.3099 16.2172 19.7304 15.202C20.1509 14.1869 20.3673 13.0988 20.3673 12C20.3673 9.78084 19.4858 7.65258 17.9166 6.08339C16.3474 4.51421 14.2192 3.63265 12 3.63265ZM4.92893 4.92893C6.8043 3.05357 9.34784 2 12 2C14.6522 2 17.1957 3.05357 19.0711 4.92893C20.9464 6.8043 22 9.34784 22 12C22 13.3132 21.7413 14.6136 21.2388 15.8268C20.7362 17.0401 19.9997 18.1425 19.0711 19.0711C18.1425 19.9997 17.0401 20.7362 15.8268 21.2388C14.6136 21.7413 13.3132 22 12 22C10.6868 22 9.38642 21.7413 8.17317 21.2388C6.95991 20.7362 5.85752 19.9997 4.92893 19.0711C4.00035 18.1425 3.26375 17.0401 2.7612 15.8268C2.25866 14.6136 2 13.3132 2 12C2 9.34784 3.05357 6.8043 4.92893 4.92893ZM15.6385 9.38195C15.9573 9.70075 15.9573 10.2176 15.6385 10.5364L11.5568 14.618C11.238 14.9368 10.7212 14.9368 10.4024 14.618L8.36155 12.5772C8.04275 12.2584 8.04275 11.7416 8.36155 11.4228C8.68034 11.104 9.19721 11.104 9.51601 11.4228L10.9796 12.8864L14.484 9.38195C14.8028 9.06316 15.3197 9.06316 15.6385 9.38195Z" fill="#111539"/>
</svg>
