<svg width="24" height="24" viewBox="0 0 24 24" fill="none" xmlns="http://www.w3.org/2000/svg">
<path fill-rule="evenodd" clip-rule="evenodd" d="M11.1241 13.027C11.046 13.1051 10.9194 13.1051 10.8413 13.027L9.37771 11.5634C9.13702 11.3227 8.74678 11.3227 8.50609 11.5634C8.2654 11.8041 8.2654 12.1943 8.50609 12.435L10.5469 14.4758C10.7876 14.7165 11.1778 14.7165 11.4185 14.4758L15.5002 10.3942C15.7409 10.1535 15.7409 9.76329 15.5002 9.52259C15.2595 9.2819 14.8692 9.2819 14.6285 9.52259L11.1241 13.027ZM5.9451 5.94119C7.55179 4.3345 9.73092 3.43187 12.0031 3.43187C14.2753 3.43187 16.4545 4.3345 18.0612 5.94119C19.6678 7.54788 20.5705 9.72702 20.5705 11.9992C20.5705 13.1243 20.3489 14.2384 19.9183 15.2778C19.4878 16.3172 18.8567 17.2617 18.0612 18.0573C17.2656 18.8528 16.3211 19.4839 15.2817 19.9144C14.2423 20.345 13.1282 20.5666 12.0031 20.5666C10.878 20.5666 9.76398 20.345 8.72454 19.9144C7.68511 19.4839 6.74065 18.8528 5.9451 18.0573C5.14954 17.2617 4.51848 16.3172 4.08793 15.2778C3.65738 14.2384 3.43578 13.1243 3.43578 11.9992C3.43578 9.72702 4.33841 7.54788 5.9451 5.94119ZM12.0031 2.19922C9.404 2.19922 6.91133 3.23172 5.07348 5.06957C3.23562 6.90743 2.20313 9.4001 2.20312 11.9992C2.20312 13.2862 2.45661 14.5605 2.94911 15.7495C3.4416 16.9385 4.16346 18.0189 5.07348 18.9289C5.98349 19.8389 7.06384 20.5607 8.25283 21.0532C9.44182 21.5457 10.7162 21.7992 12.0031 21.7992C13.2901 21.7992 14.5644 21.5457 15.7534 21.0532C16.9424 20.5607 18.0228 19.8389 18.9328 18.9289C19.8428 18.0189 20.5646 16.9385 21.0571 15.7495C21.5496 14.5605 21.8031 13.2862 21.8031 11.9992C21.8031 9.4001 20.7706 6.90743 18.9328 5.06957C17.0949 3.23172 14.6022 2.19922 12.0031 2.19922Z" fill="#111539"/>
</svg>
