<svg width="32" height="32" viewBox="0 0 32 32" fill="none" xmlns="http://www.w3.org/2000/svg">
<path fill-rule="evenodd" clip-rule="evenodd" d="M16 3C16.726 3 17.3146 3.58857 17.3146 4.31461V18.669L20.9131 15.0704C21.4265 14.557 22.2589 14.557 22.7723 15.0704C23.2857 15.5838 23.2857 16.4162 22.7723 16.9296L16.9296 22.7723C16.4162 23.2857 15.5838 23.2857 15.0704 22.7723L9.22774 16.9296C8.71435 16.4162 8.71435 15.5838 9.22774 15.0704C9.74112 14.557 10.5735 14.557 11.0869 15.0704L14.6854 18.669V4.31461C14.6854 3.58857 15.274 3 16 3ZM4.31461 20.5281C5.04064 20.5281 5.62921 21.1167 5.62921 21.8427V23.3034C5.62921 24.1169 5.95239 24.8971 6.52764 25.4724C7.10289 26.0476 7.8831 26.3708 8.69663 26.3708H23.3034C24.1169 26.3708 24.8971 26.0476 25.4724 25.4724C26.0476 24.8971 26.3708 24.1169 26.3708 23.3034V21.8427C26.3708 21.1167 26.9594 20.5281 27.6854 20.5281C28.4114 20.5281 29 21.1167 29 21.8427V23.3034C29 24.8142 28.3998 26.2632 27.3315 27.3315C26.2632 28.3998 24.8142 29 23.3034 29H8.69663C7.18579 29 5.73683 28.3998 4.6685 27.3315C3.60018 26.2632 3 24.8142 3 23.3034V21.8427C3 21.1167 3.58857 20.5281 4.31461 20.5281Z" fill="white"/>
</svg>
