<svg width="32" height="32" viewBox="0 0 32 32" fill="none" xmlns="http://www.w3.org/2000/svg">
<path fill-rule="evenodd" clip-rule="evenodd" d="M15.0704 3.38504C15.5838 2.87165 16.4162 2.87165 16.9296 3.38504L22.7723 9.22774C23.2857 9.74112 23.2857 10.5735 22.7723 11.0869C22.2589 11.6003 21.4265 11.6003 20.9131 11.0869L17.3146 7.48835V21.8427C17.3146 22.5687 16.726 23.1573 16 23.1573C15.274 23.1573 14.6854 22.5687 14.6854 21.8427V7.48835L11.0869 11.0869C10.5735 11.6003 9.74112 11.6003 9.22774 11.0869C8.71435 10.5735 8.71435 9.74112 9.22774 9.22774L15.0704 3.38504ZM4.31461 20.5281C5.04064 20.5281 5.62921 21.1167 5.62921 21.8427V23.3034C5.62921 24.1169 5.95239 24.8971 6.52764 25.4724C7.10289 26.0476 7.8831 26.3708 8.69663 26.3708H23.3034C24.1169 26.3708 24.8971 26.0476 25.4724 25.4724C26.0476 24.8971 26.3708 24.1169 26.3708 23.3034V21.8427C26.3708 21.1167 26.9594 20.5281 27.6854 20.5281C28.4114 20.5281 29 21.1167 29 21.8427V23.3034C29 24.8142 28.3998 26.2632 27.3315 27.3315C26.2632 28.3998 24.8142 29 23.3034 29H8.69663C7.18579 29 5.73683 28.3998 4.6685 27.3315C3.60018 26.2632 3 24.8142 3 23.3034V21.8427C3 21.1167 3.58857 20.5281 4.31461 20.5281Z" fill="white"/>
</svg>
